<svg xmlns="http://www.w3.org/2000/svg" xmlns:xlink="http://www.w3.org/1999/xlink" width="1080" zoomAndPan="magnify" viewBox="0 0 810 110.999996" height="148" preserveAspectRatio="xMidYMid meet" version="1.0"><defs><clipPath id="00229513d6"><path d="M 412 21 L 536 21 L 536 110.25 L 412 110.25 Z M 412 21 " clip-rule="nonzero"/></clipPath><clipPath id="6fdc5685e7"><path d="M 274 21 L 398 21 L 398 110.25 L 274 110.25 Z M 274 21 " clip-rule="nonzero"/></clipPath></defs><path fill="#283618" d="M 685.464844 57.53125 L 797.234375 57.53125 L 797.234375 60.898438 L 685.464844 60.898438 Z M 685.464844 57.53125 " fill-opacity="1" fill-rule="nonzero"/><path fill="#283618" d="M 415.429688 51.8125 C 416.035156 51.34375 416.035156 50.46875 415.363281 50.0625 C 412.804688 48.582031 407.691406 45.351562 405.941406 42.394531 C 405.605469 41.855469 405 41.921875 404.664062 42.394531 C 402.847656 45.285156 397.664062 48.449219 395.175781 49.929688 C 394.503906 50.332031 394.503906 51.207031 395.109375 51.613281 C 399.480469 54.910156 402.375 65.339844 403.921875 68.972656 C 404.394531 70.117188 406.007812 70.117188 406.480469 68.972656 C 407.960938 65.472656 410.988281 55.109375 415.429688 51.8125 Z M 415.429688 51.8125 " fill-opacity="1" fill-rule="nonzero"/><g clip-path="url(#00229513d6)"><path fill="#283618" d="M 488.101562 61.097656 C 490.1875 60.089844 492.007812 58.878906 493.6875 57.53125 C 507.75 54.976562 510.441406 41.785156 510.441406 41.785156 C 500.214844 42.460938 494.628906 49.929688 492.074219 54.503906 C 476.597656 68.5 433.261719 60.828125 432.859375 60.761719 L 432.859375 60.964844 C 432.789062 60.964844 432.722656 60.898438 432.65625 60.898438 C 436.894531 57.800781 445.777344 52.417969 459.234375 50.601562 C 476.191406 48.246094 482.382812 39.5 484.335938 35.933594 C 486.691406 33.175781 490.121094 27.859375 488.171875 21.195312 C 488.171875 21.195312 481.171875 25.367188 481.710938 33.914062 C 480.566406 36.335938 475.25 45.015625 458.832031 47.304688 C 456.074219 47.707031 453.582031 48.246094 451.160156 48.851562 C 453.046875 46.96875 454.863281 44.882812 455.9375 42.59375 C 458.160156 39.632812 460.714844 34.722656 458.964844 28.800781 C 458.964844 28.800781 451.765625 33.105469 452.507812 41.855469 C 449.546875 47.035156 442.144531 51.878906 442.078125 51.878906 C 434.808594 54.976562 430.167969 58.476562 428.417969 60.023438 C 422.765625 59.011719 417.988281 58.8125 414.421875 58.8125 C 413.882812 59.886719 413.34375 61.03125 412.871094 62.175781 C 424.042969 61.839844 453.917969 63.925781 476.460938 93.398438 C 479.085938 107.460938 492.074219 110.152344 492.074219 110.152344 C 491.398438 99.859375 483.863281 94.207031 479.355469 91.648438 C 469.394531 78.59375 458.089844 70.722656 447.390625 65.945312 C 450.890625 66.214844 454.726562 66.414062 458.695312 66.414062 C 468.320312 66.414062 478.75 65.339844 486.890625 61.773438 C 489.246094 65.339844 508.019531 92.253906 535.945312 87.074219 C 535.878906 87.003906 521.480469 55.378906 488.101562 61.097656 Z M 488.101562 61.097656 " fill-opacity="1" fill-rule="nonzero"/></g><path fill="#283618" d="M 663.527344 51.878906 C 658.011719 51.542969 653.234375 53.429688 651.414062 56.320312 C 649.464844 55.246094 645.496094 53.699219 638.898438 53.429688 C 641.121094 52.21875 643.273438 50.132812 645.023438 47.371094 C 647.648438 43.132812 648.1875 34.65625 648.320312 30.347656 C 648.320312 29.070312 647.042969 28.261719 645.964844 28.867188 C 642.128906 30.820312 634.796875 35.058594 632.171875 39.296875 C 628.605469 44.949219 628.46875 51.273438 631.699219 53.699219 C 624.363281 54.503906 614.945312 56.792969 602.96875 62.175781 C 575.648438 74.355469 542.472656 57.332031 530.359375 50.0625 C 537.964844 49.324219 544.695312 45.824219 548.328125 43.671875 C 547.585938 42.863281 546.847656 41.988281 546.105469 41.113281 C 540.183594 44.679688 526.257812 51.140625 515.019531 42.863281 C 514.953125 43 514.816406 43.132812 514.816406 43.335938 C 514.277344 45.21875 514.546875 46.566406 514.546875 46.699219 C 517.644531 48.582031 520.804688 49.660156 523.96875 50.0625 C 527.535156 52.554688 569.523438 80.949219 604.378906 65.339844 C 637.753906 50.398438 650.40625 59.617188 650.742188 59.886719 C 651.414062 63.589844 656.328125 66.75 662.652344 67.15625 C 667.632812 67.492188 675.371094 63.992188 679.207031 62.042969 C 680.351562 61.503906 680.417969 59.957031 679.40625 59.28125 C 675.707031 56.65625 668.574219 52.21875 663.527344 51.878906 Z M 663.527344 51.878906 " fill-opacity="1" fill-rule="nonzero"/><path fill="#283618" d="M 602.226562 72 C 615.683594 89.160156 638.765625 82.902344 638.765625 82.902344 C 623.421875 62.78125 602.226562 72 602.226562 72 Z M 602.226562 72 " fill-opacity="1" fill-rule="nonzero"/><path fill="#283618" d="M 583.925781 47.777344 C 562.054688 34.992188 546.039062 51.746094 546.039062 51.746094 C 565.015625 62.445312 583.925781 47.777344 583.925781 47.777344 Z M 583.925781 47.777344 " fill-opacity="1" fill-rule="nonzero"/><path fill="#283618" d="M 495.976562 35.867188 C 495.976562 35.867188 504.925781 37.546875 506.609375 18.773438 C 508.289062 0 484.671875 1.953125 491.132812 14.9375 C 496.109375 25.167969 495.976562 35.867188 495.976562 35.867188 Z M 495.976562 35.867188 " fill-opacity="1" fill-rule="nonzero"/><path fill="#283618" d="M 520.132812 36.875 C 527.46875 39.566406 527.132812 26.78125 517.171875 28.800781 C 507.214844 30.820312 508.625 35.460938 508.625 35.460938 C 508.625 35.460938 514.347656 34.789062 520.132812 36.875 Z M 520.132812 36.875 " fill-opacity="1" fill-rule="nonzero"/><path fill="#283618" d="M 12.765625 57.53125 L 124.535156 57.53125 L 124.535156 60.898438 L 12.765625 60.898438 Z M 12.765625 57.53125 " fill-opacity="1" fill-rule="nonzero"/><g clip-path="url(#6fdc5685e7)"><path fill="#283618" d="M 381.71875 60.023438 C 379.96875 58.476562 375.324219 54.976562 368.058594 51.878906 C 367.992188 51.8125 360.589844 46.96875 357.628906 41.855469 C 358.367188 33.105469 351.167969 28.800781 351.167969 28.800781 C 349.417969 34.722656 351.910156 39.632812 354.195312 42.59375 C 355.273438 44.816406 357.089844 46.96875 358.972656 48.851562 C 356.617188 48.246094 354.0625 47.707031 351.300781 47.304688 C 334.882812 45.015625 329.636719 36.335938 328.425781 33.914062 C 328.894531 25.4375 321.964844 21.195312 321.964844 21.195312 C 320.011719 27.859375 323.445312 33.242188 325.800781 35.933594 C 327.683594 39.5 333.941406 48.246094 350.898438 50.601562 C 364.355469 52.484375 373.238281 57.800781 377.476562 60.898438 C 377.410156 60.898438 377.34375 60.964844 377.277344 60.964844 L 377.277344 60.761719 C 376.871094 60.832031 333.539062 68.5 318.0625 54.503906 C 315.503906 49.929688 309.917969 42.460938 299.691406 41.785156 C 299.691406 41.785156 302.382812 54.976562 316.445312 57.53125 C 318.128906 58.878906 319.945312 60.089844 322.03125 61.097656 C 288.65625 55.378906 274.253906 87.007812 274.253906 87.007812 C 302.179688 92.1875 320.953125 65.269531 323.308594 61.703125 C 331.453125 65.269531 341.882812 66.347656 351.503906 66.347656 C 355.542969 66.347656 359.378906 66.144531 362.808594 65.875 C 352.109375 70.65625 340.804688 78.527344 330.847656 91.582031 C 326.269531 94.070312 318.734375 99.722656 318.128906 110.085938 C 318.128906 110.085938 331.183594 107.394531 333.738281 93.332031 C 356.347656 63.925781 386.160156 61.773438 397.328125 62.109375 C 396.859375 60.964844 396.320312 59.820312 395.78125 58.746094 C 392.148438 58.8125 387.304688 59.011719 381.71875 60.023438 Z M 381.71875 60.023438 " fill-opacity="1" fill-rule="nonzero"/></g><path fill="#283618" d="M 295.519531 46.566406 C 295.519531 46.429688 295.789062 45.085938 295.25 43.199219 C 295.183594 43.066406 295.117188 42.929688 295.046875 42.730469 C 283.8125 51.003906 269.882812 44.480469 263.960938 40.980469 C 263.21875 41.921875 262.480469 42.730469 261.738281 43.535156 C 265.304688 45.691406 272.035156 49.1875 279.707031 49.929688 C 267.59375 57.195312 234.421875 74.289062 207.101562 62.042969 C 195.121094 56.726562 185.703125 54.371094 178.367188 53.5625 C 181.597656 51.140625 181.460938 44.882812 177.898438 39.164062 C 175.273438 34.921875 167.871094 30.683594 164.101562 28.734375 C 163.027344 28.128906 161.679688 28.933594 161.746094 30.214844 C 161.8125 34.519531 162.351562 43 165.042969 47.238281 C 166.726562 49.996094 168.945312 52.082031 171.167969 53.292969 C 164.574219 53.496094 160.601562 55.109375 158.652344 56.1875 C 156.765625 53.292969 152.058594 51.410156 146.539062 51.746094 C 141.558594 52.082031 134.359375 56.589844 130.792969 59.011719 C 129.785156 59.6875 129.851562 61.234375 130.996094 61.773438 C 134.832031 63.722656 142.503906 67.222656 147.546875 66.886719 C 153.808594 66.484375 158.785156 63.320312 159.460938 59.617188 C 159.726562 59.417969 172.445312 50.199219 205.820312 65.070312 C 240.746094 80.679688 282.667969 52.285156 286.234375 49.792969 C 289.261719 49.527344 292.425781 48.515625 295.519531 46.566406 Z M 295.519531 46.566406 " fill-opacity="1" fill-rule="nonzero"/><path fill="#283618" d="M 171.300781 82.96875 C 171.300781 82.96875 194.382812 89.226562 207.839844 72.066406 C 207.773438 72 186.578125 62.78125 171.300781 82.96875 Z M 171.300781 82.96875 " fill-opacity="1" fill-rule="nonzero"/><path fill="#283618" d="M 263.960938 51.679688 C 263.960938 51.679688 247.878906 34.992188 226.074219 47.707031 C 226.074219 47.777344 244.984375 62.445312 263.960938 51.679688 Z M 263.960938 51.679688 " fill-opacity="1" fill-rule="nonzero"/><path fill="#283618" d="M 314.023438 35.867188 C 314.023438 35.867188 313.890625 25.097656 318.867188 14.9375 C 325.261719 1.953125 301.710938 0 303.390625 18.773438 C 305.074219 37.613281 314.023438 35.867188 314.023438 35.867188 Z M 314.023438 35.867188 " fill-opacity="1" fill-rule="nonzero"/><path fill="#283618" d="M 289.867188 36.875 C 295.652344 34.789062 301.375 35.527344 301.375 35.527344 C 301.375 35.527344 302.785156 30.820312 292.828125 28.867188 C 282.867188 26.78125 282.53125 39.5 289.867188 36.875 Z M 289.867188 36.875 " fill-opacity="1" fill-rule="nonzero"/></svg>