<svg xmlns="http://www.w3.org/2000/svg" xmlns:xlink="http://www.w3.org/1999/xlink" width="1080" zoomAndPan="magnify" viewBox="0 0 810 809.999993" height="1080" preserveAspectRatio="xMidYMid meet" version="1.0"><defs><clipPath id="26192d05df"><path d="M 25 93.046875 L 785 93.046875 L 785 576 L 25 576 Z M 25 93.046875 " clip-rule="nonzero"/></clipPath></defs><g clip-path="url(#26192d05df)"><path fill="current" d="M 370.527344 161.988281 C 275.34375 161.988281 198.179688 239.148438 198.179688 334.332031 C 198.179688 353.371094 182.746094 368.804688 163.710938 368.804688 C 125.636719 368.804688 94.773438 399.667969 94.773438 437.742188 C 94.773438 475.816406 125.636719 506.679688 163.710938 506.679688 L 206.796875 506.679688 L 206.796875 575.617188 L 163.710938 575.617188 C 87.5625 575.617188 25.832031 513.886719 25.832031 437.742188 C 25.832031 372.804688 70.722656 318.355469 131.164062 303.726562 C 146.203125 184.921875 247.636719 93.046875 370.527344 93.046875 C 467.390625 93.046875 550.859375 150.109375 589.273438 232.390625 C 596.660156 231.425781 604.179688 230.925781 611.8125 230.925781 C 706.996094 230.925781 784.15625 308.089844 784.15625 403.273438 C 784.15625 447.769531 771.171875 490.480469 744.480469 522.738281 C 717.246094 555.65625 677.324219 575.617188 629.046875 575.617188 L 603.195312 575.617188 L 603.195312 506.679688 L 629.046875 506.679688 C 656.914062 506.679688 677.3125 495.777344 691.363281 478.792969 C 705.960938 461.152344 715.21875 434.921875 715.21875 403.273438 C 715.21875 346.160156 668.921875 299.863281 611.8125 299.863281 C 600.25 299.863281 589.199219 301.75 578.90625 305.199219 C 570.121094 308.144531 560.523438 307.433594 552.273438 303.21875 C 544.019531 299.007812 537.8125 291.652344 535.046875 282.808594 C 513.136719 212.757812 447.71875 161.988281 370.527344 161.988281 Z M 370.527344 161.988281 " fill-opacity="1" fill-rule="evenodd"/></g><path fill="current" d="M 370.527344 437.742188 L 439.464844 437.742188 L 439.464844 661.792969 L 370.527344 661.792969 Z M 370.527344 437.742188 " fill-opacity="1" fill-rule="evenodd"/><path fill="current" d="M 380.625 703.398438 L 277.21875 599.992188 L 325.964844 551.246094 L 405 630.28125 L 484.035156 551.246094 L 532.78125 599.992188 L 429.371094 703.398438 C 415.910156 716.859375 394.085938 716.859375 380.625 703.398438 Z M 380.625 703.398438 " fill-opacity="1" fill-rule="evenodd"/></svg>