<svg xmlns="http://www.w3.org/2000/svg" xmlns:xlink="http://www.w3.org/1999/xlink" width="1080" zoomAndPan="magnify" viewBox="0 0 810 809.999993" height="1080" preserveAspectRatio="xMidYMid meet" version="1.0"><path fill="current" d="M 262.078125 803.421875 C 256.289062 794.566406 263.664062 767.472656 288.117188 707.808594 C 311.328125 651.160156 333.507812 588.5625 331.179688 586.234375 C 330.464844 585.523438 319.417969 583.300781 306.621094 581.34375 C 276.671875 576.71875 260.28125 572.859375 242.148438 566.09375 C 209.710938 554.011719 166.070312 528.660156 148.992188 512.007812 C 128.558594 492.074219 117.136719 463.554688 111.058594 417.425781 C 106.90625 385.914062 109.761719 296.246094 115.550781 276.210938 C 116.820312 271.796875 118.40625 269.734375 121.339844 268.730469 C 124.804688 267.511719 126.601562 268.199219 134.214844 273.515625 C 145.792969 281.628906 148.488281 282.609375 191.234375 294.1875 C 247.699219 309.464844 257.902344 313.5625 285.816406 332.09375 C 325.679688 358.582031 350.742188 403.070312 359.835938 463.554688 L 361.871094 477.113281 L 363.746094 468.8125 C 370.277344 439.972656 376.78125 391.226562 378.472656 358.238281 L 379.289062 342.085938 L 370.433594 330.269531 C 358.566406 314.433594 331.417969 288.421875 308.367188 270.871094 C 270.273438 241.84375 246.800781 212.953125 236.386719 182.339844 C 233.027344 172.480469 232.183594 166.875 231.574219 150.25 C 230.703125 126.21875 232.65625 109.910156 239.742188 81.96875 C 250.871094 38.351562 262.554688 6.894531 268.925781 3.484375 C 273.207031 1.183594 275.058594 2.503906 283.542969 13.847656 C 294.117188 27.960938 304.773438 34.992188 346.855469 55.640625 C 401.3125 82.363281 411.410156 89.449219 432.609375 115.964844 C 447.730469 134.863281 454.921875 147.894531 460.179688 165.871094 C 470.542969 201.375 464.570312 243.800781 443.84375 281.761719 C 435.332031 297.359375 431.527344 302.617188 411.515625 326.355469 L 395.523438 345.335938 L 396.421875 359.109375 C 397.238281 371.957031 395.8125 408.066406 393.644531 428.792969 L 392.691406 437.859375 L 400.886719 422.738281 C 418.230469 390.777344 433.878906 368.363281 453.703125 347.132812 C 484.976562 313.589844 513.316406 299.632812 562.164062 293.65625 C 597.507812 289.347656 720.378906 287.023438 724.660156 290.589844 C 728.808594 294.054688 726.90625 301.058594 716.386719 321.175781 C 710.625 332.171875 702.03125 349.644531 697.328125 360.035156 C 673.085938 413.273438 650.960938 439.921875 615.433594 458.636719 C 585.269531 474.523438 554.765625 480.628906 496.449219 482.480469 C 446.144531 484.066406 436.679688 484.832031 422.539062 488.429688 C 409.480469 491.757812 398.21875 497.125 387.617188 505.027344 C 380.136719 510.632812 380.003906 510.84375 377.253906 524.113281 C 372.601562 546.53125 358.59375 596.203125 347.648438 628.980469 C 322.140625 705.484375 293.589844 771.066406 274.875 796.257812 C 271.648438 800.59375 269.03125 804.824219 269.03125 805.695312 C 269.03125 808.710938 264.566406 807.257812 262.054688 803.449219 Z M 335.542969 571.882812 C 335.542969 568.605469 310.5625 526.28125 300.382812 512.296875 C 289.785156 497.734375 287.722656 495.722656 277.753906 490.304688 C 262.238281 481.84375 248.941406 476.875 229.804688 472.300781 C 212.886719 468.285156 208.601562 465.746094 218.832031 465.800781 C 229.855469 465.851562 251.503906 471.773438 264.40625 478.25 C 271.4375 481.765625 277.886719 484.9375 278.761719 485.28125 C 281.191406 486.234375 245.054688 446.742188 231.070312 433.125 L 218.460938 420.859375 L 193.535156 412.957031 C 162.976562 403.253906 161.8125 402.804688 161.8125 400.824219 C 161.8125 397.492188 186.554688 403.042969 206.277344 410.816406 C 207.886719 411.449219 203.632812 405.660156 196.839844 397.96875 C 182.351562 381.550781 169.375 362.574219 164.957031 351.3125 C 158.535156 334.972656 161.917969 334.605469 171.277344 350.625 C 178.996094 363.839844 197.078125 385.863281 213.121094 401.617188 L 223.882812 412.191406 L 221.476562 405.398438 C 216.480469 391.199219 205.429688 347.609375 206.277344 345.417969 C 207.703125 341.664062 211.140625 345.652344 214.734375 355.304688 C 218.09375 364.238281 226.683594 395.667969 229.671875 409.917969 C 231.308594 417.664062 232.578125 419.40625 249.179688 436.351562 C 258.960938 446.316406 272.546875 460.617188 279.394531 468.097656 L 291.84375 481.6875 L 287.167969 470.347656 C 284.601562 464.109375 280.160156 451.050781 277.28125 441.320312 C 274.425781 431.59375 270.722656 420.171875 269.058594 415.945312 C 265.464844 406.824219 265.199219 402.332031 268.265625 402.332031 C 272.890625 402.332031 285 432.414062 297.792969 475.605469 C 301.230469 487.238281 305.246094 498.472656 306.703125 500.535156 C 317.0625 515.257812 326.765625 530.511719 333.453125 542.59375 C 342.070312 558.164062 342.203125 558.136719 344.582031 541.5625 C 346.0625 531.253906 343.867188 489.40625 340.695312 466.75 C 339.425781 457.738281 336.070312 442.695312 333.214844 433.339844 C 320.578125 391.652344 302.5 364.765625 273.894531 345.230469 C 250.316406 329.105469 231.996094 321.492188 176.855469 304.8125 C 161.46875 300.160156 144.867188 294.371094 139.976562 291.914062 C 135.085938 289.453125 130.726562 287.789062 130.355469 288.160156 C 129.960938 288.554688 128.347656 297.226562 126.734375 307.429688 C 122.925781 331.566406 121.527344 375.632812 123.90625 396.355469 C 128.453125 435.953125 140.296875 470.503906 156.050781 490.144531 C 166.597656 503.285156 203.5 528.820312 233.53125 543.753906 C 253.886719 553.878906 264.378906 557.027344 308.3125 566.304688 C 318.703125 568.5 328.21875 570.878906 329.460938 571.617188 C 332.316406 573.28125 335.515625 573.414062 335.515625 571.855469 Z M 406.097656 479.175781 C 421.347656 471.800781 439.457031 468.972656 481.644531 467.359375 C 522.117188 465.800781 536.894531 464.320312 559.125 459.507812 C 610.171875 448.484375 642.238281 425.644531 668.195312 381.816406 C 674.566406 371.085938 682.761719 355.832031 686.433594 347.925781 C 690.109375 340.023438 697.351562 326.542969 702.5625 317.949219 C 707.769531 309.359375 711.761719 302.0625 711.441406 301.746094 C 711.125 301.429688 685.0625 302.167969 653.523438 303.386719 C 554.050781 307.21875 534.832031 310.097656 506.679688 325.273438 C 476.464844 341.558594 448.707031 371.164062 421.640625 415.917969 C 409.929688 435.292969 397.503906 458.371094 397.503906 460.777344 C 397.503906 461.386719 401.417969 458.105469 406.203125 453.480469 C 417.726562 442.324219 431.550781 431.117188 445.035156 421.996094 C 451.085938 417.898438 456.402344 413.671875 456.824219 412.585938 C 457.246094 411.503906 465.574219 401.085938 475.328125 389.457031 C 485.082031 377.824219 496.847656 363.023438 501.445312 356.597656 C 506.652344 349.328125 510.882812 344.886719 512.601562 344.886719 C 514.109375 344.886719 515.351562 345.523438 515.351562 346.289062 C 515.351562 349.117188 497.191406 374.730469 484.421875 389.878906 L 471.335938 405.421875 L 486.273438 397.914062 C 494.492188 393.792969 507.367188 388.265625 514.902344 385.648438 C 528.277344 380.972656 528.832031 380.601562 539.300781 368.519531 C 545.195312 361.726562 553.601562 352.050781 557.988281 347.003906 C 562.378906 341.953125 567.425781 335.820312 569.222656 333.414062 C 571.894531 329.792969 572.84375 329.371094 574.484375 330.957031 C 577.710938 334.050781 571.023438 344.808594 555.820312 360.933594 C 548.527344 368.679688 542.550781 375.367188 542.550781 375.761719 C 542.550781 376.476562 546.597656 375.023438 575.171875 364.054688 C 595.023438 356.441406 613.105469 350.914062 617.8125 351.074219 C 621.75 351.179688 621.722656 351.285156 616.59375 353.480469 C 613.6875 354.722656 594.3125 362.996094 573.53125 371.851562 C 551.25 381.339844 537 388.160156 538.769531 388.476562 C 551.566406 390.832031 592.089844 406.613281 588.574219 407.855469 C 587.703125 408.171875 574.113281 405 558.359375 400.824219 C 542.605469 396.648438 528.277344 393.238281 526.480469 393.238281 C 522.039062 393.238281 491.980469 406.796875 475.433594 416.261719 L 461.820312 424.058594 L 475.382812 426.015625 C 498.695312 429.371094 534.332031 439.761719 531.6875 442.40625 C 531.265625 442.828125 521.140625 441.453125 509.191406 439.363281 C 497.214844 437.277344 479.265625 434.605469 469.300781 433.445312 L 451.167969 431.328125 L 437.078125 441.980469 C 420.898438 454.222656 402.050781 471.5625 392.667969 482.875 L 386.191406 490.675781 L 391.476562 487.183594 C 394.386719 485.28125 400.96875 481.660156 406.121094 479.175781 Z M 408.261719 303.359375 C 429.859375 274.09375 440.089844 252.867188 444.980469 227.121094 C 451.855469 190.878906 444.054688 158.3125 421.03125 127.332031 C 401.179688 100.578125 384.84375 88.128906 337.816406 63.859375 C 304.164062 46.492188 296.839844 41.574219 283.121094 27.117188 L 272.257812 15.671875 L 265.9375 35.601562 C 250.105469 85.617188 243.839844 119.453125 245.371094 146.8125 C 246.402344 165.449219 248.996094 175.125 257.136719 190.773438 C 268.714844 213.003906 284.574219 230.820312 318.148438 259.292969 C 343.15625 280.492188 360.097656 296.960938 369.296875 309.070312 C 375.960938 317.820312 377.175781 318.824219 377.625 315.914062 C 378.15625 312.453125 375.429688 283.347656 373.84375 275.3125 C 372.867188 270.367188 351.535156 251.125 332.765625 238.222656 C 326.816406 234.152344 321.980469 230.214844 321.953125 229.472656 C 321.953125 228.734375 324.308594 228.523438 327.1875 228.996094 C 333.425781 230.003906 349.527344 240.417969 361.554688 251.257812 L 370.199219 259.027344 L 367.820312 250.964844 C 364.171875 238.648438 360.046875 228.734375 354.230469 218.292969 C 349.921875 210.546875 345.003906 205.417969 327.71875 190.589844 C 304.535156 170.710938 290.285156 159.765625 285.660156 158.285156 C 281.429688 156.9375 281.90625 153.023438 286.292969 153.023438 C 291.132812 153.023438 306.726562 163.625 319.707031 175.707031 C 335.515625 190.457031 336.917969 191.300781 332 183.238281 C 319.8125 163.175781 303.898438 122.414062 303.847656 111.097656 C 303.820312 103.828125 306.570312 105.125 310.269531 114.113281 C 316.90625 130.265625 331.523438 158.628906 339.535156 170.921875 C 344.078125 177.898438 347.964844 183.34375 348.203125 183.054688 C 348.414062 182.765625 348.019531 172.640625 347.304688 160.585938 C 345.851562 136.34375 346.804688 120.855469 349.894531 118.289062 C 351.007812 117.363281 352.273438 117.179688 352.671875 117.839844 C 353.09375 118.527344 353.941406 136.054688 354.546875 156.804688 L 355.660156 194.527344 L 361.289062 202.855469 C 369.511719 215.015625 374.347656 225.296875 378.472656 239.441406 C 380.480469 246.339844 382.464844 250.9375 382.914062 249.695312 C 383.335938 248.453125 385.398438 236.902344 387.460938 224 C 389.519531 211.128906 391.953125 198.703125 392.824219 196.429688 C 394.464844 192.121094 398.164062 190.851562 399.40625 194.15625 C 400.730469 197.621094 397.582031 215.4375 391.265625 240.445312 L 385 265.214844 L 388.171875 282 C 389.917969 291.226562 391.769531 302.195312 392.242188 306.347656 C 393.59375 317.84375 394.515625 321.28125 395.890625 319.773438 C 396.578125 319.035156 402.15625 311.632812 408.289062 303.304688 Z M 408.261719 303.359375 " fill-opacity="1" fill-rule="nonzero"/></svg>