<svg xmlns="http://www.w3.org/2000/svg" xmlns:xlink="http://www.w3.org/1999/xlink" width="1080" zoomAndPan="magnify" viewBox="0 0 810 809.999993" height="1080" preserveAspectRatio="xMidYMid meet" version="1.0"><defs><clipPath id="a1b432fbc0"><path d="M 33.632812 0 L 776.132812 0 L 776.132812 810 L 33.632812 810 Z M 33.632812 0 " clip-rule="nonzero"/></clipPath></defs><g clip-path="url(#a1b432fbc0)"><path fill="current" d="M 1241.113281 904.609375 C 1209.28125 908.109375 1177.097656 910.558594 1145.265625 912.304688 C 1129.175781 913.003906 1113.082031 913.703125 1097.34375 914.054688 C 1081.25 914.40625 1065.160156 914.054688 1049.417969 913.003906 C 1041.371094 912.304688 1033.328125 911.605469 1025.632812 910.207031 C 1017.9375 908.808594 1009.890625 906.707031 1003.242188 902.511719 C 996.246094 898.3125 989.601562 894.117188 983.652344 888.867188 C 977.359375 883.972656 971.761719 878.023438 966.164062 872.425781 C 960.566406 866.832031 954.96875 860.882812 949.371094 855.285156 C 943.777344 849.691406 937.828125 844.09375 931.882812 838.84375 C 925.933594 833.597656 919.988281 828 913.691406 822.753906 C 907.746094 817.507812 901.449219 812.261719 895.152344 807.363281 C 871.714844 795.121094 848.277344 782.527344 825.191406 769.582031 C 813.644531 762.9375 802.101562 756.640625 791.609375 748.945312 C 781.113281 740.898438 772.367188 730.753906 761.875 722.707031 C 756.628906 718.511719 750.679688 714.664062 744.035156 712.914062 C 740.535156 712.214844 737.039062 711.863281 733.890625 712.214844 C 730.742188 712.214844 727.242188 712.214844 724.09375 712.214844 C 711.152344 711.515625 697.859375 709.066406 686.664062 702.769531 C 681.066406 699.621094 675.820312 695.421875 672.324219 690.527344 C 668.476562 685.277344 666.375 679.683594 664.277344 673.035156 C 659.378906 660.441406 653.433594 648.546875 647.136719 637.003906 C 640.488281 625.460938 633.144531 614.265625 625.097656 603.773438 C 620.902344 598.527344 616.703125 593.277344 611.105469 589.082031 C 608.308594 586.980469 605.507812 584.882812 601.660156 583.832031 C 600.261719 583.484375 598.511719 583.132812 597.113281 582.785156 C 595.714844 582.433594 594.316406 581.734375 592.914062 581.035156 C 581.371094 575.4375 571.226562 567.042969 562.480469 557.25 C 554.085938 547.453125 547.089844 535.910156 545.691406 523.316406 C 545.339844 517.371094 546.390625 510.722656 547.789062 504.078125 C 549.191406 497.78125 550.238281 491.132812 551.988281 484.835938 C 554.785156 471.894531 557.933594 458.953125 560.382812 446.007812 C 563.183594 433.066406 565.628906 419.773438 567.03125 406.480469 C 567.730469 399.832031 568.078125 393.1875 567.378906 386.191406 C 567.03125 382.691406 566.332031 379.195312 564.230469 375.695312 C 563.882812 374.648438 563.183594 373.949219 562.832031 373.246094 C 562.480469 372.546875 561.78125 371.847656 561.433594 371.148438 C 560.382812 369.75 558.984375 368.351562 557.933594 367.300781 C 553.039062 362.402344 547.089844 358.207031 540.445312 355.757812 C 537.296875 354.359375 533.449219 353.660156 529.949219 353.308594 C 526.453125 352.957031 522.953125 352.957031 519.457031 353.660156 C 517.707031 354.007812 515.957031 354.359375 514.207031 354.707031 C 512.460938 355.40625 510.710938 355.757812 509.3125 356.457031 L 500.214844 359.953125 C 493.917969 362.402344 487.972656 364.851562 481.675781 367.652344 C 469.433594 372.898438 457.1875 378.84375 445.644531 385.492188 C 434.101562 392.488281 422.90625 400.183594 414.164062 411.027344 C 413.113281 412.425781 412.0625 413.824219 411.015625 415.226562 C 409.964844 416.625 409.265625 418.375 408.214844 419.773438 L 403.667969 428.519531 C 400.519531 434.464844 397.722656 440.761719 395.273438 447.058594 C 390.375 459.652344 387.226562 473.292969 386.179688 486.585938 C 385.128906 500.230469 385.828125 513.523438 387.226562 526.816406 C 388.976562 540.109375 392.125 553.050781 395.273438 565.992188 C 398.421875 578.9375 401.917969 591.53125 404.367188 604.472656 C 406.816406 617.414062 409.265625 630.359375 408.214844 642.953125 C 407.867188 649.25 406.117188 655.195312 403.320312 660.441406 C 399.820312 666.039062 396.324219 671.636719 392.824219 677.234375 C 385.476562 688.078125 377.78125 698.570312 368.335938 706.96875 C 363.441406 711.164062 358.191406 714.664062 352.597656 716.761719 C 351.195312 717.460938 349.796875 717.8125 348.398438 718.160156 C 347 718.511719 345.25 718.859375 343.851562 718.859375 C 340.351562 719.210938 336.855469 720.261719 333.707031 720.960938 C 320.761719 724.109375 308.171875 727.957031 295.226562 731.105469 C 269.691406 737.75 243.804688 743.347656 217.570312 745.445312 C 204.625 746.496094 191.332031 746.84375 178.390625 745.445312 C 165.449219 744.046875 152.855469 741.25 141.3125 735.652344 C 135.714844 732.851562 130.464844 729.355469 125.917969 725.15625 C 123.820312 723.058594 121.023438 720.609375 119.273438 718.160156 C 117.171875 715.710938 115.074219 713.265625 113.324219 710.816406 C 109.476562 705.566406 106.679688 699.972656 104.582031 694.375 C 102.480469 688.425781 102.132812 682.128906 102.832031 676.183594 C 104.230469 663.941406 110.527344 652.398438 117.875 641.550781 C 121.722656 636.304688 125.570312 631.058594 129.417969 625.460938 C 131.515625 622.664062 133.265625 619.863281 135.015625 616.714844 C 135.714844 615.316406 136.761719 613.566406 137.460938 611.820312 L 139.5625 607.269531 C 140.960938 604.121094 142.011719 600.972656 142.710938 597.476562 C 143.058594 596.425781 143.058594 595.726562 143.410156 594.679688 L 143.757812 591.878906 C 143.757812 590.832031 143.757812 589.78125 143.757812 588.730469 C 143.410156 587.683594 143.410156 586.28125 142.710938 585.234375 C 141.660156 582.785156 139.5625 581.386719 137.460938 580.335938 C 135.363281 579.285156 133.613281 578.9375 131.867188 578.9375 C 128.019531 578.585938 124.871094 578.585938 121.371094 578.585938 C 114.726562 578.9375 107.730469 579.285156 100.734375 581.035156 C 97.234375 582.085938 93.738281 583.132812 90.589844 585.582031 C 87.441406 587.683594 84.292969 590.832031 82.890625 594.679688 C 81.144531 598.527344 81.492188 603.074219 82.890625 606.570312 C 83.242188 607.621094 83.59375 608.320312 83.941406 609.371094 C 84.292969 610.070312 84.992188 611.46875 85.339844 612.167969 C 85.691406 612.867188 87.089844 614.265625 87.789062 614.617188 C 88.488281 615.316406 89.539062 615.667969 90.238281 616.367188 C 97.234375 619.863281 103.882812 620.914062 110.878906 621.261719 C 117.875 621.613281 124.519531 621.261719 131.515625 620.214844 C 135.015625 619.515625 138.511719 618.816406 141.660156 617.414062 C 145.160156 616.015625 148.65625 614.265625 151.453125 611.121094 C 152.15625 610.417969 152.855469 609.371094 153.203125 608.320312 C 153.554688 607.269531 153.902344 606.570312 154.253906 605.871094 C 154.953125 604.472656 155.304688 602.375 156.003906 600.625 C 157.050781 597.125 157.75 593.980469 158.101562 590.480469 C 159.152344 583.835938 159.5 576.839844 158.453125 569.839844 C 158.101562 566.34375 157.050781 562.84375 155.652344 559.347656 C 154.253906 555.847656 151.804688 552.351562 147.957031 550.253906 C 146.90625 549.550781 146.207031 549.203125 145.507812 548.851562 C 144.808594 548.503906 143.757812 548.152344 143.410156 547.804688 L 141.660156 546.753906 L 139.5625 545.355469 C 136.761719 543.605469 134.3125 541.507812 131.515625 539.757812 C 125.917969 535.910156 120.320312 532.0625 113.675781 529.265625 C 107.027344 526.464844 100.03125 525.066406 93.035156 525.066406 C 91.289062 525.066406 89.539062 525.066406 87.789062 525.414062 L 85.339844 525.765625 C 83.941406 525.765625 83.589844 526.117188 82.542969 526.117188 C 79.042969 526.816406 74.496094 528.214844 71.699219 532.0625 C 70.300781 533.8125 69.597656 536.261719 69.597656 538.359375 C 69.25 540.457031 69.949219 542.554688 70.300781 544.304688 C 71.347656 548.152344 73.097656 551.300781 74.847656 554.101562 C 78.695312 560.046875 83.589844 565.292969 88.488281 569.84375 C 90.9375 571.941406 93.734375 574.390625 96.882812 576.136719 C 100.03125 577.886719 103.179688 579.636719 106.679688 580.6875 C 119.273438 583.835938 131.515625 588.730469 145.160156 591.53125 C 148.65625 592.230469 151.804688 592.929688 155.652344 592.929688 C 159.152344 592.929688 163.347656 592.929688 167.195312 590.480469 C 169.296875 589.429688 170.695312 586.980469 171.742188 584.882812 C 172.445312 582.785156 172.792969 580.6875 172.445312 578.585938 C 172.445312 577.539062 172.445312 576.839844 172.09375 575.4375 C 171.742188 574.738281 171.742188 574.039062 171.394531 572.988281 C 171.042969 571.941406 170.695312 570.890625 170.34375 570.191406 L 168.945312 567.742188 C 165.097656 561.445312 160.550781 556.546875 155.652344 551.652344 C 150.753906 547.105469 145.507812 542.554688 140.261719 538.707031 C 118.921875 522.617188 95.835938 508.625 71.699219 497.082031 C 65.75 494.28125 59.453125 491.484375 52.808594 489.386719 L 50.710938 488.6875 C 50.011719 488.335938 49.660156 487.984375 48.960938 487.984375 C 48.261719 487.636719 47.910156 487.285156 47.210938 486.9375 C 46.863281 486.585938 46.160156 486.238281 45.8125 485.539062 C 44.414062 483.789062 43.714844 481.339844 44.0625 478.890625 C 44.414062 473.292969 47.5625 467.347656 50.710938 462.101562 C 54.207031 456.851562 58.054688 451.605469 62.253906 446.707031 C 66.449219 441.8125 71 436.914062 75.546875 432.367188 C 77.996094 429.917969 80.09375 427.820312 82.542969 425.71875 L 89.886719 418.722656 C 99.683594 409.277344 108.078125 398.785156 115.425781 387.242188 C 122.769531 376.046875 129.066406 363.804688 133.613281 350.859375 C 134.664062 347.710938 135.714844 344.214844 136.414062 341.066406 L 137.113281 338.617188 C 137.460938 336.867188 137.460938 336.867188 137.460938 335.820312 C 137.460938 335.117188 137.460938 333.371094 137.113281 332.320312 C 136.761719 331.269531 136.414062 330.222656 136.0625 329.171875 C 133.964844 325.324219 130.816406 322.875 128.019531 320.777344 C 126.617188 319.726562 125.570312 318.679688 124.871094 317.976562 C 124.167969 316.929688 124.167969 316.929688 124.167969 316.230469 C 124.167969 315.878906 124.167969 315.53125 124.519531 314.828125 C 124.519531 314.480469 125.21875 313.78125 125.570312 313.429688 C 125.917969 312.730469 126.269531 312.382812 126.96875 312.03125 L 128.71875 310.28125 C 129.765625 309.234375 130.816406 308.535156 132.214844 307.484375 C 133.613281 306.785156 134.664062 305.734375 136.0625 305.035156 C 141.308594 301.886719 147.605469 299.789062 153.554688 298.039062 C 165.796875 295.242188 178.738281 295.589844 190.632812 300.136719 L 194.832031 301.886719 C 196.230469 302.585938 197.628906 303.285156 199.027344 303.984375 C 201.828125 305.386719 204.277344 307.484375 206.726562 309.234375 C 211.972656 313.082031 216.871094 317.628906 222.117188 321.476562 C 227.363281 325.675781 232.261719 329.871094 237.160156 334.070312 C 242.054688 338.265625 246.953125 342.816406 250.101562 347.710938 C 251.851562 350.160156 252.550781 352.609375 252.898438 355.40625 C 252.898438 355.757812 252.898438 357.15625 252.898438 356.457031 C 253.601562 354.707031 255.699219 355.058594 255 355.058594 C 254.300781 354.707031 252.898438 354.007812 251.5 353.308594 C 246.253906 349.8125 241.007812 345.613281 235.757812 341.414062 C 224.914062 333.71875 213.722656 325.675781 199.730469 321.828125 C 193.082031 320.078125 185.035156 319.378906 178.039062 322.175781 C 176.292969 322.875 174.542969 323.925781 173.144531 324.625 L 168.945312 327.074219 C 166.148438 328.824219 163 330.570312 160.199219 332.320312 C 157.402344 334.417969 154.601562 336.167969 151.804688 339.316406 C 151.105469 340.015625 150.40625 341.066406 150.054688 342.117188 C 149.355469 343.164062 149.007812 344.914062 149.355469 347.011719 C 150.054688 349.113281 151.453125 350.160156 152.15625 350.859375 C 152.855469 351.558594 154.601562 352.257812 153.902344 351.910156 L 158.800781 359.257812 C 160.550781 362.054688 162.648438 364.851562 164.746094 367.652344 C 168.945312 372.898438 174.542969 378.144531 181.539062 380.945312 C 183.289062 381.644531 185.386719 381.992188 187.136719 382.34375 L 189.933594 382.34375 C 190.984375 382.34375 192.03125 382.34375 192.730469 381.992188 C 196.929688 381.292969 199.378906 380.246094 202.527344 379.546875 C 208.824219 378.144531 215.121094 377.445312 221.765625 377.097656 C 224.914062 376.746094 228.414062 376.746094 231.910156 376.398438 C 232.960938 376.046875 234.011719 376.046875 235.410156 375.347656 C 238.207031 374.296875 237.859375 368.351562 236.808594 368.351562 C 235.757812 366.953125 235.757812 366.953125 234.710938 365.902344 C 234.011719 365.203125 233.308594 364.503906 232.609375 363.804688 C 227.363281 359.257812 221.765625 355.40625 216.167969 351.910156 C 210.222656 348.410156 204.277344 345.261719 197.628906 342.816406 C 194.132812 341.765625 190.632812 340.714844 186.4375 341.066406 C 185.386719 341.066406 185.035156 341.066406 183.636719 341.414062 C 182.585938 341.765625 181.539062 341.765625 180.488281 342.117188 C 178.738281 342.816406 176.640625 343.515625 175.242188 344.914062 C 172.09375 347.363281 169.644531 350.859375 168.59375 355.058594 C 168.246094 357.15625 168.246094 359.605469 168.945312 361.703125 C 169.644531 363.804688 171.042969 365.902344 172.792969 367.652344 C 173.84375 368.699219 175.589844 369.75 177.339844 370.800781 C 178.738281 371.847656 180.488281 372.546875 182.238281 373.25 C 185.734375 374.648438 189.234375 375.695312 193.433594 375.347656 C 195.53125 375.347656 197.980469 374.296875 199.730469 372.898438 C 200.777344 372.199219 201.476562 371.148438 202.175781 370.449219 C 202.527344 369.75 203.226562 368.699219 203.578125 368 C 205.324219 364.851562 207.074219 361.703125 208.472656 358.554688 C 209.871094 355.40625 210.921875 351.910156 211.621094 348.410156 C 211.972656 346.664062 211.972656 344.5625 211.972656 342.464844 C 211.621094 340.367188 210.921875 337.917969 209.171875 335.820312 C 207.425781 333.71875 204.625 333.019531 202.527344 332.671875 C 201.476562 332.671875 200.429688 332.671875 199.730469 332.671875 C 199.027344 332.671875 197.980469 332.671875 197.28125 332.671875 C 193.78125 332.671875 190.285156 333.019531 186.785156 333.371094 C 183.289062 334.070312 179.789062 334.769531 176.292969 336.519531 C 172.792969 338.265625 169.644531 340.714844 167.195312 344.214844 C 165.445312 347.363281 164.046875 350.160156 162.648438 353.308594 L 158.449219 362.40625 C 152.855469 374.648438 147.605469 386.890625 143.058594 399.484375 C 138.511719 412.078125 134.664062 425.019531 132.214844 438.3125 C 130.816406 444.960938 130.117188 451.605469 130.117188 458.601562 C 130.117188 465.597656 130.464844 472.59375 133.265625 479.589844 C 134.664062 483.089844 136.761719 486.238281 138.511719 489.035156 C 140.261719 491.835938 141.660156 494.28125 142.710938 497.082031 C 143.757812 499.878906 143.757812 502.679688 143.410156 504.777344 C 143.058594 505.828125 142.359375 506.875 141.660156 507.574219 C 140.960938 508.273438 139.910156 509.324219 138.863281 509.675781 C 133.964844 512.125 127.667969 512.125 122.070312 510.722656 C 119.273438 510.023438 116.824219 508.625 115.425781 506.875 C 115.074219 506.175781 114.375 505.476562 114.023438 504.777344 C 113.675781 504.078125 113.324219 503.726562 112.976562 503.027344 C 112.277344 501.628906 111.925781 500.578125 111.226562 498.832031 C 110.875 497.429688 110.527344 495.683594 109.828125 493.933594 C 109.128906 492.183594 108.078125 490.085938 106.328125 488.335938 C 102.832031 485.1875 98.984375 484.136719 95.484375 483.789062 C 93.734375 483.4375 91.988281 483.4375 90.238281 483.089844 L 85.339844 482.738281 C 81.84375 482.738281 78.695312 482.390625 75.195312 482.390625 C 71.699219 482.390625 68.550781 482.390625 64.351562 483.4375 C 63.304688 483.789062 62.253906 483.789062 60.855469 484.839844 C 59.105469 485.1875 57.707031 490.085938 59.453125 491.484375 C 60.503906 492.882812 61.203125 493.582031 62.253906 494.28125 C 63.300781 494.984375 63.652344 495.332031 64.703125 496.03125 C 65.402344 496.382812 66.101562 496.730469 67.152344 497.082031 L 69.25 500.230469 C 71 500.929688 72.398438 501.277344 74.148438 501.976562 C 77.296875 503.027344 80.792969 503.726562 83.941406 504.425781 C 90.589844 505.824219 97.234375 507.226562 103.878906 507.925781 C 107.378906 508.273438 110.527344 508.625 114.023438 508.972656 C 115.074219 508.972656 115.773438 508.972656 116.824219 508.972656 C 117.875 508.972656 118.921875 508.972656 120.671875 508.273438 C 122.070312 507.574219 122.769531 506.875 123.820312 506.175781 C 124.519531 505.476562 125.21875 504.777344 125.917969 504.078125 C 130.816406 498.828125 134.664062 493.582031 138.511719 488.335938 C 142.710938 483.089844 146.558594 478.191406 151.105469 473.644531 C 155.652344 469.097656 160.550781 465.246094 166.148438 462.449219 C 166.847656 462.101562 167.546875 461.75 168.246094 461.398438 C 168.945312 461.050781 169.996094 460.699219 170.695312 460.351562 C 171.394531 460 172.09375 459.652344 173.144531 458.953125 C 174.191406 458.25 174.890625 457.902344 175.59375 457.203125 C 178.390625 455.101562 180.839844 452.304688 183.289062 449.855469 C 192.382812 439.363281 199.378906 428.167969 207.425781 418.023438 C 215.46875 407.878906 224.566406 398.433594 235.757812 392.835938 C 241.355469 390.039062 247.304688 388.289062 253.25 388.289062 C 259.546875 387.941406 265.492188 389.339844 271.441406 391.4375 C 284.035156 395.636719 296.625 399.832031 309.570312 403.332031 C 315.867188 405.082031 322.164062 407.179688 328.460938 409.277344 C 331.609375 410.328125 334.40625 411.726562 336.855469 413.125 C 337.902344 413.824219 338.953125 414.875 339.652344 415.574219 C 340.351562 416.273438 340.351562 416.972656 340.351562 418.023438 C 340.351562 419.074219 340.003906 420.121094 339.304688 421.523438 C 338.953125 422.222656 338.605469 422.921875 338.253906 423.269531 L 337.203125 425.371094 L 336.15625 427.46875 L 335.105469 429.917969 C 334.40625 431.667969 333.707031 433.066406 333.007812 434.8125 C 330.558594 441.460938 329.160156 447.757812 327.058594 453.703125 C 324.960938 459.652344 322.164062 465.246094 318.316406 470.144531 C 314.46875 475.042969 309.570312 479.242188 304.671875 483.089844 C 294.179688 491.484375 284.035156 499.878906 273.1875 506.875 C 262.34375 513.871094 250.800781 519.816406 238.207031 523.316406 C 231.910156 525.066406 225.613281 526.464844 219.320312 527.164062 C 215.820312 527.863281 212.671875 528.214844 209.175781 528.914062 L 203.925781 530.3125 L 199.03125 532.0625 C 192.382812 534.511719 186.085938 538.007812 181.1875 543.253906 C 175.941406 548.503906 172.445312 555.5 171.746094 562.84375 C 171.394531 566.691406 171.394531 570.191406 172.445312 574.039062 C 173.492188 577.539062 174.894531 581.035156 176.292969 583.832031 C 179.089844 589.78125 181.1875 595.378906 181.1875 601.675781 C 181.539062 607.621094 180.488281 613.917969 178.390625 619.863281 C 176.292969 625.8125 173.492188 632.109375 171.042969 638.054688 C 168.597656 644 165.796875 649.949219 162.648438 655.894531 C 159.5 661.492188 156.003906 667.089844 151.804688 671.285156 C 149.707031 673.386719 147.257812 675.132812 144.808594 676.183594 C 142.359375 677.234375 139.5625 677.582031 137.113281 676.882812 C 135.714844 676.535156 134.316406 676.183594 133.265625 675.484375 L 128.71875 673.386719 C 127.320312 672.6875 125.570312 671.984375 123.820312 671.285156 C 122.070312 670.585938 120.320312 670.238281 118.574219 669.886719 C 115.074219 669.1875 110.878906 669.1875 107.03125 670.238281 C 105.980469 670.585938 104.929688 670.9375 104.230469 671.636719 C 103.183594 672.335938 102.480469 673.035156 101.433594 673.734375 C 100.734375 674.785156 100.035156 675.484375 99.332031 676.535156 C 98.984375 677.582031 98.285156 678.632812 97.933594 679.683594 C 96.886719 684.230469 97.933594 688.425781 99.683594 691.574219 C 100.382812 693.324219 101.433594 694.722656 102.480469 696.472656 C 102.832031 697.171875 103.53125 697.871094 104.230469 698.570312 L 105.628906 700.320312 C 109.476562 704.519531 110.179688 710.816406 112.625 717.460938 C 113.675781 720.960938 115.425781 724.109375 117.523438 727.257812 C 119.972656 730.402344 122.769531 732.851562 125.917969 734.601562 C 132.214844 738.101562 139.210938 739.847656 145.859375 740.898438 C 152.503906 741.949219 159.5 742.296875 166.148438 742.296875 C 179.789062 742.648438 193.082031 741.597656 206.375 740.199219 C 232.960938 737.402344 259.195312 733.550781 285.433594 727.957031 C 311.667969 722.359375 337.554688 714.664062 361.691406 702.769531 C 373.585938 696.824219 385.480469 689.476562 395.625 680.382812 C 405.769531 671.285156 414.511719 660.09375 419.410156 647.148438 C 424.65625 634.207031 426.40625 620.214844 425.007812 606.570312 C 424.65625 603.074219 424.308594 599.925781 423.609375 596.425781 L 422.910156 591.53125 C 422.558594 589.78125 422.207031 588.382812 422.207031 586.632812 C 421.160156 580.335938 420.808594 573.6875 420.109375 567.042969 C 418.359375 540.808594 418.011719 514.222656 420.109375 487.984375 C 421.160156 475.042969 422.558594 461.75 425.355469 449.15625 C 426.757812 442.859375 428.15625 436.5625 430.253906 430.265625 C 432.003906 423.96875 434.453125 418.023438 437.601562 412.425781 C 440.75 406.828125 444.246094 401.933594 449.144531 398.433594 C 453.691406 395.285156 460.339844 393.1875 466.632812 390.386719 C 472.929688 387.589844 478.878906 384.792969 484.824219 381.644531 C 490.769531 378.496094 496.367188 375.347656 502.316406 372.898438 C 505.113281 371.847656 507.914062 371.148438 510.710938 370.800781 C 513.507812 370.800781 516.65625 371.148438 519.457031 371.847656 C 520.855469 372.199219 522.253906 372.898438 524.003906 373.246094 C 524.703125 373.597656 525.402344 373.597656 526.101562 373.945312 L 528.550781 374.996094 C 531.699219 376.394531 533.796875 377.796875 536.597656 379.542969 C 541.492188 383.042969 545.691406 387.589844 548.140625 393.1875 C 550.589844 398.433594 551.636719 404.730469 551.289062 411.027344 C 551.289062 414.175781 550.589844 417.324219 550.238281 420.472656 L 548.140625 429.917969 C 546.742188 436.914062 546.042969 443.558594 545.34375 449.855469 C 544.640625 456.152344 543.242188 462.097656 540.09375 467.347656 C 538.695312 470.144531 536.945312 472.59375 534.847656 475.042969 C 533.796875 476.441406 532.75 477.492188 531.699219 478.539062 L 528.199219 482.386719 C 526.101562 484.835938 523.652344 487.636719 521.90625 490.433594 C 519.804688 493.234375 518.054688 496.382812 516.65625 499.179688 C 513.507812 505.125 510.710938 511.074219 506.511719 515.269531 C 502.316406 519.46875 496.71875 521.917969 490.769531 523.667969 C 484.824219 525.414062 478.179688 526.113281 471.53125 527.515625 C 464.886719 528.914062 458.589844 530.664062 451.941406 532.0625 C 448.792969 532.761719 445.644531 533.460938 442.847656 533.8125 C 441.449219 533.8125 440.398438 533.8125 439.347656 533.460938 C 438.648438 533.109375 437.949219 532.761719 437.601562 531.710938 C 436.550781 529.613281 435.851562 526.8125 435.152344 523.316406 L 433.050781 513.523438 C 432.351562 510.375 432.003906 507.226562 431.652344 504.078125 C 431.652344 501.277344 432.003906 498.480469 433.050781 496.382812 C 434.101562 494.632812 436.199219 493.234375 439 492.53125 C 440.398438 492.183594 441.796875 491.832031 443.195312 491.832031 L 445.296875 491.832031 C 445.996094 491.832031 446.34375 491.832031 447.394531 491.832031 C 449.144531 491.832031 450.894531 491.832031 452.292969 492.183594 C 453.691406 492.53125 455.089844 492.53125 456.839844 493.234375 C 459.988281 493.933594 462.785156 494.980469 465.933594 496.03125 C 469.082031 497.082031 472.230469 498.480469 475.730469 499.179688 C 479.226562 500.230469 483.074219 500.929688 486.921875 500.230469 C 491.121094 499.878906 494.621094 497.429688 497.769531 494.980469 C 499.167969 493.582031 500.214844 492.183594 501.617188 490.785156 L 504.414062 486.238281 C 505.464844 484.835938 505.8125 483.089844 506.863281 481.6875 L 508.960938 477.140625 C 509.660156 475.742188 510.359375 473.992188 511.058594 472.59375 L 513.160156 468.394531 C 516.308594 462.800781 519.804688 457.203125 523.652344 451.953125 C 527.152344 446.359375 531 441.109375 534.496094 434.8125 C 535.199219 433.066406 536.246094 431.664062 536.597656 429.917969 C 537.296875 428.167969 537.996094 426.417969 538.347656 424.667969 L 539.046875 421.871094 L 539.046875 419.074219 C 539.394531 416.972656 538.695312 415.226562 538.347656 413.125 C 537.996094 411.027344 536.945312 409.628906 536.246094 407.527344 C 535.546875 405.78125 534.148438 404.378906 533.097656 402.632812 C 530.648438 399.832031 528.203125 397.382812 525.753906 394.9375 C 523.304688 392.835938 521.203125 390.386719 518.40625 387.941406 C 517.007812 386.890625 515.257812 385.492188 513.160156 384.792969 C 511.058594 383.742188 508.960938 383.742188 506.863281 383.742188 C 502.664062 384.09375 499.515625 385.839844 496.019531 387.238281 C 492.871094 388.640625 490.070312 390.386719 486.921875 392.136719 C 480.976562 395.636719 475.378906 399.484375 470.132812 404.03125 C 467.683594 406.128906 464.886719 408.578125 462.785156 411.726562 C 460.6875 414.523438 458.589844 417.671875 457.539062 421.871094 C 457.191406 423.96875 457.191406 426.417969 457.890625 428.519531 C 458.589844 430.617188 459.636719 432.714844 461.039062 434.113281 C 463.835938 437.261719 466.984375 439.011719 470.480469 440.761719 C 476.777344 443.558594 483.425781 445.660156 490.070312 447.058594 C 493.570312 447.757812 497.066406 448.105469 500.566406 448.105469 C 504.0625 448.105469 508.261719 447.40625 512.109375 444.957031 C 513.859375 443.558594 515.609375 441.808594 516.308594 439.363281 C 517.007812 436.914062 517.007812 434.8125 516.65625 432.714844 C 515.957031 428.519531 514.207031 425.371094 512.460938 422.222656 C 511.410156 420.820312 510.710938 419.421875 510.011719 418.023438 C 508.960938 416.625 507.914062 414.875 506.863281 413.476562 C 504.765625 410.675781 501.964844 407.878906 498.117188 406.128906 C 496.019531 405.429688 493.917969 404.730469 491.472656 405.082031 C 489.023438 405.082031 487.273438 406.128906 485.175781 407.179688 C 481.675781 409.277344 479.226562 412.078125 477.128906 414.523438 C 475.03125 416.972656 472.929688 419.773438 470.832031 421.871094 C 468.734375 424.320312 466.285156 426.769531 464.1875 429.917969 C 460.339844 435.863281 457.191406 441.808594 454.042969 447.757812 C 453.34375 448.808594 452.640625 450.554688 451.59375 451.953125 C 450.894531 453.355469 449.84375 454.402344 449.144531 455.804688 C 447.394531 458.25 445.296875 460.699219 442.847656 463.148438 C 441.796875 464.199219 440.398438 465.597656 439.347656 466.996094 C 438.648438 468.046875 437.949219 468.746094 437.601562 470.144531 C 437.25 471.542969 436.902344 473.292969 437.25 474.691406 C 437.949219 477.492188 439.347656 478.890625 440.75 480.289062 C 442.148438 481.6875 443.199219 482.738281 444.246094 484.136719 C 445.644531 485.1875 446.695312 486.585938 448.445312 487.984375 C 450.195312 489.386719 452.992188 490.085938 455.089844 490.085938 C 459.289062 489.734375 462.4375 488.683594 465.585938 487.984375 C 468.734375 486.9375 471.882812 486.238281 475.378906 485.1875 C 478.527344 484.136719 482.027344 482.738281 485.175781 481.339844 C 488.324219 479.589844 491.472656 477.839844 494.269531 475.742188 C 497.066406 473.644531 500.214844 471.195312 501.964844 466.648438 C 502.316406 465.597656 502.664062 464.199219 502.664062 462.800781 C 502.316406 461.398438 502.316406 460 501.265625 458.953125 C 500.566406 457.550781 499.867188 456.851562 498.816406 456.152344 C 497.769531 455.453125 497.417969 455.101562 496.71875 454.402344 C 494.269531 452.65625 491.820312 450.554688 489.371094 448.105469 C 484.476562 443.910156 479.226562 439.011719 472.929688 435.863281 C 469.78125 434.113281 465.933594 432.714844 461.738281 433.066406 C 460.6875 433.066406 459.636719 433.414062 458.589844 433.414062 C 457.539062 433.765625 456.488281 434.113281 455.441406 434.464844 C 454.390625 434.8125 453.691406 435.515625 452.640625 436.214844 C 451.941406 436.5625 450.894531 437.613281 450.195312 438.3125 L 448.445312 440.0625 L 446.695312 442.511719 C 445.296875 444.257812 444.597656 445.660156 443.898438 447.058594 C 442.148438 450.207031 440.75 453.355469 439.347656 456.503906 C 436.902344 462.800781 434.800781 469.445312 433.402344 476.09375 C 432.003906 482.738281 430.953125 489.386719 430.605469 496.382812 C 430.605469 498.128906 430.605469 499.878906 430.953125 501.628906 C 430.953125 502.675781 431.304688 503.726562 431.304688 504.425781 C 431.652344 505.476562 431.652344 505.824219 431.652344 506.527344 C 431.652344 507.574219 432.003906 509.324219 432.003906 511.074219 L 432.003906 515.96875 C 432.003906 522.617188 432.003906 529.261719 431.652344 535.910156 C 431.304688 549.203125 430.953125 562.496094 430.953125 575.789062 C 430.953125 589.082031 430.605469 602.375 431.652344 615.667969 C 432.003906 619.164062 432.003906 622.3125 432.703125 625.8125 C 433.054688 629.308594 433.753906 632.457031 435.152344 636.304688 C 435.5 637.355469 435.851562 638.054688 436.550781 639.105469 C 437.601562 640.152344 438.300781 641.203125 439 641.550781 L 442.847656 644.699219 C 445.644531 646.800781 448.445312 648.898438 451.59375 650.648438 C 454.742188 652.394531 458.238281 654.144531 463.136719 653.796875 C 464.1875 653.445312 465.585938 653.445312 466.632812 653.097656 C 467.683594 652.746094 468.734375 652.046875 469.433594 651.347656 C 471.183594 649.949219 472.230469 648.199219 473.632812 646.449219 C 477.128906 639.453125 477.828125 632.457031 479.226562 626.511719 C 480.628906 620.214844 482.375 613.917969 484.476562 607.621094 C 485.523438 604.472656 486.574219 601.324219 487.273438 597.824219 C 487.625 596.078125 487.972656 594.328125 487.972656 591.878906 C 487.972656 590.828125 487.625 589.082031 486.222656 587.332031 C 484.824219 585.582031 482.726562 585.234375 481.675781 585.234375 C 478.878906 585.234375 477.128906 585.933594 475.378906 586.28125 C 473.632812 586.980469 471.882812 587.679688 470.484375 588.382812 C 466.984375 589.78125 464.535156 591.179688 461.386719 592.929688 C 455.441406 596.425781 449.84375 600.273438 444.597656 605.171875 C 439.699219 610.070312 435.5 615.667969 432.003906 621.613281 C 430.253906 624.761719 428.855469 627.910156 427.804688 631.058594 C 427.105469 632.808594 426.757812 634.207031 426.058594 635.957031 L 425.355469 638.402344 L 424.65625 640.851562 C 422.558594 646.449219 419.410156 652.394531 416.261719 657.992188 C 413.113281 663.589844 409.617188 669.1875 405.769531 674.433594 C 398.421875 685.277344 390.375 695.773438 381.28125 704.867188 C 379.183594 706.96875 376.734375 709.414062 374.285156 710.816406 C 372.535156 711.863281 369.386719 712.914062 366.589844 713.261719 C 360.640625 713.964844 353.996094 713.261719 347.699219 712.5625 C 344.550781 712.214844 341.050781 711.863281 337.554688 711.515625 C 334.054688 711.164062 330.558594 711.164062 326.710938 711.863281 C 324.960938 712.214844 322.863281 712.914062 320.761719 714.3125 C 319.015625 715.710938 317.265625 717.8125 316.914062 719.910156 C 315.515625 724.109375 316.566406 728.304688 316.566406 731.105469 C 318.316406 744.046875 319.015625 757.691406 323.210938 770.984375 C 325.3125 777.628906 328.460938 784.273438 333.355469 789.523438 C 338.253906 795.121094 345.25 798.617188 352.597656 799.667969 C 353.644531 799.667969 354.34375 800.015625 355.394531 800.015625 L 357.84375 800.367188 L 360.292969 800.714844 L 363.089844 800.714844 C 366.589844 801.066406 370.085938 800.714844 373.933594 800.015625 C 377.78125 799.316406 381.628906 796.519531 384.078125 794.070312 C 386.527344 791.269531 388.625 788.824219 390.726562 786.375 C 394.921875 781.476562 399.820312 777.628906 405.066406 774.128906 C 407.515625 772.382812 410.664062 770.632812 413.464844 768.882812 C 416.261719 767.132812 419.058594 765.734375 421.859375 763.984375 C 444.945312 751.394531 469.082031 739.847656 492.871094 728.65625 C 517.007812 717.460938 540.792969 706.265625 565.628906 696.824219 C 571.578125 694.375 577.875 692.273438 583.820312 690.875 C 589.769531 689.828125 596.414062 690.175781 602.710938 690.527344 C 615.652344 691.226562 628.945312 692.625 642.238281 692.972656 C 648.886719 693.324219 655.53125 693.324219 662.527344 692.972656 C 666.027344 692.625 669.523438 692.273438 673.023438 690.875 C 674.070312 690.527344 674.773438 690.175781 675.820312 689.828125 C 676.871094 689.476562 677.570312 688.777344 678.621094 688.078125 C 680.367188 686.679688 681.769531 684.230469 682.117188 681.78125 C 682.46875 679.332031 681.769531 676.882812 681.066406 675.132812 C 680.367188 673.386719 679.320312 671.636719 678.269531 670.238281 C 676.171875 667.4375 674.421875 664.640625 672.324219 662.191406 C 668.125 656.945312 663.578125 651.695312 659.730469 646.800781 C 657.632812 644.351562 656.230469 641.902344 655.53125 639.453125 C 654.832031 637.355469 655.53125 634.90625 656.929688 632.457031 C 659.730469 627.210938 664.277344 622.3125 668.824219 617.765625 C 671.273438 615.316406 673.371094 612.867188 675.472656 610.417969 C 677.570312 607.621094 679.667969 605.171875 681.769531 602.375 C 683.867188 599.574219 685.617188 596.777344 687.363281 593.976562 C 689.113281 591.179688 690.863281 588.382812 692.613281 585.234375 C 706.253906 562.144531 716.75 537.308594 724.445312 511.773438 C 726.195312 505.476562 727.941406 498.828125 729.34375 492.183594 C 730.742188 485.539062 731.789062 479.589844 733.539062 472.945312 C 737.039062 460.351562 740.535156 447.40625 744.382812 434.816406 C 752.078125 409.277344 759.777344 384.09375 765.722656 357.855469 C 767.121094 351.210938 768.519531 344.5625 769.21875 337.917969 C 769.570312 334.417969 769.921875 330.921875 769.570312 327.421875 C 769.570312 326.375 769.21875 325.671875 769.21875 324.625 C 769.21875 323.574219 768.871094 322.875 768.519531 321.824219 C 767.820312 320.078125 767.121094 318.675781 767.121094 317.277344 C 766.070312 311.679688 765.722656 304.683594 765.722656 298.386719 L 765.722656 278.449219 C 765.722656 265.15625 765.371094 251.515625 763.273438 238.222656 C 761.175781 224.929688 757.328125 211.285156 749.632812 199.742188 C 745.785156 193.796875 740.886719 188.546875 735.289062 184.351562 C 733.890625 183.300781 732.492188 182.25 730.742188 181.550781 L 726.542969 179.101562 C 725.144531 178.402344 724.09375 177.355469 722.695312 176.304688 C 721.644531 175.605469 720.246094 174.207031 719.199219 173.15625 C 714.648438 168.957031 711.851562 163.710938 709.753906 157.765625 C 708.003906 151.816406 707.304688 145.519531 706.953125 139.226562 C 706.605469 132.578125 706.605469 125.933594 706.253906 119.285156 C 705.90625 112.640625 704.503906 105.292969 701.707031 98.648438 C 698.558594 92 693.660156 86.402344 687.714844 82.554688 C 681.769531 78.359375 675.121094 75.910156 668.824219 73.808594 L 659.378906 71.011719 C 656.230469 69.960938 653.082031 69.261719 650.285156 67.863281 C 643.988281 65.765625 638.042969 63.316406 632.09375 60.515625 C 620.203125 54.921875 609.007812 48.273438 597.464844 41.628906 C 586.269531 34.980469 574.726562 27.636719 562.484375 21.6875 C 550.238281 15.742188 536.597656 11.195312 522.605469 11.894531 C 519.105469 12.242188 515.609375 12.59375 512.109375 13.292969 C 510.359375 13.644531 508.613281 13.992188 507.210938 14.691406 L 504.765625 15.390625 C 503.714844 15.742188 503.363281 15.742188 502.664062 16.089844 C 499.515625 17.140625 496.367188 18.191406 493.21875 18.890625 C 490.070312 19.238281 487.273438 19.941406 484.125 20.289062 C 471.53125 21.339844 458.589844 19.589844 445.644531 17.140625 C 432.703125 14.34375 420.109375 10.84375 407.167969 7.695312 C 394.222656 4.546875 380.929688 2.097656 367.636719 0.699219 L 357.492188 0 L 347.347656 0 C 343.851562 0 340.703125 0.351562 337.203125 0.699219 L 332.308594 1.050781 L 327.410156 1.398438 C 320.765625 2.097656 314.46875 2.796875 307.820312 3.148438 L 298.027344 3.5 L 288.230469 3.5 C 274.9375 3.5 261.996094 1.75 248.351562 2.097656 C 234.710938 1.75 220.367188 6.296875 209.175781 13.992188 C 203.578125 17.492188 197.980469 21.339844 192.382812 24.488281 C 186.785156 27.984375 180.839844 31.132812 175.242188 34.28125 C 169.296875 37.429688 163.699219 40.929688 158.101562 44.777344 C 152.503906 48.625 147.257812 53.171875 142.359375 58.417969 C 137.8125 64.015625 134.664062 70.660156 132.914062 77.660156 C 132.566406 81.15625 131.515625 84.65625 131.867188 88.152344 C 131.867188 89.902344 131.867188 91.652344 131.867188 93.398438 L 132.566406 98.648438 L 132.914062 101.09375 C 132.914062 102.144531 133.265625 102.496094 133.265625 103.542969 C 133.617188 105.292969 133.964844 106.691406 133.964844 108.441406 C 134.316406 111.589844 134.664062 114.738281 135.015625 117.886719 C 135.363281 124.183594 135.015625 130.828125 134.664062 137.125 C 134.316406 143.773438 133.265625 150.070312 132.566406 157.066406 C 132.214844 160.5625 132.214844 164.0625 132.914062 167.910156 C 133.265625 170.007812 134.316406 172.105469 136.0625 173.855469 C 137.113281 174.90625 138.164062 175.253906 139.210938 175.953125 C 140.261719 176.304688 141.660156 176.65625 142.359375 176.65625 C 146.558594 177.003906 150.054688 175.953125 153.554688 175.253906 C 157.050781 174.207031 160.199219 173.15625 163.347656 171.757812 C 169.644531 169.308594 175.59375 166.511719 181.890625 164.0625 C 206.027344 153.566406 230.511719 142.722656 255 133.628906 C 267.242188 129.429688 280.1875 125.234375 292.429688 124.183594 C 295.578125 123.832031 298.726562 123.832031 301.523438 124.53125 C 304.324219 124.882812 306.773438 125.933594 307.820312 127.679688 C 308.171875 128.03125 308.171875 128.730469 308.519531 129.082031 C 308.519531 129.78125 308.871094 130.128906 308.871094 130.828125 L 309.917969 135.726562 C 310.269531 137.476562 310.96875 139.226562 311.667969 140.972656 C 312.367188 142.722656 313.066406 144.121094 313.769531 145.871094 C 316.914062 152.167969 320.765625 157.765625 323.914062 163.363281 C 327.058594 168.957031 328.808594 174.554688 328.808594 180.503906 C 328.808594 192.394531 323.914062 205.339844 317.265625 215.832031 C 313.769531 221.082031 309.570312 225.976562 304.671875 229.824219 C 302.222656 231.925781 299.773438 233.671875 296.976562 235.773438 C 294.179688 237.871094 291.378906 239.96875 288.929688 242.769531 C 287.53125 244.167969 286.484375 245.917969 285.78125 248.015625 C 285.082031 250.113281 284.734375 252.214844 285.082031 254.3125 C 285.433594 258.511719 286.484375 262.007812 287.882812 265.15625 C 290.679688 271.804688 294.527344 277.398438 298.375 282.996094 C 302.222656 288.242188 306.070312 293.839844 310.621094 299.089844 C 314.816406 304.335938 319.714844 309.234375 324.613281 313.78125 C 329.507812 318.328125 334.757812 322.527344 338.253906 327.421875 C 341.753906 332.320312 343.5 337.917969 344.199219 344.214844 C 344.550781 345.613281 344.550781 347.363281 344.550781 349.109375 L 344.902344 351.210938 L 344.902344 353.660156 C 344.902344 355.40625 344.902344 357.15625 344.902344 358.554688 L 344.199219 363.101562 C 343.152344 369.050781 340.351562 374.648438 336.855469 379.894531 C 333.355469 385.140625 329.160156 390.390625 325.660156 397.035156 C 324.960938 398.785156 324.261719 400.535156 323.910156 402.28125 C 323.5625 404.382812 323.210938 406.128906 323.5625 408.230469 C 323.5625 409.277344 323.5625 410.328125 323.910156 411.027344 L 324.613281 413.824219 C 324.960938 415.574219 326.011719 417.324219 326.710938 419.074219 C 328.109375 422.570312 329.859375 425.019531 331.257812 428.167969 L 335.457031 437.261719 C 336.855469 440.410156 338.253906 443.210938 340.003906 446.359375 C 341.753906 449.507812 343.152344 452.304688 345.949219 455.453125 C 347.347656 456.851562 349.097656 458.601562 352.597656 458.953125 C 354.34375 458.953125 355.746094 458.601562 356.792969 457.550781 C 357.84375 456.851562 358.542969 456.152344 359.59375 455.105469 C 362.042969 451.957031 363.441406 448.457031 364.839844 445.308594 C 367.289062 438.664062 369.039062 432.367188 370.4375 425.71875 C 373.234375 413.125 378.484375 401.234375 384.429688 389.6875 C 390.375 378.144531 397.371094 366.601562 404.367188 355.40625 C 418.359375 333.019531 433.402344 311.332031 446.695312 287.894531 C 449.84375 281.949219 452.992188 276 455.441406 269.703125 C 456.839844 266.554688 457.890625 263.058594 458.589844 259.558594 C 459.289062 256.0625 459.636719 251.863281 457.539062 247.667969 C 456.492188 245.566406 454.742188 243.816406 452.992188 242.769531 C 450.894531 241.71875 449.144531 241.019531 447.046875 240.671875 C 445.996094 240.320312 445.296875 240.320312 444.246094 240.320312 L 441.796875 239.96875 C 440.050781 239.96875 438.300781 239.621094 436.550781 239.621094 C 429.554688 239.269531 422.910156 239.621094 415.914062 240.667969 C 409.265625 241.71875 402.269531 243.117188 395.972656 245.917969 C 392.824219 247.316406 389.675781 248.714844 386.527344 250.8125 C 383.730469 252.914062 380.582031 255.710938 378.832031 259.910156 C 377.082031 264.105469 378.132812 269.355469 380.230469 272.503906 C 382.332031 276 385.480469 278.449219 388.277344 280.199219 C 389.675781 281.246094 391.074219 281.949219 392.824219 282.996094 C 394.222656 283.695312 395.621094 284.394531 397.722656 285.097656 C 401.21875 286.496094 405.066406 286.84375 408.566406 287.195312 C 415.910156 287.542969 422.910156 285.445312 429.554688 282.648438 C 435.851562 279.5 441.796875 275.300781 446.695312 270.402344 C 451.59375 265.507812 455.789062 259.910156 458.9375 253.613281 C 462.085938 247.316406 464.1875 240.320312 464.886719 233.324219 C 465.585938 226.328125 464.1875 218.980469 461.039062 212.335938 C 459.636719 209.1875 457.539062 206.039062 455.441406 203.238281 C 453.339844 200.441406 451.242188 197.992188 449.492188 195.542969 C 441.796875 185.050781 435.152344 173.507812 428.15625 162.3125 C 421.507812 150.769531 414.863281 139.574219 407.515625 128.03125 C 404.019531 122.433594 400.171875 116.835938 395.972656 111.589844 C 391.773438 106.34375 387.226562 101.09375 381.628906 96.898438 C 378.832031 94.800781 375.335938 93.050781 371.484375 92 C 367.636719 90.949219 363.089844 91.652344 359.59375 93.75 C 358.894531 94.097656 357.84375 94.800781 357.144531 95.148438 L 355.046875 96.546875 C 354.34375 96.898438 353.644531 97.597656 352.945312 97.945312 L 350.847656 99.695312 C 349.449219 100.746094 348.046875 102.144531 347 103.542969 C 345.949219 104.945312 344.550781 105.992188 343.5 107.742188 C 339.304688 113.6875 336.855469 121.035156 337.554688 128.378906 C 337.902344 135.726562 341.402344 142.722656 346.300781 147.96875 C 351.195312 153.21875 357.144531 157.066406 363.441406 160.214844 L 367.988281 162.3125 C 369.738281 163.011719 371.136719 163.363281 372.886719 164.0625 C 376.382812 165.109375 379.53125 165.808594 383.03125 166.160156 C 396.671875 167.910156 411.363281 164.761719 422.90625 156.367188 C 428.503906 152.167969 433.402344 146.570312 435.851562 139.574219 C 438.300781 132.578125 437.601562 124.53125 434.453125 118.234375 C 434.101562 117.535156 433.753906 116.488281 433.050781 115.789062 C 432.703125 115.089844 432.351562 114.386719 431.652344 113.6875 C 430.605469 112.289062 429.203125 110.539062 428.15625 109.492188 C 425.707031 107.042969 423.257812 104.59375 420.460938 102.496094 C 414.863281 98.296875 409.265625 94.800781 403.320312 91.652344 C 391.425781 85.355469 379.183594 80.105469 366.589844 75.558594 C 353.996094 71.011719 341.402344 67.164062 328.109375 64.015625 C 321.464844 62.617188 315.167969 61.21875 308.171875 60.515625 C 304.671875 60.167969 301.523438 59.816406 297.675781 60.515625 C 296.625 60.515625 295.925781 60.867188 294.878906 61.21875 L 287.53125 63.316406 C 274.9375 67.164062 262.34375 71.363281 249.75 76.257812 C 237.507812 81.15625 225.265625 86.402344 213.371094 92.699219 C 201.828125 98.996094 189.933594 106.34375 180.839844 116.136719 C 178.742188 118.585938 176.292969 121.382812 174.890625 124.53125 C 173.84375 125.933594 173.492188 127.679688 172.792969 129.429688 L 171.042969 133.976562 C 168.945312 140.273438 167.195312 146.921875 166.148438 153.566406 C 163.699219 166.859375 162.300781 179.804688 160.199219 192.746094 C 159.152344 199.042969 157.402344 205.6875 155.304688 211.636719 C 154.601562 213.035156 154.253906 214.785156 153.554688 216.183594 L 151.457031 220.378906 L 146.558594 229.125 C 140.261719 240.667969 133.964844 252.5625 128.019531 264.457031 C 122.070312 276.351562 116.824219 288.59375 112.625 301.1875 C 110.878906 307.484375 109.128906 314.128906 109.476562 321.125 C 109.476562 322.175781 109.476562 322.875 109.828125 323.925781 C 110.175781 324.625 110.175781 325.324219 110.527344 326.375 C 111.226562 328.121094 112.277344 329.871094 113.675781 330.921875 C 116.824219 333.371094 120.671875 333.371094 123.820312 333.371094 C 127.316406 333.371094 130.464844 333.019531 133.613281 333.019531 C 136.761719 333.019531 139.910156 333.71875 140.960938 336.519531 C 142.011719 338.964844 142.011719 342.464844 141.3125 345.613281 C 140.609375 348.761719 139.910156 351.910156 137.8125 354.007812 C 136.0625 356.105469 132.914062 356.808594 129.765625 357.15625 C 126.617188 357.15625 123.46875 356.808594 119.972656 356.457031 C 113.324219 355.40625 107.03125 354.359375 100.382812 353.308594 C 87.089844 351.210938 73.796875 350.160156 60.503906 350.511719 C 53.859375 350.511719 47.210938 350.859375 40.566406 351.558594 C 33.917969 352.257812 27.273438 353.308594 20.976562 353.660156 C 14.328125 354.007812 7.683594 354.007812 1.386719 352.609375 C -1.761719 351.910156 -4.910156 350.511719 -7.707031 348.761719 C -10.507812 347.011719 -12.957031 344.914062 -14.703125 342.464844 C -18.902344 337.21875 -21.351562 331.269531 -25.550781 326.023438 C -29.746094 320.777344 -36.042969 316.929688 -42.691406 315.878906 C -55.980469 313.78125 -69.273438 316.578125 -82.21875 319.378906 C -88.515625 321.125 -95.160156 322.875 -101.457031 324.625 C -107.753906 326.375 -114.050781 328.472656 -120.347656 330.570312 C -132.941406 334.769531 -145.535156 338.964844 -158.125 343.515625 C -170.71875 348.0625 -182.964844 352.609375 -195.90625 356.105469 C -208.847656 359.605469 -222.140625 360.65625 -235.433594 359.605469 C -248.726562 358.554688 -261.671875 356.105469 -274.613281 353.660156 C -261.671875 356.457031 -248.726562 358.90625 -235.433594 359.957031 C -222.140625 361.003906 -208.847656 359.957031 -195.90625 356.457031 C -182.964844 353.308594 -170.71875 348.410156 -158.125 344.214844 C -145.535156 339.667969 -132.941406 335.46875 -120.347656 331.621094 C -114.050781 329.523438 -107.753906 327.773438 -101.457031 325.671875 C -95.160156 323.925781 -88.863281 321.824219 -82.21875 320.425781 C -69.273438 317.628906 -55.980469 314.828125 -43.039062 316.929688 C -36.742188 317.976562 -30.796875 321.476562 -26.597656 326.722656 C -22.398438 331.96875 -19.953125 337.917969 -15.753906 343.515625 C -13.65625 346.3125 -11.207031 348.410156 -8.40625 350.511719 C -5.609375 352.257812 -2.460938 353.660156 1.035156 354.359375 C 7.683594 356.105469 14.328125 356.105469 20.976562 355.757812 C 27.621094 355.40625 34.269531 354.359375 40.914062 353.660156 C 47.5625 352.957031 54.207031 352.609375 60.855469 352.609375 C 74.148438 352.257812 87.089844 353.308594 100.382812 355.40625 C 107.03125 356.457031 113.328125 357.507812 119.972656 358.90625 C 123.121094 359.253906 126.617188 359.957031 130.117188 359.957031 C 133.613281 359.957031 137.464844 359.253906 139.910156 356.105469 C 142.359375 353.308594 143.410156 349.8125 143.757812 346.3125 C 144.109375 342.816406 144.808594 339.316406 143.058594 335.816406 C 142.359375 334.070312 140.609375 332.671875 138.863281 331.96875 C 137.113281 331.269531 135.363281 330.921875 133.613281 330.921875 C 130.117188 330.921875 126.96875 331.269531 123.46875 331.269531 C 120.324219 331.269531 117.175781 330.921875 114.726562 329.171875 C 113.675781 328.472656 112.976562 327.074219 112.277344 325.671875 C 111.925781 324.972656 111.925781 324.273438 111.578125 323.574219 C 111.578125 322.875 111.578125 322.175781 111.226562 321.476562 C 110.878906 315.179688 112.625 308.882812 114.375 302.585938 C 118.574219 289.992188 123.820312 278.097656 129.765625 266.207031 C 135.714844 254.3125 142.011719 242.769531 148.308594 231.226562 L 153.203125 222.480469 L 155.652344 217.933594 C 156.351562 216.53125 157.050781 214.785156 157.75 213.382812 C 160.199219 207.089844 161.601562 200.441406 163 193.796875 C 165.449219 180.503906 166.496094 167.558594 169.296875 154.617188 C 170.695312 148.320312 172.09375 142.023438 174.191406 135.726562 L 175.941406 131.179688 C 176.640625 129.78125 176.992188 128.378906 178.039062 126.980469 C 179.441406 124.183594 181.539062 121.734375 183.636719 119.285156 C 192.382812 109.839844 203.925781 102.84375 215.46875 96.546875 C 227.015625 90.25 239.257812 85.003906 251.5 80.457031 C 263.746094 75.910156 276.335938 71.363281 288.929688 67.863281 L 296.277344 65.765625 C 296.976562 65.414062 297.675781 65.414062 298.375 65.414062 C 301.175781 65.066406 304.671875 65.414062 307.820312 65.414062 C 314.117188 66.113281 320.765625 67.511719 327.058594 68.914062 C 352.597656 75.210938 377.78125 84.304688 400.871094 96.546875 C 406.46875 99.695312 412.0625 103.195312 417.3125 107.042969 C 419.761719 109.140625 422.207031 111.238281 424.308594 113.339844 C 425.355469 114.386719 426.40625 115.789062 427.105469 116.835938 C 427.457031 117.535156 428.15625 118.234375 428.503906 118.9375 C 428.855469 119.636719 429.203125 119.984375 429.554688 121.035156 C 432.351562 126.632812 432.703125 132.578125 430.605469 138.175781 C 428.503906 143.773438 424.65625 148.667969 419.410156 152.167969 C 409.265625 159.515625 395.972656 162.3125 383.730469 160.914062 C 380.582031 160.5625 377.433594 159.863281 374.632812 158.8125 C 373.234375 158.464844 371.484375 157.765625 370.085938 157.066406 L 365.890625 154.964844 C 360.292969 152.167969 355.042969 148.667969 350.847656 144.121094 C 346.648438 139.574219 343.851562 133.976562 343.5 128.03125 C 343.152344 122.082031 345.25 116.136719 348.75 111.238281 C 349.449219 109.839844 350.496094 108.792969 351.546875 107.742188 C 352.597656 106.691406 353.644531 105.644531 354.695312 104.59375 L 356.445312 103.195312 C 357.144531 102.84375 357.84375 102.144531 358.542969 101.796875 L 360.640625 100.394531 C 361.339844 99.695312 361.691406 99.695312 362.390625 99.347656 C 364.839844 97.945312 367.289062 97.597656 370.085938 98.296875 C 372.535156 98.996094 375.332031 100.394531 377.78125 102.144531 C 382.679688 105.992188 386.878906 110.539062 390.726562 115.789062 C 394.574219 121.035156 398.421875 126.28125 401.917969 131.878906 C 408.914062 143.074219 415.5625 154.617188 422.207031 165.808594 C 428.855469 177.355469 435.851562 188.546875 443.546875 199.742188 C 445.644531 202.539062 447.746094 205.339844 449.492188 207.789062 C 451.242188 210.234375 452.992188 212.683594 454.390625 215.484375 C 456.839844 221.082031 458.238281 227.027344 457.539062 232.972656 C 456.839844 245.21875 450.195312 256.761719 441.449219 265.507812 C 436.902344 269.703125 432.003906 273.550781 426.40625 276.351562 C 420.808594 279.148438 414.863281 280.546875 408.914062 280.199219 C 406.117188 280.199219 402.96875 279.5 400.519531 278.800781 C 399.472656 278.449219 397.722656 277.75 396.324219 277.050781 C 395.273438 276.351562 393.875 275.652344 392.476562 274.601562 C 390.027344 272.851562 387.578125 270.753906 386.179688 268.65625 C 384.777344 266.554688 384.429688 264.457031 385.128906 262.359375 C 385.828125 260.257812 387.925781 258.160156 390.375 256.410156 C 392.824219 254.664062 395.621094 253.261719 398.421875 252.214844 C 404.367188 249.765625 410.316406 248.367188 416.960938 247.316406 C 423.257812 246.265625 429.90625 246.265625 436.199219 246.265625 C 437.949219 246.265625 439.347656 246.617188 441.097656 246.617188 L 443.546875 246.964844 C 444.246094 246.964844 445.296875 246.964844 445.644531 247.316406 C 448.445312 247.667969 450.191406 248.714844 451.242188 250.464844 C 452.292969 252.214844 452.292969 255.011719 451.59375 258.160156 C 450.894531 260.957031 450.195312 264.105469 448.792969 266.90625 C 446.34375 272.851562 443.546875 278.800781 440.398438 284.394531 C 427.457031 307.132812 412.414062 329.171875 398.421875 351.558594 C 391.425781 362.753906 384.429688 374.296875 378.132812 386.191406 C 371.835938 398.085938 366.238281 410.679688 363.441406 423.96875 C 362.042969 430.265625 360.292969 436.5625 358.191406 442.511719 C 357.144531 445.308594 355.746094 448.457031 354.34375 450.207031 C 353.644531 451.253906 352.945312 451.253906 352.945312 451.253906 C 352.945312 451.253906 351.898438 450.90625 351.195312 449.855469 C 349.449219 447.757812 347.699219 444.960938 346.300781 442.160156 C 344.902344 439.363281 343.5 436.214844 342.101562 433.414062 L 337.902344 424.320312 C 336.503906 421.171875 334.757812 418.023438 333.355469 415.574219 C 330.558594 410.328125 330.207031 404.730469 332.65625 399.484375 C 335.105469 394.238281 339.304688 388.988281 343.152344 383.390625 C 347 377.796875 350.148438 371.148438 351.546875 364.152344 C 351.898438 362.402344 351.898438 360.65625 352.246094 358.554688 C 352.597656 356.808594 352.246094 355.058594 352.246094 353.308594 L 352.246094 350.859375 L 351.898438 348.0625 C 351.546875 346.3125 351.546875 344.5625 351.546875 342.816406 C 350.847656 336.167969 348.75 328.820312 344.199219 322.875 C 339.652344 316.929688 334.40625 312.730469 329.859375 308.183594 C 325.3125 303.636719 320.761719 299.089844 316.566406 293.839844 C 312.367188 288.945312 308.519531 283.695312 304.671875 278.097656 C 301.175781 272.851562 297.324219 267.253906 294.878906 261.660156 C 293.476562 258.859375 292.777344 256.0625 292.429688 253.261719 C 292.429688 250.8125 293.128906 248.714844 294.878906 246.617188 C 298.375 242.417969 304.671875 238.921875 309.570312 234.375 C 314.816406 229.824219 319.714844 224.578125 323.210938 218.632812 C 324.960938 215.832031 327.058594 212.335938 328.109375 209.535156 C 329.507812 206.386719 330.558594 203.238281 331.957031 200.09375 C 334.054688 193.445312 335.804688 186.800781 335.804688 179.453125 C 335.804688 172.105469 333.355469 165.109375 329.859375 158.8125 C 326.359375 152.867188 322.511719 147.269531 320.0625 141.671875 C 319.363281 140.273438 318.664062 138.875 318.316406 137.476562 C 317.964844 136.078125 317.265625 134.675781 316.914062 133.277344 L 315.867188 128.730469 C 315.515625 127.679688 315.167969 126.632812 314.816406 125.582031 C 314.46875 124.53125 313.765625 123.484375 313.066406 122.785156 C 310.269531 118.9375 306.070312 117.535156 302.222656 116.835938 C 298.375 116.136719 294.878906 116.136719 291.378906 116.488281 C 277.386719 117.886719 264.792969 122.085938 252.199219 126.28125 C 227.015625 135.378906 202.878906 146.222656 178.390625 156.714844 C 172.445312 159.515625 166.148438 161.960938 160.199219 164.410156 C 157.050781 165.808594 154.253906 166.859375 151.105469 167.558594 C 148.308594 168.257812 145.160156 168.957031 142.710938 168.957031 C 142.011719 168.957031 141.660156 168.609375 141.3125 168.609375 C 140.960938 168.257812 140.609375 168.257812 140.261719 167.910156 C 139.910156 167.558594 139.210938 166.511719 138.863281 165.460938 C 138.164062 163.011719 138.511719 159.863281 138.511719 156.714844 C 138.863281 150.417969 139.910156 143.773438 140.609375 137.125 C 141.3125 130.480469 141.3125 123.484375 140.960938 116.835938 C 140.609375 113.339844 140.609375 110.191406 139.910156 106.691406 C 139.5625 104.945312 139.210938 103.195312 139.210938 101.796875 C 139.210938 101.09375 138.863281 100.046875 138.863281 99.347656 L 138.511719 96.898438 L 137.8125 92.351562 C 137.8125 90.949219 137.8125 89.203125 137.8125 87.804688 C 137.460938 84.65625 138.164062 81.855469 138.511719 78.707031 C 139.910156 72.761719 142.710938 67.515625 146.558594 62.617188 C 150.753906 58.070312 155.652344 53.871094 160.898438 50.023438 C 166.148438 46.523438 171.746094 43.027344 177.691406 39.878906 C 183.289062 36.730469 189.234375 33.230469 194.832031 30.085938 C 200.777344 26.585938 206.027344 22.738281 211.621094 19.238281 C 222.464844 12.242188 234.359375 8.394531 247.304688 8.394531 C 260.246094 8.394531 273.539062 9.796875 286.832031 9.796875 L 296.976562 9.796875 L 307.121094 9.445312 C 313.765625 9.09375 320.761719 8.394531 327.058594 7.695312 L 331.957031 6.996094 L 336.855469 6.648438 C 340.003906 6.296875 343.152344 5.945312 346.648438 5.945312 L 356.445312 5.945312 L 366.238281 6.648438 C 379.183594 7.695312 392.125 10.144531 404.71875 13.292969 C 417.660156 16.441406 430.253906 19.941406 443.546875 22.738281 C 456.488281 25.535156 470.132812 27.285156 484.125 26.234375 C 487.621094 25.886719 491.121094 25.1875 494.617188 24.488281 C 498.117188 23.789062 500.914062 22.738281 504.414062 21.6875 C 505.113281 21.6875 506.164062 20.988281 506.863281 20.988281 L 508.960938 20.289062 C 510.359375 19.589844 512.109375 19.589844 513.507812 18.890625 C 516.65625 18.191406 519.804688 17.839844 522.605469 17.492188 C 535.195312 16.792969 547.441406 20.988281 558.984375 26.585938 C 570.527344 32.183594 581.722656 39.179688 593.265625 46.175781 C 604.808594 53.171875 616.351562 59.816406 628.597656 65.414062 C 634.542969 68.214844 640.839844 71.011719 647.136719 73.109375 C 650.285156 74.160156 653.433594 75.210938 656.929688 76.257812 L 667.425781 83.953125 C 673.371094 85.703125 679.320312 88.152344 684.566406 91.648438 C 689.464844 95.148438 693.660156 99.695312 696.109375 104.941406 C 701.007812 116.136719 700.308594 129.429688 700.65625 142.722656 C 701.007812 149.367188 701.707031 156.367188 703.804688 163.363281 C 705.90625 170.007812 709.753906 176.65625 715 181.550781 C 720.246094 186.796875 726.542969 189.945312 731.441406 193.445312 C 736.339844 196.941406 740.886719 201.839844 744.035156 207.085938 C 751.03125 217.582031 754.527344 230.175781 756.628906 242.769531 C 758.726562 255.710938 758.726562 268.65625 758.726562 281.945312 L 758.726562 301.886719 C 758.726562 308.53125 758.726562 315.179688 760.125 322.523438 C 760.476562 324.625 761.175781 326.023438 761.875 327.421875 C 762.222656 327.773438 762.222656 328.472656 762.222656 329.171875 C 762.222656 329.871094 762.574219 330.570312 762.574219 331.269531 C 762.921875 334.070312 762.574219 337.566406 762.222656 340.714844 C 761.523438 347.011719 760.476562 353.660156 759.074219 359.953125 C 753.480469 385.492188 745.433594 411.027344 737.738281 436.214844 C 733.890625 448.808594 730.042969 461.75 726.542969 474.691406 C 724.792969 480.988281 723.394531 487.984375 722.347656 494.28125 C 721.296875 500.578125 719.546875 506.875 717.796875 513.171875 C 710.453125 538.359375 699.957031 562.496094 686.664062 585.234375 C 684.917969 588.03125 683.167969 590.828125 681.417969 593.628906 C 679.667969 596.425781 677.917969 598.875 675.820312 601.671875 C 674.070312 604.472656 671.972656 606.570312 669.875 609.371094 C 667.773438 611.820312 665.328125 614.265625 663.226562 616.714844 C 658.679688 621.613281 654.132812 626.511719 650.285156 633.15625 C 649.585938 634.90625 648.535156 636.65625 648.1875 638.753906 C 647.835938 639.804688 647.835938 640.851562 647.835938 641.902344 C 647.835938 642.953125 647.835938 644 648.1875 645.050781 C 649.234375 649.25 651.683594 652.394531 653.78125 654.84375 C 657.980469 660.09375 662.527344 664.988281 666.375 670.238281 C 670.222656 675.132812 675.121094 681.429688 674.773438 684.929688 C 674.421875 685.628906 674.421875 686.328125 673.722656 687.027344 C 673.371094 687.378906 673.023438 687.726562 672.324219 688.078125 C 671.972656 688.425781 671.273438 688.425781 670.574219 688.777344 C 667.773438 689.824219 664.976562 690.175781 661.828125 690.527344 C 655.53125 690.875 648.886719 690.875 642.589844 690.527344 C 629.644531 689.824219 616.351562 688.425781 603.058594 688.078125 C 596.414062 687.726562 589.769531 687.378906 582.421875 688.425781 C 575.425781 689.824219 569.128906 692.273438 562.832031 694.722656 C 537.996094 704.519531 513.859375 715.710938 489.722656 726.90625 C 465.585938 738.101562 441.796875 749.644531 418.359375 762.585938 C 415.5625 763.984375 412.414062 765.734375 409.613281 767.484375 C 406.46875 769.234375 404.019531 770.980469 400.871094 772.730469 C 395.273438 776.578125 389.675781 781.125 385.128906 786.375 C 382.679688 788.824219 380.582031 791.621094 378.480469 793.71875 C 376.382812 795.820312 374.285156 797.21875 371.835938 797.917969 C 369.039062 798.617188 366.238281 798.617188 363.089844 798.617188 L 360.640625 798.617188 L 358.191406 798.265625 L 355.746094 797.917969 C 355.042969 797.917969 354.34375 797.566406 353.644531 797.566406 C 347.699219 796.519531 342.453125 793.71875 338.605469 789.523438 C 334.753906 785.324219 331.957031 779.378906 329.859375 773.429688 C 326.011719 761.1875 324.960938 748.246094 323.5625 734.953125 C 323.210938 731.453125 322.863281 728.65625 323.5625 726.554688 C 323.910156 725.507812 324.261719 724.808594 325.3125 724.109375 C 326.011719 723.40625 327.058594 723.058594 328.460938 722.707031 C 330.90625 722.007812 334.40625 722.007812 337.554688 722.359375 C 340.703125 722.707031 343.851562 723.058594 347.347656 723.40625 C 353.996094 724.109375 360.640625 724.808594 367.988281 724.109375 C 371.484375 723.757812 375.332031 723.058594 378.832031 720.609375 C 381.980469 718.511719 384.429688 716.0625 386.878906 713.613281 C 396.324219 703.820312 404.367188 693.324219 412.0625 682.128906 C 415.910156 676.535156 419.410156 670.9375 422.90625 664.988281 C 426.40625 659.042969 429.554688 653.445312 432.003906 646.449219 L 433.402344 641.550781 C 433.753906 640.152344 434.453125 638.402344 434.800781 637.003906 C 435.851562 634.207031 437.25 631.058594 438.648438 628.257812 C 441.796875 622.664062 445.644531 617.765625 450.191406 613.21875 C 454.742188 609.019531 459.988281 605.171875 465.234375 602.023438 C 467.683594 600.625 471.183594 598.875 473.628906 597.476562 C 475.03125 596.777344 476.429688 596.078125 477.828125 595.726562 C 479.226562 595.378906 480.625 595.027344 481.328125 595.027344 C 481.675781 595.027344 481.328125 595.027344 480.976562 594.675781 C 480.625 594.328125 480.976562 594.328125 480.976562 595.027344 C 480.976562 596.078125 480.625 597.476562 480.277344 598.875 C 479.578125 602.023438 478.527344 605.171875 477.476562 608.320312 C 475.378906 614.617188 473.28125 621.261719 471.882812 627.910156 C 470.480469 634.90625 469.78125 641.203125 466.984375 646.101562 C 465.585938 648.546875 463.835938 649.949219 462.085938 649.949219 C 459.988281 650.296875 457.191406 649.25 454.742188 647.847656 C 452.292969 646.449219 449.492188 644.351562 447.046875 642.601562 L 443.195312 639.453125 C 442.496094 638.753906 442.148438 638.402344 442.148438 638.402344 C 441.796875 638.054688 441.796875 637.355469 441.449219 637.003906 C 440.398438 634.554688 440.046875 631.40625 439.347656 628.257812 C 439 625.113281 438.648438 621.964844 438.300781 618.464844 C 437.601562 605.523438 437.601562 592.230469 437.601562 578.9375 C 437.601562 565.644531 438.300781 552.351562 438.300781 539.058594 C 438.300781 532.410156 438.648438 525.765625 438.648438 519.117188 L 438.648438 513.871094 C 438.648438 512.121094 438.648438 510.722656 438.300781 508.273438 C 438.300781 507.574219 437.949219 506.175781 437.949219 505.824219 C 437.949219 505.125 437.601562 504.777344 437.601562 503.726562 C 437.601562 502.328125 437.25 500.929688 437.601562 499.179688 C 437.601562 492.882812 438.648438 486.585938 440.046875 480.289062 C 441.449219 473.992188 443.195312 467.695312 445.644531 461.75 C 446.695312 458.953125 448.09375 455.804688 449.492188 453.355469 C 450.191406 451.957031 450.894531 450.554688 451.941406 449.507812 L 452.992188 447.757812 L 454.742188 446.007812 C 456.488281 444.257812 458.589844 442.859375 461.039062 442.859375 C 463.484375 442.859375 466.285156 443.558594 468.734375 444.960938 C 473.980469 447.757812 478.878906 451.957031 483.773438 456.503906 C 486.222656 458.601562 488.671875 461.050781 491.472656 463.148438 C 492.171875 463.5 492.871094 464.199219 493.21875 464.546875 C 493.570312 464.898438 493.917969 465.25 494.269531 465.597656 C 494.621094 465.949219 494.269531 465.949219 494.621094 466.296875 C 494.621094 466.648438 494.621094 466.996094 494.269531 467.347656 C 493.570312 469.097656 491.472656 471.542969 489.023438 473.292969 C 486.574219 475.042969 483.773438 476.792969 480.976562 478.191406 C 478.179688 479.589844 475.378906 480.640625 472.230469 481.6875 C 469.082031 482.738281 465.933594 483.4375 462.785156 484.488281 C 459.636719 485.1875 456.488281 486.238281 454.042969 486.238281 C 452.992188 486.238281 452.292969 485.886719 451.242188 485.539062 C 450.191406 484.835938 449.144531 483.789062 448.09375 482.738281 C 445.996094 480.640625 443.195312 477.839844 443.195312 476.441406 C 443.195312 476.09375 443.195312 476.09375 443.195312 476.09375 C 443.195312 475.742188 443.546875 475.394531 443.898438 475.042969 C 444.597656 473.992188 445.996094 472.945312 447.046875 471.542969 C 449.492188 469.097656 451.59375 466.648438 453.691406 463.5 C 454.742188 462.101562 455.789062 460.699219 456.839844 458.953125 C 457.890625 457.550781 458.589844 456.152344 459.289062 454.402344 C 462.4375 448.457031 465.234375 442.511719 468.734375 437.613281 C 470.480469 435.164062 472.582031 432.714844 474.679688 430.265625 C 476.777344 427.816406 479.226562 425.019531 481.328125 422.570312 C 483.425781 420.121094 485.523438 418.023438 487.621094 416.625 C 489.722656 415.226562 491.820312 415.226562 493.917969 415.925781 C 496.019531 416.972656 498.117188 419.074219 500.214844 421.171875 C 501.265625 422.222656 501.964844 423.621094 503.015625 424.671875 C 503.714844 426.070312 504.761719 427.46875 505.464844 428.867188 C 506.863281 431.316406 508.261719 434.113281 508.613281 436.914062 C 508.960938 439.363281 508.613281 441.109375 506.863281 442.160156 C 505.113281 443.210938 502.316406 443.910156 499.167969 443.910156 C 496.367188 443.910156 493.21875 443.558594 490.070312 443.210938 C 483.773438 442.160156 477.828125 440.0625 471.882812 437.613281 C 469.082031 436.214844 466.632812 434.816406 464.886719 432.714844 C 463.136719 430.964844 462.785156 428.867188 463.136719 426.417969 C 463.484375 423.96875 465.234375 421.523438 466.984375 419.074219 C 468.734375 416.625 471.183594 414.527344 473.628906 412.425781 C 478.527344 408.230469 483.773438 404.730469 489.371094 401.234375 C 492.171875 399.484375 494.96875 398.085938 497.765625 396.683594 C 500.566406 395.285156 503.363281 394.238281 505.8125 393.886719 C 508.261719 393.535156 510.011719 394.585938 512.460938 396.335938 C 514.90625 398.085938 517.007812 400.53125 519.457031 402.980469 C 521.902344 405.429688 524.003906 407.527344 526.101562 409.628906 C 526.800781 411.027344 527.851562 412.078125 528.550781 413.125 C 528.902344 414.527344 529.949219 415.574219 529.949219 416.972656 C 531.347656 422.222656 529.25 428.167969 526.453125 433.765625 C 523.652344 439.363281 519.804688 444.609375 515.957031 450.207031 C 512.109375 455.804688 508.613281 461.398438 505.113281 467.347656 L 502.664062 471.894531 C 501.964844 473.292969 501.265625 475.042969 500.566406 476.441406 L 498.46875 480.988281 C 497.765625 482.390625 497.066406 483.789062 496.367188 485.1875 L 493.917969 489.035156 C 492.871094 490.085938 492.171875 491.132812 491.121094 492.183594 C 489.023438 493.933594 486.921875 495.332031 484.472656 495.679688 C 479.226562 496.382812 473.28125 493.933594 466.984375 491.484375 C 463.835938 490.433594 460.6875 489.035156 457.1875 488.335938 C 454.039062 487.285156 449.84375 486.9375 446.695312 486.9375 C 442.847656 486.9375 439.347656 486.9375 435.851562 487.984375 C 432.351562 489.035156 428.15625 491.132812 425.707031 494.980469 C 423.609375 498.828125 423.257812 503.027344 423.257812 506.527344 C 423.257812 510.023438 423.957031 513.523438 424.65625 517.019531 L 426.753906 526.816406 C 427.457031 529.964844 427.804688 533.460938 429.902344 537.308594 C 430.953125 539.058594 433.050781 541.15625 435.152344 542.207031 C 437.601562 542.90625 439.699219 543.253906 441.449219 542.90625 C 445.296875 542.554688 448.445312 541.855469 451.941406 541.15625 C 458.589844 539.40625 464.886719 538.007812 471.179688 536.609375 C 477.476562 535.210938 484.125 534.511719 490.769531 532.761719 C 497.417969 531.011719 504.414062 527.863281 509.660156 522.617188 C 514.90625 517.019531 517.707031 510.722656 520.855469 505.125 C 522.253906 502.328125 524.003906 499.53125 525.753906 497.082031 C 527.5 494.632812 529.25 492.183594 531.699219 489.734375 C 535.894531 484.835938 540.792969 479.589844 544.292969 473.644531 C 547.789062 467.347656 549.539062 460.351562 550.589844 453.355469 C 551.289062 446.707031 551.988281 440.0625 553.039062 434.113281 L 555.136719 424.320312 C 555.835938 420.820312 556.1875 417.324219 556.1875 413.824219 C 556.535156 406.828125 555.484375 399.484375 552.335938 392.835938 C 549.1875 386.191406 544.292969 380.59375 538.34375 376.394531 C 535.546875 374.296875 532.046875 372.546875 529.25 371.148438 L 526.800781 370.097656 C 526.101562 369.75 525.050781 369.398438 524.351562 369.050781 C 522.605469 368.351562 521.203125 368 519.457031 367.300781 C 515.957031 366.25 512.460938 365.902344 508.613281 365.902344 C 504.761719 366.25 501.265625 366.953125 497.765625 368.351562 C 491.121094 371.148438 485.523438 374.296875 479.578125 377.445312 C 473.628906 380.59375 468.035156 383.390625 462.085938 385.839844 C 459.289062 387.242188 456.140625 388.289062 452.992188 389.6875 C 451.59375 390.386719 449.84375 390.738281 448.09375 391.789062 L 445.644531 393.1875 L 443.546875 394.9375 C 437.601562 399.132812 433.402344 405.082031 429.902344 411.378906 C 426.40625 417.324219 423.957031 423.96875 421.859375 430.265625 C 419.757812 436.5625 418.359375 443.210938 416.960938 449.855469 C 414.511719 463.148438 412.761719 476.441406 411.714844 489.734375 C 409.613281 516.320312 409.964844 543.253906 411.714844 569.839844 C 412.0625 576.488281 412.761719 583.132812 413.8125 589.78125 C 414.164062 591.53125 414.164062 593.277344 414.511719 594.679688 L 415.210938 599.574219 C 415.5625 602.722656 416.261719 605.871094 416.261719 609.019531 C 417.3125 621.964844 415.910156 634.554688 411.015625 646.449219 C 406.46875 658.34375 398.421875 668.488281 388.976562 677.234375 C 379.53125 685.976562 368.335938 692.976562 356.792969 698.570312 C 333.355469 710.117188 308.171875 717.8125 282.285156 723.058594 C 256.398438 728.304688 230.164062 732.152344 203.925781 734.953125 C 190.984375 736.351562 177.691406 737.050781 164.746094 737.050781 C 158.101562 737.050781 151.804688 736.699219 145.507812 735.652344 C 139.210938 734.601562 132.914062 733.203125 128.019531 730.054688 C 122.769531 727.257812 119.621094 722.707031 117.523438 716.761719 C 116.472656 713.964844 115.773438 710.464844 114.726562 707.316406 C 114.023438 705.566406 113.324219 703.820312 112.625 702.070312 C 112.277344 701.371094 111.578125 700.320312 110.878906 699.269531 C 110.175781 698.570312 109.828125 697.871094 109.128906 697.171875 L 107.378906 695.074219 C 107.027344 694.375 106.328125 694.023438 105.980469 693.324219 C 105.28125 691.925781 104.230469 690.875 103.878906 689.476562 C 102.480469 687.027344 102.132812 684.230469 102.480469 682.128906 C 102.832031 680.03125 104.582031 678.632812 106.679688 677.933594 C 109.128906 677.234375 111.925781 677.234375 114.726562 677.582031 C 116.125 677.933594 117.523438 678.28125 118.921875 678.632812 C 120.320312 678.980469 121.722656 679.683594 123.121094 680.382812 L 127.667969 682.480469 C 129.417969 683.179688 131.167969 683.878906 133.265625 684.230469 C 137.113281 684.929688 141.3125 684.578125 145.160156 683.179688 C 148.65625 681.78125 151.804688 679.332031 154.253906 676.882812 C 159.5 671.636719 163 665.6875 166.148438 659.742188 C 169.296875 653.796875 172.09375 647.5 174.890625 641.550781 C 177.339844 635.257812 180.140625 629.660156 182.589844 623.011719 C 184.6875 616.367188 186.085938 609.371094 185.738281 602.023438 C 185.386719 594.679688 182.9375 587.683594 180.140625 581.734375 C 178.742188 578.585938 177.691406 576.136719 176.640625 572.988281 C 175.941406 570.191406 175.941406 567.394531 176.292969 564.59375 C 176.992188 558.996094 179.789062 553.398438 183.988281 549.203125 C 188.183594 545.003906 193.78125 541.855469 199.378906 539.757812 L 203.925781 538.359375 L 208.472656 537.308594 C 211.273438 536.609375 215.121094 536.257812 217.917969 535.558594 C 224.566406 534.511719 231.210938 533.460938 237.859375 531.363281 C 250.800781 527.515625 263.394531 521.566406 274.589844 513.871094 C 285.78125 506.527344 296.277344 497.78125 306.421875 489.386719 C 311.667969 485.1875 316.914062 480.640625 321.464844 475.042969 C 326.011719 469.445312 329.160156 463.148438 331.257812 456.503906 C 333.707031 449.855469 334.753906 443.558594 337.203125 437.613281 C 337.902344 436.214844 338.253906 434.464844 338.953125 433.414062 L 340.003906 431.316406 L 341.050781 429.21875 C 342.453125 426.417969 344.898438 422.921875 344.898438 418.375 C 344.898438 415.925781 344.199219 413.476562 342.800781 411.726562 C 341.402344 409.976562 339.652344 408.578125 338.253906 407.53125 C 335.105469 405.429688 331.957031 404.03125 328.460938 402.980469 C 322.164062 400.53125 315.515625 398.785156 309.21875 397.035156 C 296.625 393.1875 284.03125 389.339844 271.441406 385.140625 C 265.144531 383.042969 257.796875 381.292969 250.800781 381.644531 C 243.804688 381.644531 236.460938 383.742188 230.164062 386.890625 C 217.570312 393.535156 207.773438 403.679688 199.378906 414.175781 C 190.984375 424.671875 183.636719 435.863281 175.242188 445.660156 C 173.144531 448.105469 171.042969 450.207031 168.597656 452.304688 C 167.894531 452.65625 167.546875 453.355469 166.847656 453.355469 C 166.496094 453.703125 165.796875 454.054688 165.097656 454.402344 C 164.046875 454.753906 164.046875 455.105469 163 455.453125 C 162.300781 455.804688 161.25 456.152344 160.550781 456.503906 C 154.253906 459.652344 148.65625 464.199219 143.757812 469.097656 C 138.863281 473.992188 134.664062 479.242188 130.464844 484.488281 C 126.269531 489.734375 122.421875 495.332031 118.222656 499.53125 C 117.875 500.230469 117.175781 500.578125 116.824219 500.929688 C 116.472656 501.277344 115.773438 501.628906 115.773438 501.628906 C 115.773438 501.628906 115.074219 501.976562 114.726562 501.628906 C 114.027344 501.628906 113.324219 501.628906 112.625 501.628906 C 109.476562 501.277344 106.328125 500.929688 103.179688 500.578125 C 96.886719 499.53125 90.238281 498.480469 83.941406 497.082031 C 77.644531 495.683594 71.347656 493.933594 65.75 491.132812 C 64.703125 490.785156 63.304688 489.386719 63.304688 489.386719 C 64.003906 489.386719 62.953125 492.535156 62.953125 491.832031 C 62.953125 491.832031 63.652344 491.484375 64.003906 491.484375 C 66.453125 490.785156 69.949219 490.785156 73.097656 490.785156 C 76.246094 490.785156 79.394531 490.785156 82.890625 491.132812 C 86.039062 491.132812 89.539062 491.484375 92.335938 491.832031 C 95.484375 492.183594 97.933594 493.234375 99.332031 494.632812 C 100.734375 496.03125 101.433594 498.828125 102.480469 501.976562 C 102.832031 503.726562 103.53125 505.476562 104.582031 507.226562 C 104.929688 507.925781 105.628906 508.972656 105.980469 510.023438 C 106.328125 510.722656 107.027344 511.421875 107.378906 512.121094 C 110.175781 515.621094 114.023438 517.371094 117.523438 518.417969 C 121.023438 519.46875 124.871094 519.820312 128.367188 519.820312 C 132.214844 519.820312 135.714844 518.769531 139.5625 517.019531 C 141.3125 515.96875 143.058594 514.921875 144.457031 513.171875 C 145.859375 511.421875 146.90625 509.675781 147.605469 507.574219 C 148.65625 503.378906 148.308594 499.179688 146.90625 495.683594 C 145.859375 492.183594 143.757812 489.035156 142.011719 485.886719 C 139.910156 483.089844 138.511719 480.640625 137.460938 477.839844 C 135.363281 472.246094 134.664062 465.949219 135.015625 459.652344 C 135.015625 453.355469 136.0625 446.707031 137.113281 440.410156 C 139.5625 427.820312 143.410156 415.226562 147.957031 402.632812 C 152.503906 390.390625 157.402344 378.144531 163 366.25 L 167.195312 357.507812 C 168.597656 354.707031 169.996094 351.558594 171.742188 349.109375 C 174.191406 344.914062 180.140625 342.464844 186.085938 341.765625 C 189.234375 341.414062 192.382812 341.066406 195.53125 341.066406 C 196.230469 341.066406 196.929688 341.066406 197.980469 341.066406 C 198.679688 341.066406 199.730469 341.066406 200.078125 341.066406 C 201.128906 341.066406 201.828125 341.414062 202.179688 342.113281 C 203.226562 342.816406 203.578125 345.960938 202.878906 348.761719 C 202.527344 351.558594 201.476562 354.707031 200.078125 357.507812 C 199.03125 360.304688 197.628906 363.101562 195.882812 365.902344 C 195.53125 366.601562 195.179688 366.953125 194.832031 367.652344 C 194.480469 368 194.132812 368.351562 193.78125 368.699219 C 193.082031 369.050781 192.035156 369.75 190.984375 369.75 C 188.535156 370.101562 185.738281 369.398438 182.9375 368 C 181.539062 367.300781 180.140625 366.601562 179.089844 365.902344 C 177.691406 365.203125 176.992188 364.503906 175.59375 363.453125 C 174.894531 362.753906 174.191406 362.054688 174.191406 361.003906 C 173.84375 359.957031 173.84375 358.90625 174.191406 357.855469 C 174.542969 355.757812 175.941406 353.308594 178.042969 351.910156 C 179.089844 351.210938 180.140625 350.511719 181.539062 350.160156 C 182.238281 349.8125 182.589844 349.8125 183.289062 349.8125 C 183.636719 349.460938 184.6875 349.460938 185.738281 349.460938 C 188.1875 349.460938 190.984375 349.8125 194.132812 350.859375 C 200.078125 352.957031 205.675781 355.757812 211.273438 359.253906 C 216.871094 362.753906 222.117188 366.25 227.015625 370.449219 C 227.714844 371.148438 228.0625 371.5 228.414062 371.847656 C 228.761719 372.199219 229.8125 373.246094 229.8125 373.246094 C 229.8125 374.296875 229.464844 370.800781 230.863281 370.449219 C 231.210938 370.449219 230.511719 370.449219 229.8125 370.800781 C 227.015625 371.148438 223.515625 371.148438 220.367188 371.5 C 213.722656 371.847656 206.726562 372.546875 200.078125 373.949219 C 196.929688 374.648438 193.082031 376.046875 190.632812 376.394531 C 189.933594 376.746094 189.234375 376.746094 188.535156 376.746094 L 186.4375 376.746094 C 185.738281 376.746094 185.039062 376.394531 184.335938 376.394531 C 183.636719 376.394531 182.9375 376.046875 182.238281 375.695312 C 176.992188 373.597656 172.445312 369.398438 168.246094 364.503906 C 166.148438 362.054688 164.398438 359.253906 162.648438 356.808594 L 159.851562 352.609375 L 158.453125 350.511719 C 158.101562 349.8125 156.703125 348.0625 156.351562 347.710938 C 154.605469 346.3125 154.605469 346.664062 153.902344 346.3125 C 153.554688 345.960938 153.554688 345.960938 153.902344 346.3125 C 153.902344 346.664062 153.902344 346.664062 153.902344 346.3125 C 154.253906 345.960938 154.253906 345.613281 154.953125 344.914062 C 156.703125 342.8125 159.152344 341.066406 161.949219 339.316406 C 164.746094 337.566406 167.195312 335.816406 169.996094 334.417969 C 172.792969 333.019531 175.941406 330.921875 178.390625 330.222656 C 183.636719 328.121094 189.933594 328.472656 195.882812 330.222656 C 207.773438 333.371094 218.96875 341.066406 229.464844 348.761719 C 234.710938 352.609375 239.957031 356.808594 245.554688 360.65625 C 246.953125 361.703125 248.351562 362.753906 250.800781 363.453125 C 251.5 364.152344 256.046875 364.152344 257.097656 360.65625 C 257.796875 358.207031 257.449219 357.855469 257.449219 356.808594 C 257.449219 352.609375 255.699219 348.761719 253.601562 345.960938 C 249.402344 339.667969 244.503906 335.117188 239.605469 330.570312 C 234.710938 326.023438 229.464844 321.824219 224.214844 317.628906 C 218.96875 313.429688 214.070312 309.234375 208.472656 305.035156 C 205.675781 302.9375 202.878906 300.835938 199.730469 299.4375 C 198.328125 298.738281 196.582031 297.6875 195.179688 296.988281 L 190.285156 294.890625 C 177.339844 289.992188 162.648438 289.292969 149.007812 292.441406 C 142.359375 294.191406 135.714844 296.640625 129.765625 300.136719 C 126.617188 301.886719 123.820312 303.984375 121.023438 306.433594 L 119.273438 308.183594 C 118.574219 308.53125 117.875 309.933594 117.523438 310.632812 C 116.824219 311.332031 116.472656 312.03125 115.773438 313.429688 C 115.074219 314.480469 114.726562 315.527344 114.726562 316.929688 C 114.375 317.976562 114.726562 319.726562 115.074219 321.125 C 115.425781 322.523438 116.125 323.574219 116.824219 324.273438 C 118.222656 326.023438 119.621094 327.074219 121.023438 328.121094 C 123.820312 330.222656 125.917969 331.96875 126.96875 334.070312 C 126.96875 334.417969 127.320312 335.117188 127.320312 335.46875 C 127.320312 336.167969 127.667969 335.816406 127.320312 336.867188 C 127.320312 337.566406 127.320312 338.964844 126.96875 338.964844 L 126.617188 341.414062 C 125.917969 344.5625 124.871094 347.710938 123.820312 350.511719 C 119.621094 362.753906 113.675781 374.296875 106.679688 385.140625 C 99.683594 395.984375 91.289062 406.128906 82.191406 415.226562 L 74.847656 421.871094 C 72.398438 423.96875 69.949219 426.417969 67.5 428.867188 C 62.605469 433.414062 58.054688 438.3125 53.859375 443.558594 C 49.660156 448.808594 45.464844 454.054688 41.613281 460 C 38.117188 465.949219 34.617188 472.246094 33.917969 479.941406 C 33.570312 483.789062 34.617188 488.335938 37.417969 491.832031 C 38.117188 492.53125 38.816406 493.234375 39.867188 493.933594 C 40.566406 494.632812 41.613281 494.980469 42.316406 495.679688 C 43.363281 496.03125 44.414062 496.730469 45.113281 497.082031 L 47.5625 497.78125 C 53.507812 499.53125 59.457031 502.328125 65.402344 505.125 C 88.839844 516.320312 111.925781 530.3125 132.566406 546.054688 C 137.8125 549.902344 142.710938 554.101562 147.609375 558.648438 C 152.15625 563.195312 156.703125 567.742188 159.851562 572.988281 L 160.898438 575.089844 L 161.601562 576.835938 C 161.949219 577.539062 161.949219 578.238281 162.300781 579.285156 C 162.300781 579.636719 162.300781 580.683594 162.648438 581.035156 C 162.648438 582.433594 162.648438 583.484375 162.300781 584.535156 C 161.949219 585.582031 161.601562 586.28125 160.550781 586.632812 C 158.800781 587.683594 156.003906 588.03125 152.855469 588.03125 C 149.707031 588.03125 146.558594 587.332031 143.757812 586.632812 C 131.167969 584.183594 118.921875 578.9375 105.628906 575.789062 C 100.382812 574.390625 94.785156 570.542969 90.238281 566.34375 C 85.339844 562.144531 81.144531 557.597656 77.644531 552.351562 C 75.898438 549.902344 74.496094 547.105469 73.796875 544.304688 C 73.097656 541.507812 73.097656 539.058594 74.148438 537.660156 C 75.195312 535.910156 77.644531 534.859375 80.445312 534.511719 C 81.144531 534.511719 82.191406 534.160156 82.542969 534.160156 L 84.992188 533.8125 C 86.390625 533.8125 88.140625 533.460938 89.539062 533.8125 C 95.835938 533.8125 101.78125 535.210938 107.730469 537.308594 C 113.675781 539.757812 118.921875 542.90625 124.171875 546.753906 C 126.96875 548.503906 129.417969 550.601562 132.214844 552.699219 L 134.316406 554.101562 L 136.761719 555.5 C 137.464844 555.847656 138.164062 556.199219 139.210938 556.546875 C 139.910156 556.898438 140.960938 557.25 141.3125 557.597656 C 143.410156 558.648438 145.160156 560.746094 145.859375 563.542969 C 146.90625 565.992188 147.609375 569.140625 147.957031 572.289062 C 148.65625 578.585938 148.308594 584.882812 147.609375 591.179688 C 147.257812 594.328125 146.558594 597.476562 145.507812 600.625 C 145.160156 602.023438 144.808594 603.421875 144.109375 604.824219 L 143.410156 606.921875 C 143.058594 607.269531 143.058594 607.972656 142.710938 608.320312 C 141.3125 610.070312 138.511719 611.46875 135.714844 612.519531 C 132.914062 613.566406 129.765625 614.265625 126.617188 614.96875 C 120.324219 616.015625 114.027344 616.367188 107.730469 616.015625 C 101.433594 615.667969 94.785156 614.617188 89.890625 611.820312 C 89.1875 611.46875 88.839844 611.117188 88.488281 610.769531 C 87.789062 610.417969 88.140625 610.417969 87.441406 609.71875 C 86.742188 609.019531 87.089844 609.019531 86.390625 607.972656 C 86.042969 607.269531 85.691406 606.570312 85.691406 606.222656 C 84.992188 603.773438 84.640625 600.976562 85.691406 598.875 C 87.441406 594.328125 93.039062 591.179688 98.984375 589.78125 C 104.929688 588.03125 111.226562 587.683594 117.875 587.332031 C 121.023438 587.332031 124.171875 587.332031 127.320312 587.683594 C 128.71875 588.03125 130.117188 588.03125 131.167969 588.730469 C 131.515625 589.082031 132.214844 589.082031 132.214844 589.429688 C 132.566406 589.78125 132.566406 590.128906 132.914062 590.480469 C 133.617188 591.878906 133.617188 595.027344 132.914062 597.828125 C 132.214844 600.625 131.167969 603.773438 130.117188 606.570312 L 128.367188 611.117188 C 127.667969 612.519531 126.96875 613.917969 126.269531 615.316406 C 124.871094 618.117188 122.769531 620.5625 121.023438 623.363281 C 117.175781 628.609375 113.328125 633.855469 109.476562 639.453125 C 102.132812 650.648438 94.785156 662.890625 93.386719 677.234375 C 92.6875 684.230469 93.386719 691.574219 95.484375 698.222656 C 97.585938 704.867188 101.082031 711.164062 105.28125 716.761719 C 107.378906 719.558594 109.476562 722.359375 111.925781 724.808594 C 114.375 727.605469 116.472656 729.703125 118.921875 732.152344 C 124.171875 736.699219 129.765625 740.898438 136.0625 744.046875 C 148.65625 749.992188 161.949219 753.140625 175.59375 754.542969 C 189.234375 755.941406 202.527344 755.589844 215.820312 754.542969 C 242.40625 752.09375 268.640625 746.496094 294.527344 739.847656 C 307.472656 736.699219 320.0625 732.851562 333.007812 729.703125 C 336.15625 729.003906 339.304688 728.304688 342.453125 727.957031 C 344.199219 727.605469 345.949219 727.257812 347.699219 726.90625 C 349.449219 726.207031 351.199219 725.855469 352.945312 725.15625 C 359.59375 722.707031 365.539062 718.511719 370.785156 714.3125 C 381.28125 705.21875 389.328125 694.023438 396.671875 683.179688 C 400.171875 677.582031 404.019531 671.984375 407.167969 666.039062 C 411.015625 659.742188 412.765625 652.398438 413.113281 645.75 C 414.164062 631.757812 411.714844 618.464844 409.265625 605.171875 C 406.46875 592.230469 402.96875 579.285156 399.820312 566.34375 C 396.671875 553.398438 393.523438 540.808594 391.773438 527.863281 C 390.027344 514.921875 389.675781 501.628906 390.375 489.035156 C 391.425781 476.09375 393.875 463.5 398.773438 451.253906 C 401.21875 445.308594 403.667969 439.363281 406.816406 433.414062 L 411.363281 424.671875 C 412.0625 423.269531 412.765625 421.871094 413.8125 420.472656 C 414.863281 419.074219 415.210938 417.671875 416.261719 416.625 C 423.957031 406.828125 434.800781 399.132812 445.996094 392.488281 C 457.191406 385.839844 469.082031 379.894531 480.976562 374.648438 C 486.921875 371.847656 493.21875 369.398438 499.167969 366.953125 L 508.261719 363.101562 C 509.660156 362.402344 511.0625 362.054688 512.808594 361.355469 C 514.210938 361.003906 515.957031 360.65625 517.355469 360.304688 C 523.304688 359.253906 529.601562 359.605469 535.546875 362.054688 C 541.144531 364.152344 546.742188 368 550.9375 372.199219 C 551.988281 373.246094 553.039062 374.648438 554.085938 375.695312 C 554.4375 376.394531 555.136719 377.09375 555.488281 377.796875 C 556.1875 378.496094 556.535156 379.195312 556.535156 379.542969 C 557.933594 381.644531 558.636719 384.792969 558.984375 387.941406 C 559.683594 394.238281 559.335938 400.882812 558.636719 407.179688 C 557.234375 420.121094 554.785156 433.066406 552.339844 446.007812 C 549.890625 458.953125 546.742188 471.894531 543.941406 484.835938 C 542.542969 491.484375 541.144531 497.78125 540.09375 504.425781 C 539.046875 511.074219 537.644531 517.71875 537.996094 524.714844 C 539.394531 538.707031 547.089844 550.953125 555.835938 561.097656 C 564.929688 570.890625 575.425781 579.636719 588.019531 585.582031 C 589.417969 586.28125 591.167969 586.980469 592.917969 587.679688 C 594.664062 588.382812 596.066406 588.382812 597.8125 589.082031 C 600.261719 589.429688 603.0625 591.179688 605.507812 593.277344 C 610.40625 597.476562 614.605469 602.375 618.800781 607.269531 C 626.847656 617.414062 634.195312 628.609375 640.839844 640.152344 C 647.488281 651.695312 653.433594 663.242188 657.980469 675.484375 C 660.078125 681.429688 662.527344 688.425781 666.726562 693.675781 C 670.925781 699.269531 676.171875 703.820312 682.46875 706.96875 C 694.359375 713.613281 708.003906 716.0625 721.296875 716.761719 C 724.792969 716.761719 727.941406 717.113281 731.441406 716.761719 C 734.9375 716.410156 737.738281 716.410156 740.886719 717.460938 C 746.832031 719.210938 752.429688 722.707031 757.675781 726.554688 C 768.171875 734.601562 776.917969 744.746094 787.410156 752.792969 C 798.253906 760.488281 810.148438 766.785156 821.691406 773.429688 C 844.78125 786.375 868.21875 798.617188 892.003906 810.859375 L 891.65625 810.859375 C 897.949219 816.109375 903.898438 821.003906 910.195312 826.253906 C 916.140625 831.5 922.4375 836.746094 928.382812 841.992188 C 934.332031 847.242188 940.277344 852.839844 945.875 858.433594 C 951.472656 864.03125 957.070312 869.628906 963.015625 875.574219 C 968.613281 881.171875 974.210938 887.121094 980.507812 892.015625 C 986.804688 897.265625 993.449219 901.460938 1000.445312 905.660156 C 1007.441406 909.855469 1015.488281 911.957031 1023.183594 913.355469 C 1031.230469 914.753906 1039.273438 915.453125 1046.96875 916.152344 C 1063.0625 917.203125 1079.152344 917.203125 1095.242188 916.851562 C 1111.335938 916.503906 1127.425781 915.804688 1143.167969 914.753906 C 1177.097656 911.257812 1209.28125 908.457031 1241.113281 904.609375 Z M 1241.113281 904.609375 " fill-opacity="1" fill-rule="nonzero"/></g></svg>