<svg xmlns="http://www.w3.org/2000/svg" xmlns:xlink="http://www.w3.org/1999/xlink" width="1080" zoomAndPan="magnify" viewBox="0 0 810 809.999993" height="1080" preserveAspectRatio="xMidYMid meet" version="1.0"><path fill="current" d="M 685.902344 374.617188 C 685.597656 518.046875 591.527344 631.902344 457.183594 653.199219 C 415.800781 659.757812 373.507812 660.667969 334.546875 639.371094 C 326.269531 634.828125 320.316406 638.867188 313.855469 643.207031 C 283.375 663.59375 252.789062 683.78125 222.207031 703.96875 C 215.445312 708.410156 208.480469 712.851562 201.3125 716.585938 C 191.019531 722.035156 180.21875 728.898438 168.710938 720.722656 C 156.296875 711.941406 160.132812 699.125 162.65625 687.113281 C 170.730469 648.351562 179.511719 609.59375 193.945312 572.753906 C 201.820312 552.667969 199.496094 537.929688 187.890625 520.066406 C 121.980469 418.324219 131.164062 282.363281 210.5 190.414062 C 277.117188 113.199219 362.40625 81.101562 462.53125 100.78125 C 566.394531 121.171875 634.425781 186.375 670.660156 284.988281 C 681.761719 315.269531 686.609375 346.863281 685.902344 374.617188 Z M 200.101562 673.082031 C 201.214844 674.089844 202.324219 675.101562 203.433594 676.109375 C 232.503906 657.035156 261.875 638.261719 290.4375 618.578125 C 304.773438 608.6875 318.195312 605.757812 336.0625 610.097656 C 375.628906 619.890625 416 626.148438 456.980469 618.375 C 603.035156 591.023438 688.726562 437.097656 636.242188 293.265625 C 603.738281 204.242188 540.152344 147.414062 445.777344 132.878906 C 356.25 119.050781 281.558594 150.847656 226.144531 222.914062 C 162.453125 305.78125 159.324219 422.359375 217.664062 518.652344 C 228.0625 535.8125 229.980469 551.757812 225.4375 570.027344 C 216.957031 604.347656 208.480469 638.765625 200.101562 673.082031 Z M 200.101562 673.082031 " fill-opacity="1" fill-rule="nonzero"/><path fill="current" d="M 286.199219 303.15625 C 286.804688 285.390625 291.347656 268.535156 299.925781 253.195312 C 312.039062 231.390625 332.429688 229.070312 349.585938 246.734375 C 359.78125 257.132812 368.867188 268.433594 376.535156 280.851562 C 386.125 296.496094 389.050781 312.039062 377.648438 328.085938 C 370.882812 337.574219 373.207031 346.863281 378.859375 355.742188 C 391.171875 374.921875 405.503906 392.484375 422.261719 407.925781 C 434.976562 419.636719 449.714844 419.9375 464.046875 410.957031 C 478.683594 401.871094 492.914062 398.035156 507.246094 410.550781 C 524.507812 425.589844 542.269531 441.132812 538.03125 467.378906 C 535.207031 484.839844 520.773438 493.21875 506.136719 499.171875 C 467.277344 515.019531 429.929688 508.960938 397.429688 484.03125 C 346.355469 444.769531 311.636719 393.089844 290.238281 332.429688 C 286.90625 323.042969 285.695312 313.25 286.199219 303.15625 Z M 286.199219 303.15625 " fill-opacity="1" fill-rule="nonzero"/><path fill="current" d="M 596.171875 322.335938 C 582.242188 317.488281 574.671875 306.789062 569.421875 294.175781 C 552.464844 253.195312 527.128906 219.480469 487.765625 197.277344 C 483.023438 194.652344 475.957031 191.625 479.1875 184.257812 C 482.113281 177.59375 489.28125 179.308594 494.730469 180.320312 C 514.816406 184.15625 531.570312 194.449219 546.207031 208.277344 C 569.421875 230.28125 586.378906 256.425781 596.976562 286.605469 C 601.117188 298.515625 602.429688 310.222656 596.171875 322.234375 Z M 596.171875 322.335938 " fill-opacity="1" fill-rule="nonzero"/><path fill="current" d="M 622.515625 385.417969 C 621.910156 393.191406 620.292969 400.558594 611.210938 400.15625 C 602.628906 399.75 600.308594 392.382812 600.207031 385.117188 C 600.207031 378.253906 599.90625 369.371094 608.988281 368.867188 C 619.484375 368.261719 620.796875 377.847656 622.515625 385.417969 Z M 622.515625 385.417969 " fill-opacity="1" fill-rule="nonzero"/></svg>