<svg xmlns="http://www.w3.org/2000/svg" xmlns:xlink="http://www.w3.org/1999/xlink" width="1080" zoomAndPan="magnify" viewBox="0 0 810 809.999993" height="1080" preserveAspectRatio="xMidYMid meet" version="1.0"><path fill="current" d="M 685.464844 407.351562 L 797.234375 407.351562 L 797.234375 410.714844 L 685.464844 410.714844 Z M 685.464844 407.351562 " fill-opacity="1" fill-rule="nonzero"/><path fill="current" d="M 415.429688 401.632812 C 416.035156 401.160156 416.035156 400.285156 415.363281 399.882812 C 412.804688 398.402344 407.691406 395.171875 405.941406 392.210938 C 405.605469 391.671875 405 391.742188 404.664062 392.210938 C 402.847656 395.105469 397.664062 398.265625 395.175781 399.746094 C 394.503906 400.152344 394.503906 401.027344 395.109375 401.429688 C 399.480469 404.726562 402.375 415.15625 403.921875 418.789062 C 404.394531 419.933594 406.007812 419.933594 406.480469 418.789062 C 407.960938 415.292969 410.988281 404.929688 415.429688 401.632812 Z M 415.429688 401.632812 " fill-opacity="1" fill-rule="nonzero"/><path fill="current" d="M 488.101562 410.917969 C 490.1875 409.910156 492.007812 408.699219 493.6875 407.351562 C 507.75 404.792969 510.441406 391.605469 510.441406 391.605469 C 500.214844 392.277344 494.628906 399.746094 492.074219 404.324219 C 476.597656 418.320312 433.261719 410.648438 432.859375 410.582031 L 432.859375 410.785156 C 432.789062 410.785156 432.722656 410.714844 432.65625 410.714844 C 436.894531 407.621094 445.777344 402.238281 459.234375 400.421875 C 476.191406 398.066406 482.382812 389.316406 484.335938 385.75 C 486.691406 382.992188 490.121094 377.675781 488.171875 371.015625 C 488.171875 371.015625 481.171875 375.1875 481.710938 383.734375 C 480.566406 386.15625 475.25 394.835938 458.832031 397.125 C 456.074219 397.527344 453.582031 398.066406 451.160156 398.671875 C 453.046875 396.785156 454.863281 394.699219 455.9375 392.414062 C 458.160156 389.453125 460.714844 384.539062 458.964844 378.617188 C 458.964844 378.617188 451.765625 382.925781 452.507812 391.671875 C 449.546875 396.855469 442.144531 401.699219 442.078125 401.699219 C 434.808594 404.792969 430.167969 408.292969 428.417969 409.839844 C 422.765625 408.832031 417.988281 408.628906 414.421875 408.628906 C 413.882812 409.707031 413.34375 410.851562 412.871094 411.996094 C 424.042969 411.65625 453.917969 413.746094 476.460938 443.21875 C 479.085938 457.28125 492.074219 459.972656 492.074219 459.972656 C 491.398438 449.675781 483.863281 444.023438 479.355469 441.46875 C 469.394531 428.414062 458.089844 420.539062 447.390625 415.761719 C 450.890625 416.03125 454.726562 416.234375 458.695312 416.234375 C 468.320312 416.234375 478.75 415.15625 486.890625 411.589844 C 489.246094 415.15625 508.019531 442.074219 535.945312 436.890625 C 535.878906 436.824219 521.480469 405.199219 488.101562 410.917969 Z M 488.101562 410.917969 " fill-opacity="1" fill-rule="nonzero"/><path fill="current" d="M 663.527344 401.699219 C 658.011719 401.363281 653.234375 403.246094 651.414062 406.140625 C 649.464844 405.0625 645.496094 403.515625 638.898438 403.246094 C 641.121094 402.035156 643.273438 399.949219 645.023438 397.191406 C 647.648438 392.953125 648.1875 384.472656 648.320312 380.167969 C 648.320312 378.886719 647.042969 378.082031 645.964844 378.6875 C 642.128906 380.636719 634.796875 384.875 632.171875 389.117188 C 628.605469 394.769531 628.46875 401.09375 631.699219 403.515625 C 624.363281 404.324219 614.945312 406.613281 602.96875 411.996094 C 575.648438 424.175781 542.472656 407.148438 530.359375 399.882812 C 537.964844 399.140625 544.695312 395.644531 548.328125 393.488281 C 547.585938 392.683594 546.847656 391.808594 546.105469 390.933594 C 540.183594 394.5 526.257812 400.960938 515.019531 392.683594 C 514.953125 392.816406 514.816406 392.953125 514.816406 393.152344 C 514.277344 395.039062 514.546875 396.382812 514.546875 396.519531 C 517.644531 398.402344 520.804688 399.480469 523.96875 399.882812 C 527.535156 402.371094 569.523438 430.769531 604.378906 415.15625 C 637.753906 400.21875 650.40625 409.4375 650.742188 409.707031 C 651.414062 413.40625 656.328125 416.570312 662.652344 416.972656 C 667.632812 417.308594 675.371094 413.8125 679.207031 411.859375 C 680.351562 411.320312 680.417969 409.773438 679.40625 409.101562 C 675.707031 406.476562 668.574219 402.035156 663.527344 401.699219 Z M 663.527344 401.699219 " fill-opacity="1" fill-rule="nonzero"/><path fill="current" d="M 602.226562 421.820312 C 615.683594 438.976562 638.765625 432.71875 638.765625 432.71875 C 623.421875 412.601562 602.226562 421.820312 602.226562 421.820312 Z M 602.226562 421.820312 " fill-opacity="1" fill-rule="nonzero"/><path fill="current" d="M 583.925781 397.59375 C 562.054688 384.808594 546.039062 401.566406 546.039062 401.566406 C 565.015625 412.265625 583.925781 397.59375 583.925781 397.59375 Z M 583.925781 397.59375 " fill-opacity="1" fill-rule="nonzero"/><path fill="current" d="M 495.976562 385.683594 C 495.976562 385.683594 504.925781 387.367188 506.609375 368.59375 C 508.289062 349.820312 484.671875 351.769531 491.132812 364.757812 C 496.109375 374.984375 495.976562 385.683594 495.976562 385.683594 Z M 495.976562 385.683594 " fill-opacity="1" fill-rule="nonzero"/><path fill="current" d="M 520.132812 386.695312 C 527.46875 389.386719 527.132812 376.601562 517.171875 378.617188 C 507.214844 380.636719 508.625 385.28125 508.625 385.28125 C 508.625 385.28125 514.347656 384.609375 520.132812 386.695312 Z M 520.132812 386.695312 " fill-opacity="1" fill-rule="nonzero"/><path fill="current" d="M 12.765625 407.351562 L 124.535156 407.351562 L 124.535156 410.714844 L 12.765625 410.714844 Z M 12.765625 407.351562 " fill-opacity="1" fill-rule="nonzero"/><path fill="current" d="M 381.71875 409.839844 C 379.96875 408.292969 375.324219 404.792969 368.058594 401.699219 C 367.992188 401.632812 360.589844 396.789062 357.628906 391.671875 C 358.367188 382.925781 351.167969 378.617188 351.167969 378.617188 C 349.417969 384.539062 351.910156 389.453125 354.195312 392.414062 C 355.273438 394.632812 357.089844 396.789062 358.972656 398.671875 C 356.617188 398.066406 354.0625 397.527344 351.300781 397.125 C 334.882812 394.835938 329.636719 386.15625 328.425781 383.734375 C 328.894531 375.253906 321.964844 371.015625 321.964844 371.015625 C 320.011719 377.675781 323.445312 383.058594 325.800781 385.75 C 327.683594 389.316406 333.941406 398.066406 350.898438 400.421875 C 364.355469 402.304688 373.238281 407.621094 377.476562 410.714844 C 377.410156 410.714844 377.34375 410.785156 377.277344 410.785156 L 377.277344 410.582031 C 376.871094 410.648438 333.539062 418.320312 318.0625 404.324219 C 315.503906 399.746094 309.917969 392.277344 299.691406 391.605469 C 299.691406 391.605469 302.382812 404.792969 316.445312 407.351562 C 318.128906 408.699219 319.945312 409.910156 322.03125 410.917969 C 288.65625 405.199219 274.253906 436.824219 274.253906 436.824219 C 302.179688 442.007812 320.953125 415.089844 323.308594 411.523438 C 331.453125 415.089844 341.882812 416.167969 351.503906 416.167969 C 355.542969 416.167969 359.378906 415.964844 362.808594 415.695312 C 352.109375 420.472656 340.804688 428.347656 330.847656 441.398438 C 326.269531 443.890625 318.734375 449.542969 318.128906 459.90625 C 318.128906 459.90625 331.183594 457.214844 333.738281 443.148438 C 356.347656 413.746094 386.160156 411.589844 397.328125 411.925781 C 396.859375 410.785156 396.320312 409.640625 395.78125 408.5625 C 392.148438 408.628906 387.304688 408.832031 381.71875 409.839844 Z M 381.71875 409.839844 " fill-opacity="1" fill-rule="nonzero"/><path fill="current" d="M 295.519531 396.382812 C 295.519531 396.25 295.789062 394.902344 295.25 393.019531 C 295.183594 392.882812 295.117188 392.75 295.046875 392.546875 C 283.8125 400.824219 269.882812 394.296875 263.960938 390.796875 C 263.21875 391.742188 262.480469 392.546875 261.738281 393.355469 C 265.304688 395.507812 272.035156 399.007812 279.707031 399.746094 C 267.59375 407.015625 234.421875 424.105469 207.101562 411.859375 C 195.121094 406.542969 185.703125 404.1875 178.367188 403.382812 C 181.597656 400.960938 181.460938 394.703125 177.898438 388.980469 C 175.273438 384.742188 167.871094 380.503906 164.101562 378.550781 C 163.027344 377.945312 161.679688 378.753906 161.746094 380.03125 C 161.8125 384.339844 162.351562 392.816406 165.042969 397.054688 C 166.726562 399.816406 168.945312 401.902344 171.167969 403.113281 C 164.574219 403.3125 160.601562 404.929688 158.652344 406.007812 C 156.765625 403.113281 152.058594 401.226562 146.539062 401.566406 C 141.558594 401.902344 134.359375 406.410156 130.792969 408.832031 C 129.785156 409.503906 129.851562 411.050781 130.996094 411.589844 C 134.832031 413.542969 142.503906 417.042969 147.546875 416.703125 C 153.808594 416.300781 158.785156 413.140625 159.460938 409.4375 C 159.726562 409.234375 172.445312 400.015625 205.820312 414.886719 C 240.746094 430.5 282.667969 402.101562 286.234375 399.613281 C 289.261719 399.34375 292.425781 398.335938 295.519531 396.382812 Z M 295.519531 396.382812 " fill-opacity="1" fill-rule="nonzero"/><path fill="current" d="M 171.300781 432.789062 C 171.300781 432.789062 194.382812 439.046875 207.839844 421.886719 C 207.773438 421.820312 186.578125 412.601562 171.300781 432.789062 Z M 171.300781 432.789062 " fill-opacity="1" fill-rule="nonzero"/><path fill="current" d="M 263.960938 401.496094 C 263.960938 401.496094 247.878906 384.808594 226.074219 397.527344 C 226.074219 397.59375 244.984375 412.265625 263.960938 401.496094 Z M 263.960938 401.496094 " fill-opacity="1" fill-rule="nonzero"/><path fill="current" d="M 314.023438 385.683594 C 314.023438 385.683594 313.890625 374.917969 318.867188 364.757812 C 325.261719 351.769531 301.710938 349.820312 303.390625 368.59375 C 305.074219 387.433594 314.023438 385.683594 314.023438 385.683594 Z M 314.023438 385.683594 " fill-opacity="1" fill-rule="nonzero"/><path fill="current" d="M 289.867188 386.695312 C 295.652344 384.609375 301.375 385.347656 301.375 385.347656 C 301.375 385.347656 302.785156 380.636719 292.828125 378.6875 C 282.867188 376.601562 282.53125 389.316406 289.867188 386.695312 Z M 289.867188 386.695312 " fill-opacity="1" fill-rule="nonzero"/></svg>