<svg xmlns="http://www.w3.org/2000/svg" xmlns:xlink="http://www.w3.org/1999/xlink" width="1080" zoomAndPan="magnify" viewBox="0 0 810 809.999993" height="1080" preserveAspectRatio="xMidYMid meet" version="1.0"><defs><clipPath id="9e38a74581"><path d="M 0.816406 0 L 809.175781 0 L 809.175781 810 L 0.816406 810 Z M 0.816406 0 " clip-rule="nonzero"/></clipPath></defs><g clip-path="url(#9e38a74581)"><path fill="current" d="M 322.164062 771.183594 C 322.128906 771.566406 322.136719 771.953125 322.183594 772.335938 C 322.234375 772.722656 322.324219 773.097656 322.453125 773.460938 C 322.582031 773.828125 322.75 774.175781 322.957031 774.503906 C 323.160156 774.832031 323.398438 775.136719 323.667969 775.414062 C 323.9375 775.691406 324.234375 775.9375 324.558594 776.148438 C 324.882812 776.363281 325.226562 776.539062 325.585938 776.679688 C 325.949219 776.816406 326.320312 776.917969 326.703125 776.976562 C 327.085938 777.035156 327.472656 777.050781 327.859375 777.027344 C 331.324219 777.027344 333.386719 774.710938 333.203125 770.914062 C 333.019531 767.117188 330.90625 765.269531 327.292969 765.453125 C 323.679688 765.636719 322.164062 767.816406 322.164062 771.183594 Z M 392.921875 753.695312 C 396.453125 753.03125 396.019531 752.164062 394.585938 749.734375 C 390.558594 742.671875 386.742188 735.476562 382.246094 727.234375 L 407.910156 741.304688 C 410.640625 731.914062 413.355469 722.539062 416.234375 712.296875 C 419.148438 722.40625 421.816406 731.714844 424.5625 741.304688 L 449.007812 728.167969 L 449.609375 729.035156 C 445.496094 736.945312 441.382812 744.835938 437.152344 752.996094 C 446.898438 754.804688 456.507812 757.175781 465.976562 760.109375 C 456.601562 762.90625 448.910156 765.667969 441 767.386719 C 436.71875 768.300781 437.003906 769.417969 438.765625 772.480469 C 442.765625 779.359375 446.476562 786.402344 450.90625 794.445312 L 424.796875 780.824219 C 422.179688 790.898438 419.699219 800.441406 417.203125 809.984375 C 413.894531 801.929688 411.296875 793.652344 409.410156 785.152344 C 408.574219 781.289062 407.644531 781.390625 404.746094 783.023438 C 397.683594 787.003906 390.492188 790.734375 382.347656 795.09375 L 396.820312 769.035156 L 368.375 760.625 C 376.355469 757.601562 384.539062 755.292969 392.921875 753.695312 Z M 421.230469 38.785156 C 425.578125 43.78125 429.640625 48.992188 434.789062 55.320312 C 427.578125 52.839844 421.78125 51.40625 416.46875 48.875 C 412.355469 46.894531 411.90625 48.710938 411.089844 51.855469 C 409.292969 58.703125 407.210938 65.460938 404.996094 73.15625 C 402.464844 66.128906 400.484375 58.953125 399.050781 51.625 C 398.265625 48.128906 396.984375 47.445312 393.554688 48.777344 C 387.859375 50.976562 381.898438 52.574219 375.238281 54.703125 C 380.230469 48.84375 384.394531 43.648438 388.859375 38.703125 C 390.523438 36.851562 390.773438 36.171875 388.726562 34.171875 C 383.914062 29.527344 379.667969 24.296875 375.203125 19.300781 C 381.746094 20.203125 388.152344 21.699219 394.421875 23.78125 C 397.351562 24.695312 398.582031 23.929688 399.332031 20.933594 C 401 14.273438 403.097656 7.710938 405.34375 -0.015625 C 407.511719 7.726562 409.574219 14.238281 411.238281 20.832031 C 412.054688 24.0625 413.273438 25.0625 416.652344 23.847656 C 422.898438 21.617188 429.308594 19.832031 436.984375 17.453125 C 431.207031 23.898438 426.542969 29.390625 421.515625 34.554688 C 419.78125 36.304688 419.800781 37.019531 421.332031 38.785156 Z M 147.289062 184.847656 C 145.375 192.207031 141.546875 198.804688 137.300781 206.496094 C 135.949219 197.1875 132.601562 189.460938 133.003906 181.085938 C 133.117188 178.703125 131.738281 178.054688 129.9375 177.402344 C 122.992188 174.890625 117.097656 170.425781 109.457031 166.429688 C 117.5 165.113281 124.242188 163.265625 131.253906 163.332031 C 133.953125 163.332031 135.433594 162.765625 136.25 160 C 138.316406 153.339844 142.761719 147.746094 145.941406 140.617188 C 147.390625 147.996094 149.621094 154.257812 150.023438 160.882812 C 150.222656 164 151.6875 165.378906 154.566406 166.480469 C 160.796875 168.878906 166.839844 171.742188 173.703125 174.804688 C 166.425781 176.988281 160.164062 179.285156 153.484375 179.800781 C 153.121094 179.789062 152.757812 179.808594 152.398438 179.859375 C 152.035156 179.910156 151.683594 179.992188 151.335938 180.109375 C 150.992188 180.226562 150.660156 180.371094 150.339844 180.546875 C 150.019531 180.722656 149.71875 180.925781 149.4375 181.15625 C 149.152344 181.386719 148.894531 181.640625 148.65625 181.917969 C 148.417969 182.195312 148.210938 182.492188 148.027344 182.804688 C 147.84375 183.121094 147.691406 183.449219 147.566406 183.792969 C 147.441406 184.136719 147.351562 184.488281 147.289062 184.847656 Z M 21.5625 352.910156 C 23.542969 352.742188 24.507812 351.859375 24.976562 349.578125 C 26.390625 342.550781 30.238281 336.421875 32.785156 329.164062 C 35.148438 336.339844 38.179688 342.484375 39.347656 349.277344 C 39.382812 349.765625 39.503906 350.230469 39.714844 350.671875 C 39.925781 351.113281 40.207031 351.5 40.566406 351.835938 C 40.921875 352.171875 41.324219 352.429688 41.78125 352.613281 C 42.234375 352.792969 42.703125 352.886719 43.191406 352.894531 C 50.253906 353.792969 56.796875 356.523438 64.109375 359.019531 C 56.78125 362.21875 50.1875 365.5 42.941406 366.964844 C 41.113281 367.332031 40.179688 367.664062 39.945312 369.8125 C 39.046875 377.921875 35.847656 385.382812 32.734375 393.925781 C 29.554688 385.75 26.539062 378.472656 25.089844 370.726562 C 24.640625 368.414062 23.957031 367.496094 21.5625 366.964844 C 14.296875 365.144531 7.371094 362.457031 0.777344 358.90625 C 8.238281 356.90625 14.515625 353.527344 21.5625 352.910156 Z M 312.539062 314.742188 C 311.472656 310.3125 313.503906 306.964844 318.984375 305.117188 C 327.824219 302.117188 336.785156 299.46875 345.628906 296.539062 C 356.085938 293.09375 366.277344 294.339844 376.269531 298.089844 C 393.371094 304.515625 406.859375 316.707031 422.398438 326.546875 C 419.816406 327.164062 418.367188 325.863281 416.851562 325.097656 C 409.339844 321.234375 401.949219 317.15625 394.4375 313.324219 C 386.578125 309.296875 378.484375 305.898438 369.457031 305.214844 C 357.050781 304.265625 346.144531 308.546875 335.800781 314.808594 C 331.6875 317.304688 327.707031 320.253906 322.664062 320.734375 C 317.617188 321.21875 313.539062 318.871094 312.539062 314.742188 Z M 162.761719 644.46875 C 159.21875 641.570312 156.140625 638.242188 153.535156 634.476562 C 158.28125 635.527344 162.476562 636.394531 166.65625 637.375 C 168.921875 637.910156 170.15625 637.726562 170.605469 634.859375 C 171.320312 630.464844 172.703125 626.167969 173.933594 621.023438 C 175.601562 626.019531 177.265625 630.082031 178.398438 634.34375 C 179.199219 637.574219 180.546875 637.839844 183.394531 636.824219 C 187.390625 635.378906 191.539062 634.34375 196.601562 632.863281 C 192.988281 637.109375 190.089844 640.722656 186.992188 644.136719 C 185.324219 646.050781 185.324219 647.167969 187.457031 648.816406 C 191.039062 651.546875 194.320312 654.695312 197.734375 657.660156 L 196.535156 659.007812 C 192.203125 657.890625 187.789062 657.027344 183.59375 655.558594 C 180.914062 654.609375 180.347656 655.160156 179.847656 657.824219 C 179.03125 662.1875 177.566406 666.433594 176.066406 671.898438 C 174.402344 666.585938 172.738281 662.554688 171.855469 658.390625 C 171.171875 655.34375 169.921875 655.0625 167.390625 656.210938 C 163.210938 657.992188 158.929688 659.539062 153.503906 661.671875 C 157.265625 656.875 159.914062 652.960938 163.128906 649.582031 C 165.292969 647.351562 164.675781 646.300781 162.761719 644.46875 Z M 65.023438 483.484375 C 66.921875 481.652344 66.855469 480.488281 65.023438 478.6875 C 61.695312 475.457031 58.730469 472.027344 54.5 467.398438 C 60.296875 469.195312 64.492188 470.394531 68.753906 471.894531 C 71.238281 472.777344 72.085938 472.246094 72.886719 469.664062 C 74.300781 465.21875 74.765625 460.371094 77.679688 455.773438 C 79.03125 460.769531 80.277344 465.015625 81.34375 469.363281 C 81.996094 472.0625 83.011719 472.8125 85.875 471.660156 C 89.769531 470.128906 93.96875 469.347656 99.195312 467.914062 C 95.5 472.011719 92.785156 475.390625 89.65625 478.355469 C 87.289062 480.585938 86.625 482.054688 89.386719 484.585938 C 92.484375 487.433594 95.035156 490.878906 98.847656 495.226562 C 93.167969 493.34375 88.855469 492.128906 84.792969 490.496094 C 82.542969 489.613281 81.761719 489.832031 81.078125 492.292969 C 79.863281 496.757812 78.164062 501.070312 76.316406 506.484375 C 74.917969 501.136719 73.5 497.007812 72.835938 492.777344 C 72.320312 489.546875 71.171875 489.53125 68.554688 490.496094 C 64.390625 492.027344 60.0625 493.042969 54.417969 494.691406 C 58.597656 490.246094 61.660156 486.734375 65.023438 483.519531 Z M 315.769531 355.109375 C 316.332031 354.292969 317.039062 353.640625 317.890625 353.140625 C 318.746094 352.644531 319.664062 352.347656 320.648438 352.261719 C 325.261719 351.011719 327.859375 349.277344 325.992188 343.601562 C 324.894531 340.269531 326.144531 336.40625 328.640625 332.660156 C 328.640625 334.109375 328.640625 334.824219 328.640625 335.539062 C 327.84375 348.214844 330.308594 351.09375 343.164062 352.109375 C 358.300781 353.292969 372.355469 349.347656 385.859375 342.867188 C 387.277344 342.183594 388.542969 340.703125 390.457031 341.203125 C 389.339844 344 385.128906 345.316406 386.328125 348.195312 C 387.242188 350.394531 390.988281 350.460938 394.371094 351.527344 C 389.375 353.507812 385.542969 351.394531 381.53125 351.277344 C 382.164062 353.957031 385.179688 354.609375 386.328125 357.324219 L 377.75 355.175781 C 378.066406 356.988281 380.230469 357.339844 379.597656 359.371094 C 377.117188 358.90625 375.070312 356.207031 372.273438 357.707031 C 371.640625 359.835938 374.304688 361.1875 373.769531 363.566406 L 367.109375 358.886719 C 365.359375 360.371094 367.425781 362.21875 366.160156 363.535156 C 363.628906 363.785156 363.929688 360.085938 361.847656 360.035156 C 360.546875 362.117188 362.378906 364.851562 359.53125 366.699219 C 359.277344 364.515625 358.578125 362.480469 357.433594 360.601562 C 355.167969 361.867188 355.519531 365.066406 353.039062 365.980469 C 352.039062 364.316406 353.304688 361.886719 350.957031 360.804688 C 348.824219 362.183594 348.691406 365.234375 346.058594 366.613281 L 346.058594 359.953125 L 339.933594 365.78125 C 339 363.601562 341.796875 362.300781 340.347656 360.21875 L 335.269531 362.953125 C 337.019531 358.589844 336.800781 356.640625 332.1875 359.121094 C 331.132812 359.675781 330.007812 359.960938 328.8125 359.980469 C 327.621094 360.003906 326.484375 359.753906 325.410156 359.238281 C 326.808594 357.722656 328.972656 357.324219 329.742188 354.957031 L 315.800781 354.957031 Z M 73.484375 259.417969 C 76.671875 262.40625 79.695312 265.546875 82.5625 268.84375 C 78.304688 268.554688 74.203125 267.597656 70.253906 265.980469 C 66.921875 264.566406 66.339844 265.613281 65.742188 268.59375 C 64.957031 272.660156 63.609375 276.589844 62.226562 281.550781 L 56.847656 265.429688 C 51.769531 267.097656 47.15625 269.613281 41.210938 270.425781 C 44.457031 266.496094 47.074219 263.035156 50.019531 259.902344 C 52.070312 257.738281 52.320312 256.339844 49.804688 254.355469 C 46.210938 251.335938 43.101562 247.878906 40.480469 243.984375 C 45.375 245.363281 49.289062 246.515625 53.234375 247.578125 C 55.53125 248.210938 57.199219 248.328125 57.648438 244.964844 C 58.515625 240.429688 59.628906 235.957031 60.976562 231.542969 C 62.875 236.855469 64.527344 241 65.824219 245.265625 C 66.507812 247.5625 67.191406 248.0625 69.554688 247.078125 C 73.300781 245.515625 77.28125 244.5 82.511719 242.800781 C 78.863281 247.28125 76.332031 250.777344 73.367188 253.875 C 71.269531 256.074219 70.988281 257.289062 73.484375 259.417969 Z M 517.820312 727.136719 C 516.472656 723.042969 515.449219 718.875 514.738281 714.628906 C 515.238281 714.710938 515.472656 714.628906 515.585938 714.761719 C 519.402344 718.292969 522.949219 724.253906 527.113281 724.753906 C 531.273438 725.253906 536.402344 720.441406 542.398438 717.257812 C 539.933594 722.074219 538.300781 725.585938 536.304688 729.035156 C 534.804688 731.566406 534.523438 733.097656 537.4375 735.078125 C 541.214844 737.660156 544.398438 741.105469 548.710938 744.953125 C 543.03125 743.921875 538.550781 743.40625 534.253906 742.238281 C 531.308594 741.421875 530.292969 741.824219 529.359375 744.921875 C 528.109375 749.050781 527.445312 753.546875 524.597656 757.511719 C 523.648438 752.429688 522.582031 747.851562 522.050781 743.222656 C 521.75 740.691406 520.601562 740.425781 518.535156 740.472656 C 514.003906 740.589844 509.460938 740.472656 503.546875 740.472656 C 508.144531 737.558594 511.492188 735.226562 515.039062 733.246094 C 517.636719 731.796875 519.183594 730.664062 517.820312 727.136719 Z M 296.785156 66.011719 C 296.25 69.644531 301.582031 71.742188 303.296875 75.320312 L 303.546875 75.9375 C 299.816406 75.9375 296.667969 72.007812 293.4375 73.273438 C 290.207031 74.539062 291.140625 79.535156 289.375 82.5 C 289.273438 82.664062 288.824219 82.632812 288.425781 82.730469 C 286.59375 79.71875 287.640625 74.707031 284.476562 73.289062 C 281.3125 71.875 278.050781 75.65625 272.371094 76.070312 C 281.496094 69.960938 282.863281 64.046875 274.753906 57.953125 C 274.601562 57.835938 274.753906 57.351562 274.753906 56.9375 C 278.347656 56.9375 282.144531 60.785156 284.746094 58.867188 C 287.34375 56.953125 287.542969 52.625 289.023438 48.777344 C 290.507812 52.738281 290.824219 57.371094 293.1875 58.933594 C 295.867188 60.734375 299.847656 57.269531 304.160156 56.902344 C 301.230469 60.21875 297.183594 62.847656 296.734375 65.996094 Z M 290.855469 412.394531 C 285.859375 409.378906 280.082031 408.5625 273.652344 406.648438 C 283.644531 404.484375 294.019531 408.082031 298.5 414.574219 C 299 415.328125 299.429688 416.117188 299.785156 416.945312 C 300.144531 417.773438 300.425781 418.625 300.628906 419.503906 C 300.832031 420.382812 300.957031 421.273438 301 422.175781 C 301.042969 423.074219 301.003906 423.972656 300.882812 424.867188 C 300.765625 425.761719 300.566406 426.640625 300.289062 427.496094 C 300.011719 428.355469 299.660156 429.183594 299.230469 429.976562 C 298.804688 430.773438 298.308594 431.523438 297.746094 432.226562 C 297.1875 432.933594 296.566406 433.582031 295.886719 434.175781 C 290.207031 438.820312 283.761719 438.257812 278.234375 432.226562 C 276.4375 430.191406 274.351562 428.519531 271.96875 427.210938 C 269.589844 425.90625 267.058594 425.039062 264.378906 424.617188 C 260.414062 423.949219 256.25 423.085938 252.953125 419.621094 C 257.191406 420.425781 261.4375 420.472656 265.691406 419.769531 C 272.570312 418.972656 278.332031 420.71875 281.195312 427.714844 C 282.695312 431.378906 285.242188 431.929688 288.609375 430.796875 C 292.605469 429.445312 295.535156 427.097656 296.300781 422.636719 C 297.066406 417.671875 294.667969 414.660156 290.804688 412.3125 Z M 722.582031 199.234375 C 718.96875 198.171875 715.355469 195.90625 712.707031 196.65625 C 709.378906 197.6875 711.175781 203.316406 708.128906 206.347656 C 705.398438 196.355469 705.398438 196.355469 693.824219 198.738281 C 703.816406 192.773438 700.867188 186.914062 694.308594 180.601562 C 698.070312 181.734375 701.71875 184.132812 704.300781 183.28125 C 707.328125 182.316406 706.546875 177.289062 708.296875 174.40625 C 708.460938 174.140625 708.863281 174.007812 709.144531 173.808594 C 710.328125 176.972656 710.644531 181.417969 712.910156 182.933594 C 715.171875 184.449219 719.238281 181.382812 723.617188 181.152344 C 713.875 186.730469 716.820312 192.675781 722.535156 199.085938 Z M 770.496094 408.230469 C 766.414062 411.5625 761.683594 414.109375 767.664062 419.753906 C 758.96875 415.589844 759.171875 423.234375 756.007812 427.53125 C 753.660156 422.785156 752.777344 416.574219 745.03125 419.4375 C 750.945312 413.625 744.582031 411.828125 742.21875 408.53125 C 746.546875 407.546875 751.660156 407.664062 749.511719 399.6875 C 753.757812 404.300781 757.070312 403.933594 760.851562 399.386719 C 759.652344 407.496094 764.882812 407.449219 770.496094 408.230469 Z M 548.808594 110.277344 C 540.085938 106.414062 539.066406 113.089844 536.386719 118.285156 C 534.371094 112.257812 532.605469 106.960938 524.863281 110.890625 C 525.929688 107.011719 529.644531 106.164062 529.027344 103.464844 C 528.492188 101.050781 525.128906 100.019531 524.613281 97.304688 C 527.394531 95.871094 530.074219 98.753906 532.65625 96.804688 C 534.871094 95.136719 534.1875 91.65625 537.453125 89.777344 C 538.285156 96.71875 542.449219 98.601562 550.140625 96.289062 C 545.511719 101.316406 542.132812 105.195312 548.808594 110.277344 Z M 223.277344 134.890625 C 222.628906 134.882812 221.984375 134.8125 221.347656 134.683594 C 220.710938 134.554688 220.089844 134.367188 219.488281 134.121094 C 218.886719 133.875 218.3125 133.578125 217.765625 133.222656 C 217.222656 132.867188 216.714844 132.46875 216.242188 132.015625 C 215.773438 131.566406 215.351562 131.078125 214.972656 130.546875 C 214.597656 130.019531 214.269531 129.457031 214 128.867188 C 213.726562 128.277344 213.515625 127.664062 213.359375 127.035156 C 213.203125 126.402344 213.105469 125.761719 213.070312 125.113281 C 213.070312 124.464844 213.132812 123.820312 213.257812 123.179688 C 213.382812 122.542969 213.570312 121.921875 213.816406 121.320312 C 214.0625 120.71875 214.367188 120.144531 214.726562 119.605469 C 215.085938 119.0625 215.492188 118.558594 215.949219 118.09375 C 216.40625 117.632812 216.902344 117.21875 217.441406 116.851562 C 217.980469 116.484375 218.546875 116.175781 219.144531 115.921875 C 219.742188 115.664062 220.363281 115.472656 221 115.335938 C 221.632812 115.203125 222.277344 115.128906 222.929688 115.121094 C 223.59375 115.085938 224.253906 115.117188 224.910156 115.210938 C 225.570312 115.308594 226.210938 115.472656 226.835938 115.699219 C 227.460938 115.921875 228.058594 116.210938 228.625 116.558594 C 229.191406 116.902344 229.71875 117.304688 230.207031 117.753906 C 230.691406 118.207031 231.128906 118.707031 231.515625 119.246094 C 231.902344 119.789062 232.230469 120.363281 232.503906 120.96875 C 232.773438 121.574219 232.980469 122.203125 233.125 122.851562 C 233.269531 123.503906 233.347656 124.160156 233.359375 124.824219 C 233.371094 125.488281 233.316406 126.148438 233.195312 126.800781 C 233.074219 127.457031 232.890625 128.089844 232.640625 128.707031 C 232.390625 129.324219 232.082031 129.910156 231.714844 130.464844 C 231.347656 131.015625 230.929688 131.53125 230.457031 132 C 229.988281 132.46875 229.476562 132.886719 228.921875 133.253906 C 228.367188 133.621094 227.78125 133.925781 227.164062 134.175781 C 226.546875 134.425781 225.910156 134.609375 225.257812 134.726562 C 224.601562 134.847656 223.941406 134.902344 223.277344 134.890625 Z M 239.714844 233.140625 C 243.554688 240.28125 246.886719 247.65625 249.707031 255.257812 C 250.878906 258.300781 251.640625 261.445312 251.984375 264.691406 C 252.328125 267.933594 252.246094 271.167969 251.738281 274.390625 C 251.566406 275.476562 251.308594 276.542969 250.960938 277.585938 C 250.609375 278.628906 250.179688 279.636719 249.664062 280.605469 C 249.144531 281.578125 248.554688 282.5 247.882812 283.371094 C 247.214844 284.246094 246.476562 285.054688 245.671875 285.804688 C 244.867188 286.554688 244.003906 287.234375 243.085938 287.839844 C 242.167969 288.445312 241.207031 288.972656 240.203125 289.417969 C 239.195312 289.863281 238.160156 290.222656 237.09375 290.496094 C 236.03125 290.769531 234.949219 290.949219 233.851562 291.042969 C 242.84375 287.28125 245.808594 280.535156 246.890625 272.726562 C 247.515625 266.914062 247.054688 261.191406 245.511719 255.554688 C 243.710938 248.027344 241.695312 240.570312 239.714844 233.140625 Z M 699.152344 609.847656 C 703.515625 609.964844 706.148438 612.164062 706.28125 616.34375 C 706.339844 616.792969 706.347656 617.242188 706.304688 617.695312 C 706.265625 618.144531 706.175781 618.585938 706.039062 619.019531 C 705.898438 619.449219 705.71875 619.863281 705.488281 620.253906 C 705.261719 620.644531 704.996094 621.007812 704.6875 621.339844 C 704.378906 621.675781 704.039062 621.96875 703.667969 622.230469 C 703.296875 622.488281 702.902344 622.703125 702.484375 622.875 C 702.0625 623.046875 701.632812 623.171875 701.183594 623.25 C 700.738281 623.328125 700.289062 623.359375 699.835938 623.335938 C 699.378906 623.382812 698.925781 623.382812 698.46875 623.335938 C 698.015625 623.289062 697.566406 623.195312 697.132812 623.058594 C 696.695312 622.917969 696.277344 622.738281 695.875 622.515625 C 695.476562 622.292969 695.101562 622.03125 694.757812 621.734375 C 694.410156 621.4375 694.09375 621.105469 693.816406 620.742188 C 693.535156 620.382812 693.296875 619.996094 693.09375 619.582031 C 692.890625 619.171875 692.734375 618.746094 692.621094 618.300781 C 692.503906 617.859375 692.4375 617.410156 692.414062 616.949219 C 692.390625 616.492188 692.414062 616.039062 692.480469 615.585938 C 692.550781 615.132812 692.664062 614.691406 692.824219 614.261719 C 692.984375 613.835938 693.183594 613.425781 693.425781 613.035156 C 693.667969 612.648438 693.945312 612.289062 694.261719 611.957031 C 694.578125 611.625 694.921875 611.328125 695.296875 611.0625 C 695.671875 610.800781 696.070312 610.582031 696.492188 610.398438 C 696.910156 610.21875 697.347656 610.082031 697.792969 609.988281 C 698.242188 609.894531 698.695312 609.847656 699.152344 609.847656 Z M 773.207031 336.390625 C 772.773438 336.433594 772.339844 336.433594 771.90625 336.382812 C 771.472656 336.335938 771.050781 336.242188 770.636719 336.101562 C 770.222656 335.957031 769.828125 335.777344 769.457031 335.550781 C 769.082031 335.324219 768.738281 335.058594 768.421875 334.761719 C 768.105469 334.460938 767.824219 334.128906 767.578125 333.765625 C 767.335938 333.40625 767.132812 333.023438 766.96875 332.617188 C 766.808594 332.210938 766.691406 331.792969 766.621094 331.363281 C 766.550781 330.929688 766.523438 330.496094 766.546875 330.0625 C 766.507812 329.632812 766.515625 329.203125 766.566406 328.777344 C 766.621094 328.347656 766.71875 327.929688 766.867188 327.523438 C 767.011719 327.117188 767.199219 326.734375 767.425781 326.367188 C 767.65625 326.003906 767.921875 325.667969 768.226562 325.363281 C 768.53125 325.054688 768.863281 324.785156 769.226562 324.550781 C 769.589844 324.316406 769.972656 324.125 770.375 323.976562 C 770.78125 323.828125 771.195312 323.726562 771.625 323.667969 C 772.050781 323.609375 772.480469 323.597656 772.910156 323.632812 C 777.15625 323.515625 779.019531 325.914062 779.421875 329.746094 C 779.464844 330.175781 779.464844 330.601562 779.414062 331.03125 C 779.367188 331.460938 779.277344 331.878906 779.136719 332.285156 C 779 332.695312 778.820312 333.085938 778.601562 333.453125 C 778.378906 333.824219 778.121094 334.167969 777.828125 334.480469 C 777.535156 334.796875 777.210938 335.078125 776.855469 335.324219 C 776.5 335.566406 776.125 335.773438 775.726562 335.9375 C 775.328125 336.101562 774.914062 336.222656 774.492188 336.296875 C 774.066406 336.375 773.640625 336.40625 773.207031 336.390625 Z M 613.941406 94.707031 C 613.554688 94.746094 613.167969 94.75 612.785156 94.710938 C 612.398438 94.671875 612.019531 94.59375 611.652344 94.476562 C 611.28125 94.355469 610.929688 94.203125 610.589844 94.011719 C 610.253906 93.820312 609.941406 93.59375 609.652344 93.335938 C 609.359375 93.082031 609.101562 92.796875 608.871094 92.484375 C 608.640625 92.171875 608.441406 91.839844 608.28125 91.488281 C 608.121094 91.136719 607.996094 90.769531 607.914062 90.390625 C 607.828125 90.015625 607.78125 89.632812 607.777344 89.242188 C 607.460938 85.496094 609.644531 83.25 613.242188 82.582031 C 617.335938 82.75 619.402344 84.964844 619.503906 88.695312 C 619.550781 89.082031 619.5625 89.46875 619.527344 89.859375 C 619.492188 90.246094 619.414062 90.628906 619.296875 91 C 619.175781 91.375 619.019531 91.726562 618.824219 92.066406 C 618.625 92.402344 618.394531 92.714844 618.128906 93.003906 C 617.863281 93.289062 617.570312 93.542969 617.25 93.765625 C 616.929688 93.988281 616.585938 94.171875 616.222656 94.320312 C 615.863281 94.46875 615.488281 94.574219 615.101562 94.636719 C 614.71875 94.703125 614.332031 94.726562 613.941406 94.707031 Z M 399.367188 425.566406 C 399.339844 425.949219 399.277344 426.328125 399.175781 426.695312 C 399.074219 427.066406 398.9375 427.425781 398.765625 427.769531 C 398.59375 428.113281 398.390625 428.4375 398.15625 428.738281 C 397.921875 429.042969 397.660156 429.324219 397.371094 429.574219 C 397.082031 429.828125 396.769531 430.046875 396.4375 430.238281 C 396.105469 430.429688 395.753906 430.589844 395.390625 430.710938 C 395.027344 430.832031 394.65625 430.917969 394.273438 430.96875 C 393.894531 431.019531 393.511719 431.03125 393.128906 431.003906 C 392.746094 430.980469 392.367188 430.917969 391.996094 430.816406 C 391.625 430.71875 391.269531 430.582031 390.925781 430.414062 C 390.578125 430.242188 390.253906 430.039062 389.949219 429.804688 C 389.644531 429.574219 389.367188 429.3125 389.113281 429.023438 C 388.859375 428.734375 388.636719 428.421875 388.445312 428.089844 C 388.253906 427.757812 388.09375 427.410156 387.96875 427.046875 C 387.847656 426.683594 387.757812 426.3125 387.707031 425.929688 C 387.65625 425.550781 387.644531 425.167969 387.667969 424.785156 C 387.695312 424.402344 387.753906 424.023438 387.851562 423.652344 C 387.953125 423.28125 388.085938 422.921875 388.253906 422.578125 C 388.421875 422.234375 388.625 421.910156 388.855469 421.601562 C 389.089844 421.296875 389.351562 421.019531 389.636719 420.761719 C 389.925781 420.507812 390.234375 420.285156 390.566406 420.089844 C 390.898438 419.898438 391.246094 419.738281 391.609375 419.613281 C 391.972656 419.488281 392.34375 419.398438 392.726562 419.347656 C 393.105469 419.296875 393.488281 419.28125 393.871094 419.304688 C 397.402344 419.488281 399.25 421.804688 399.367188 425.566406 Z M 339.582031 395.589844 C 342.664062 396.242188 344.976562 397.554688 345.0625 401.167969 C 345.113281 401.53125 345.121094 401.894531 345.09375 402.257812 C 345.0625 402.625 344.996094 402.980469 344.886719 403.328125 C 344.777344 403.679688 344.636719 404.011719 344.453125 404.328125 C 344.273438 404.644531 344.058594 404.941406 343.816406 405.210938 C 343.570312 405.480469 343.296875 405.722656 343 405.933594 C 342.703125 406.144531 342.382812 406.320312 342.046875 406.460938 C 341.710938 406.605469 341.363281 406.707031 341.003906 406.773438 C 340.644531 406.835938 340.28125 406.863281 339.914062 406.847656 C 339.53125 406.894531 339.144531 406.902344 338.757812 406.863281 C 338.371094 406.824219 337.996094 406.742188 337.628906 406.617188 C 337.261719 406.496094 336.910156 406.332031 336.578125 406.132812 C 336.246094 405.929688 335.941406 405.695312 335.664062 405.425781 C 335.382812 405.15625 335.140625 404.855469 334.925781 404.53125 C 334.714844 404.207031 334.542969 403.863281 334.40625 403.5 C 334.273438 403.136719 334.179688 402.761719 334.128906 402.375 C 334.078125 401.992188 334.070312 401.605469 334.105469 401.21875 C 334.171875 397.6875 336.46875 396.242188 339.632812 395.589844 Z M 713.859375 236.273438 C 713.90625 236.632812 713.917969 236.996094 713.890625 237.355469 C 713.859375 237.71875 713.792969 238.074219 713.683594 238.421875 C 713.578125 238.769531 713.4375 239.101562 713.257812 239.417969 C 713.078125 239.738281 712.867188 240.03125 712.621094 240.300781 C 712.378906 240.570312 712.109375 240.8125 711.8125 241.023438 C 711.515625 241.234375 711.199219 241.410156 710.867188 241.554688 C 710.53125 241.695312 710.183594 241.800781 709.828125 241.867188 C 709.46875 241.933594 709.109375 241.960938 708.746094 241.949219 C 708.363281 241.988281 707.984375 241.984375 707.601562 241.9375 C 707.222656 241.890625 706.851562 241.804688 706.492188 241.679688 C 706.128906 241.550781 705.785156 241.386719 705.460938 241.1875 C 705.136719 240.984375 704.835938 240.75 704.5625 240.484375 C 704.285156 240.214844 704.042969 239.921875 703.832031 239.601562 C 703.625 239.28125 703.449219 238.941406 703.3125 238.585938 C 703.179688 238.226562 703.082031 237.859375 703.027344 237.480469 C 702.96875 237.101562 702.957031 236.722656 702.984375 236.339844 C 702.984375 232.839844 705.230469 231.34375 708.246094 230.792969 C 711.59375 231.191406 713.707031 233.140625 713.859375 236.273438 Z M 235.800781 66.613281 C 232.785156 65.980469 230.390625 64.347656 230.40625 61 C 230.386719 60.65625 230.40625 60.316406 230.460938 59.976562 C 230.511719 59.636719 230.597656 59.308594 230.71875 58.988281 C 230.839844 58.667969 230.992188 58.359375 231.175781 58.070312 C 231.363281 57.78125 231.574219 57.515625 231.8125 57.269531 C 232.050781 57.023438 232.3125 56.800781 232.597656 56.609375 C 232.878906 56.417969 233.183594 56.257812 233.5 56.125 C 233.816406 55.996094 234.144531 55.898438 234.480469 55.835938 C 234.816406 55.773438 235.160156 55.746094 235.5 55.753906 C 238.832031 55.753906 240.796875 57.753906 240.945312 61.183594 C 241.097656 64.613281 238.765625 65.8125 235.800781 66.613281 Z M 205.34375 210.609375 C 202.261719 210.792969 200.582031 208.578125 199.996094 205.613281 C 200.265625 202.566406 201.828125 200.335938 204.894531 200.234375 C 205.226562 200.234375 205.558594 200.261719 205.882812 200.324219 C 206.210938 200.386719 206.53125 200.476562 206.839844 200.597656 C 207.148438 200.722656 207.445312 200.871094 207.726562 201.050781 C 208.007812 201.230469 208.269531 201.4375 208.507812 201.664062 C 208.75 201.894531 208.96875 202.144531 209.160156 202.417969 C 209.355469 202.6875 209.519531 202.976562 209.660156 203.28125 C 209.796875 203.582031 209.902344 203.898438 209.980469 204.21875 C 210.058594 204.542969 210.105469 204.871094 210.121094 205.207031 C 210.132812 205.539062 210.117188 205.871094 210.066406 206.199219 C 210.019531 206.527344 209.9375 206.851562 209.828125 207.164062 C 209.714844 207.480469 209.574219 207.78125 209.40625 208.066406 C 209.238281 208.355469 209.042969 208.621094 208.820312 208.871094 C 208.601562 209.121094 208.359375 209.347656 208.09375 209.550781 C 207.832031 209.753906 207.550781 209.929688 207.25 210.078125 C 206.953125 210.226562 206.644531 210.347656 206.324219 210.4375 C 206 210.527344 205.675781 210.582031 205.34375 210.609375 Z M 108.589844 584.003906 C 108.902344 583.960938 109.214844 583.957031 109.527344 583.988281 C 109.84375 584.015625 110.148438 584.082031 110.449219 584.179688 C 110.746094 584.28125 111.03125 584.414062 111.300781 584.578125 C 111.570312 584.742188 111.816406 584.933594 112.042969 585.15625 C 112.265625 585.375 112.464844 585.617188 112.636719 585.882812 C 112.804688 586.148438 112.945312 586.429688 113.050781 586.726562 C 113.15625 587.023438 113.226562 587.328125 113.265625 587.640625 C 113.300781 587.957031 113.304688 588.269531 113.269531 588.582031 C 113.304688 588.875 113.304688 589.164062 113.273438 589.457031 C 113.246094 589.75 113.183594 590.035156 113.089844 590.3125 C 112.992188 590.589844 112.871094 590.855469 112.714844 591.105469 C 112.5625 591.355469 112.382812 591.585938 112.175781 591.796875 C 111.972656 592.007812 111.746094 592.191406 111.5 592.351562 C 111.253906 592.511719 110.992188 592.640625 110.714844 592.742188 C 110.441406 592.84375 110.15625 592.910156 109.863281 592.949219 C 109.574219 592.984375 109.28125 592.988281 108.988281 592.960938 C 105.957031 592.960938 104.574219 591.128906 103.992188 588.132812 C 104.691406 585.96875 105.691406 584.050781 108.589844 584.003906 Z M 89.605469 212.042969 C 89.316406 212.066406 89.027344 212.0625 88.738281 212.027344 C 88.449219 211.996094 88.164062 211.933594 87.886719 211.84375 C 87.613281 211.753906 87.347656 211.636719 87.09375 211.496094 C 86.839844 211.351562 86.601562 211.1875 86.382812 210.996094 C 86.160156 210.804688 85.960938 210.597656 85.785156 210.367188 C 85.605469 210.136719 85.449219 209.894531 85.320312 209.632812 C 85.191406 209.371094 85.089844 209.101562 85.011719 208.820312 C 84.9375 208.539062 84.890625 208.253906 84.871094 207.964844 C 84.851562 207.675781 84.859375 207.386719 84.898438 207.097656 C 84.9375 206.808594 85.003906 206.527344 85.097656 206.25 C 85.195312 205.976562 85.316406 205.714844 85.460938 205.464844 C 85.609375 205.210938 85.78125 204.976562 85.972656 204.761719 C 86.167969 204.542969 86.378906 204.347656 86.613281 204.175781 C 86.84375 204 87.09375 203.847656 87.355469 203.722656 C 87.617188 203.597656 87.890625 203.5 88.171875 203.429688 C 88.453125 203.359375 88.742188 203.316406 89.03125 203.304688 C 89.320312 203.289062 89.609375 203.304688 89.898438 203.347656 C 90.1875 203.390625 90.464844 203.460938 90.738281 203.5625 C 91.011719 203.660156 91.273438 203.789062 91.523438 203.9375 C 91.769531 204.089844 92 204.265625 92.214844 204.460938 C 92.429688 204.660156 92.621094 204.875 92.789062 205.113281 C 92.960938 205.347656 93.105469 205.597656 93.226562 205.863281 C 93.347656 206.128906 93.441406 206.402344 93.507812 206.683594 C 93.570312 206.96875 93.609375 207.253906 93.617188 207.546875 C 93.675781 207.832031 93.695312 208.121094 93.6875 208.414062 C 93.675781 208.703125 93.632812 208.992188 93.554688 209.273438 C 93.476562 209.554688 93.371094 209.824219 93.230469 210.082031 C 93.089844 210.335938 92.921875 210.574219 92.730469 210.792969 C 92.535156 211.007812 92.316406 211.203125 92.078125 211.371094 C 91.839844 211.535156 91.585938 211.675781 91.3125 211.785156 C 91.042969 211.890625 90.761719 211.96875 90.472656 212.011719 C 90.1875 212.054688 89.894531 212.066406 89.605469 212.042969 Z M 344.394531 53.839844 C 344.09375 53.859375 343.792969 53.847656 343.496094 53.804688 C 343.195312 53.761719 342.90625 53.6875 342.621094 53.582031 C 342.339844 53.476562 342.070312 53.339844 341.816406 53.175781 C 341.5625 53.011719 341.328125 52.824219 341.117188 52.609375 C 340.902344 52.394531 340.714844 52.160156 340.550781 51.90625 C 340.390625 51.652344 340.253906 51.382812 340.148438 51.101562 C 340.046875 50.816406 339.972656 50.527344 339.929688 50.226562 C 339.886719 49.925781 339.875 49.628906 339.898438 49.324219 C 339.875 49.050781 339.882812 48.78125 339.917969 48.507812 C 339.953125 48.234375 340.015625 47.96875 340.109375 47.710938 C 340.199219 47.453125 340.316406 47.207031 340.460938 46.972656 C 340.605469 46.738281 340.773438 46.523438 340.960938 46.324219 C 341.152344 46.125 341.359375 45.949219 341.585938 45.796875 C 341.8125 45.640625 342.054688 45.515625 342.308594 45.410156 C 342.5625 45.308594 342.824219 45.234375 343.09375 45.183594 C 343.367188 45.136719 343.636719 45.121094 343.914062 45.128906 C 344.207031 45.117188 344.5 45.140625 344.792969 45.191406 C 345.085938 45.242188 345.367188 45.324219 345.640625 45.4375 C 345.914062 45.550781 346.175781 45.6875 346.417969 45.855469 C 346.664062 46.023438 346.886719 46.214844 347.089844 46.429688 C 347.292969 46.644531 347.472656 46.878906 347.625 47.132812 C 347.777344 47.386719 347.902344 47.652344 348 47.933594 C 348.09375 48.210938 348.160156 48.5 348.195312 48.792969 C 348.230469 49.085938 348.234375 49.382812 348.207031 49.675781 C 348.226562 49.933594 348.214844 50.191406 348.179688 50.449219 C 348.144531 50.707031 348.085938 50.957031 348 51.203125 C 347.914062 51.445312 347.804688 51.679688 347.671875 51.902344 C 347.539062 52.125 347.382812 52.332031 347.207031 52.523438 C 347.035156 52.714844 346.839844 52.886719 346.632812 53.039062 C 346.421875 53.191406 346.199219 53.320312 345.960938 53.429688 C 345.726562 53.535156 345.480469 53.617188 345.230469 53.675781 C 344.976562 53.734375 344.722656 53.765625 344.460938 53.773438 Z M 545.363281 64.332031 C 545.089844 64.324219 544.820312 64.289062 544.554688 64.226562 C 544.289062 64.164062 544.03125 64.074219 543.785156 63.960938 C 543.535156 63.84375 543.304688 63.703125 543.085938 63.539062 C 542.867188 63.375 542.667969 63.1875 542.488281 62.980469 C 542.308594 62.777344 542.152344 62.554688 542.019531 62.316406 C 541.886719 62.078125 541.78125 61.828125 541.699219 61.566406 C 541.617188 61.304688 541.566406 61.039062 541.539062 60.765625 C 541.515625 60.492188 541.519531 60.222656 541.550781 59.949219 C 541.558594 59.414062 541.667969 58.898438 541.871094 58.40625 C 542.078125 57.910156 542.367188 57.472656 542.738281 57.085938 C 543.113281 56.703125 543.542969 56.398438 544.03125 56.175781 C 544.515625 55.957031 545.027344 55.832031 545.5625 55.804688 C 546.113281 55.8125 546.644531 55.921875 547.152344 56.132812 C 547.660156 56.347656 548.113281 56.644531 548.507812 57.03125 C 548.898438 57.417969 549.207031 57.863281 549.429688 58.367188 C 549.652344 58.871094 549.773438 59.398438 549.792969 59.949219 C 549.832031 60.246094 549.832031 60.539062 549.804688 60.835938 C 549.773438 61.128906 549.707031 61.417969 549.613281 61.699219 C 549.515625 61.976562 549.386719 62.242188 549.230469 62.496094 C 549.070312 62.746094 548.886719 62.976562 548.675781 63.183594 C 548.464844 63.394531 548.234375 63.574219 547.980469 63.730469 C 547.726562 63.886719 547.460938 64.007812 547.179688 64.101562 C 546.898438 64.195312 546.609375 64.257812 546.3125 64.285156 C 546.019531 64.3125 545.722656 64.304688 545.429688 64.265625 Z M 173.933594 226.03125 C 171.320312 226.164062 170.105469 224.449219 169.4375 222.167969 C 169.773438 219.835938 170.804688 217.789062 173.253906 217.554688 C 173.546875 217.511719 173.84375 217.5 174.144531 217.523438 C 174.441406 217.550781 174.730469 217.605469 175.015625 217.695312 C 175.300781 217.78125 175.574219 217.902344 175.832031 218.050781 C 176.09375 218.199219 176.332031 218.375 176.550781 218.578125 C 176.769531 218.78125 176.964844 219.003906 177.132812 219.25 C 177.300781 219.496094 177.441406 219.757812 177.554688 220.035156 C 177.664062 220.3125 177.742188 220.601562 177.789062 220.894531 C 177.835938 221.191406 177.851562 221.484375 177.832031 221.785156 C 177.867188 222.054688 177.871094 222.328125 177.84375 222.601562 C 177.820312 222.875 177.765625 223.140625 177.683594 223.402344 C 177.597656 223.664062 177.488281 223.914062 177.351562 224.148438 C 177.214844 224.386719 177.050781 224.605469 176.867188 224.808594 C 176.679688 225.011719 176.476562 225.191406 176.25 225.347656 C 176.027344 225.503906 175.789062 225.636719 175.535156 225.742188 C 175.28125 225.847656 175.019531 225.925781 174.75 225.972656 C 174.480469 226.023438 174.210938 226.042969 173.933594 226.03125 Z M 736.65625 587.050781 C 736.933594 587.023438 737.207031 587.027344 737.484375 587.0625 C 737.757812 587.097656 738.027344 587.164062 738.289062 587.257812 C 738.546875 587.351562 738.796875 587.476562 739.027344 587.625 C 739.261719 587.773438 739.476562 587.949219 739.671875 588.148438 C 739.867188 588.34375 740.035156 588.5625 740.183594 588.796875 C 740.328125 589.035156 740.445312 589.28125 740.539062 589.546875 C 740.628906 589.808594 740.6875 590.078125 740.71875 590.351562 C 740.75 590.628906 740.75 590.902344 740.71875 591.179688 C 740.71875 591.433594 740.695312 591.6875 740.648438 591.9375 C 740.597656 592.1875 740.523438 592.433594 740.429688 592.667969 C 740.332031 592.902344 740.210938 593.128906 740.070312 593.339844 C 739.929688 593.550781 739.769531 593.75 739.585938 593.929688 C 739.40625 594.109375 739.210938 594.269531 739 594.410156 C 738.785156 594.554688 738.5625 594.671875 738.328125 594.769531 C 738.089844 594.867188 737.847656 594.941406 737.597656 594.988281 C 737.347656 595.039062 737.09375 595.0625 736.839844 595.058594 C 736.300781 595.039062 735.789062 594.917969 735.300781 594.695312 C 734.808594 594.476562 734.378906 594.171875 734.007812 593.78125 C 733.636719 593.394531 733.351562 592.949219 733.152344 592.453125 C 732.953125 591.953125 732.855469 591.433594 732.859375 590.898438 C 732.847656 590.644531 732.859375 590.390625 732.898438 590.140625 C 732.9375 589.886719 733.003906 589.644531 733.09375 589.40625 C 733.183594 589.167969 733.296875 588.945312 733.4375 588.730469 C 733.574219 588.515625 733.730469 588.320312 733.910156 588.136719 C 734.089844 587.957031 734.285156 587.796875 734.496094 587.65625 C 734.707031 587.515625 734.933594 587.398438 735.167969 587.304688 C 735.40625 587.210938 735.648438 587.144531 735.898438 587.101562 C 736.148438 587.058594 736.402344 587.039062 736.65625 587.050781 Z M 190.472656 131.558594 C 190.210938 131.585938 189.949219 131.582031 189.691406 131.554688 C 189.429688 131.523438 189.175781 131.46875 188.925781 131.382812 C 188.679688 131.300781 188.441406 131.191406 188.214844 131.054688 C 187.992188 130.921875 187.78125 130.765625 187.589844 130.585938 C 187.398438 130.40625 187.230469 130.210938 187.078125 129.996094 C 186.929688 129.777344 186.804688 129.550781 186.703125 129.308594 C 186.605469 129.066406 186.53125 128.816406 186.484375 128.558594 C 186.4375 128.300781 186.417969 128.039062 186.425781 127.777344 C 186.589844 125.363281 187.707031 123.949219 190.070312 123.863281 C 190.339844 123.832031 190.609375 123.824219 190.878906 123.851562 C 191.148438 123.878906 191.414062 123.933594 191.671875 124.015625 C 191.929688 124.101562 192.175781 124.214844 192.40625 124.355469 C 192.640625 124.492188 192.851562 124.65625 193.046875 124.84375 C 193.242188 125.03125 193.417969 125.238281 193.566406 125.464844 C 193.714844 125.691406 193.835938 125.933594 193.933594 126.1875 C 194.027344 126.441406 194.09375 126.703125 194.132812 126.96875 C 194.167969 127.238281 194.175781 127.507812 194.152344 127.777344 C 194.171875 128.027344 194.167969 128.277344 194.132812 128.523438 C 194.101562 128.773438 194.042969 129.011719 193.957031 129.25 C 193.875 129.484375 193.765625 129.707031 193.632812 129.917969 C 193.5 130.132812 193.347656 130.328125 193.171875 130.507812 C 193 130.683594 192.808594 130.84375 192.597656 130.980469 C 192.390625 131.121094 192.167969 131.234375 191.9375 131.324219 C 191.703125 131.417969 191.464844 131.480469 191.214844 131.519531 C 190.96875 131.558594 190.722656 131.574219 190.472656 131.558594 Z M 677.789062 120.765625 C 677.519531 120.792969 677.25 120.789062 676.980469 120.753906 C 676.710938 120.71875 676.449219 120.652344 676.195312 120.558594 C 675.945312 120.460938 675.703125 120.339844 675.476562 120.191406 C 675.253906 120.039062 675.046875 119.867188 674.859375 119.671875 C 674.671875 119.472656 674.511719 119.257812 674.375 119.023438 C 674.238281 118.792969 674.128906 118.546875 674.046875 118.285156 C 673.964844 118.027344 673.914062 117.765625 673.894531 117.492188 C 673.875 117.222656 673.882812 116.957031 673.925781 116.6875 C 673.925781 116.4375 673.957031 116.1875 674.011719 115.941406 C 674.066406 115.695312 674.144531 115.460938 674.25 115.230469 C 674.355469 115.003906 674.484375 114.785156 674.632812 114.585938 C 674.78125 114.382812 674.949219 114.199219 675.136719 114.03125 C 675.328125 113.863281 675.53125 113.71875 675.75 113.59375 C 675.96875 113.46875 676.195312 113.367188 676.4375 113.292969 C 676.675781 113.214844 676.921875 113.164062 677.171875 113.136719 C 677.421875 113.113281 677.671875 113.113281 677.921875 113.140625 C 678.164062 113.140625 678.40625 113.167969 678.644531 113.222656 C 678.882812 113.273438 679.113281 113.351562 679.335938 113.453125 C 679.558594 113.550781 679.769531 113.675781 679.964844 113.820312 C 680.160156 113.964844 680.339844 114.125 680.503906 114.308594 C 680.667969 114.488281 680.808594 114.6875 680.933594 114.898438 C 681.054688 115.109375 681.152344 115.332031 681.226562 115.5625 C 681.304688 115.796875 681.355469 116.03125 681.382812 116.273438 C 681.40625 116.519531 681.410156 116.761719 681.382812 117.003906 C 681.417969 117.25 681.421875 117.5 681.402344 117.75 C 681.378906 117.996094 681.328125 118.242188 681.25 118.480469 C 681.175781 118.71875 681.070312 118.941406 680.941406 119.15625 C 680.816406 119.371094 680.664062 119.570312 680.492188 119.75 C 680.320312 119.933594 680.128906 120.089844 679.917969 120.230469 C 679.710938 120.367188 679.488281 120.480469 679.253906 120.566406 C 679.019531 120.65625 678.78125 120.714844 678.53125 120.75 C 678.285156 120.785156 678.035156 120.789062 677.789062 120.765625 Z M 203.5625 708.917969 C 203.808594 708.875 204.058594 708.859375 204.308594 708.871094 C 204.558594 708.886719 204.804688 708.925781 205.046875 708.996094 C 205.289062 709.0625 205.519531 709.160156 205.742188 709.28125 C 205.960938 709.402344 206.164062 709.546875 206.351562 709.714844 C 206.539062 709.882812 206.707031 710.066406 206.851562 710.273438 C 206.996094 710.476562 207.117188 710.695312 207.210938 710.929688 C 207.308594 711.160156 207.375 711.402344 207.417969 711.648438 C 207.460938 711.898438 207.472656 712.144531 207.457031 712.398438 C 207.507812 712.644531 207.527344 712.890625 207.523438 713.140625 C 207.515625 713.390625 207.484375 713.636719 207.425781 713.882812 C 207.367188 714.125 207.285156 714.359375 207.175781 714.585938 C 207.070312 714.808594 206.9375 715.023438 206.785156 715.21875 C 206.628906 715.417969 206.457031 715.59375 206.265625 715.753906 C 206.070312 715.914062 205.863281 716.054688 205.644531 716.167969 C 205.421875 716.285156 205.1875 716.375 204.949219 716.441406 C 204.707031 716.507812 204.460938 716.546875 204.210938 716.558594 C 203.960938 716.578125 203.710938 716.574219 203.464844 716.542969 C 203.214844 716.511719 202.972656 716.453125 202.738281 716.371094 C 202.5 716.292969 202.273438 716.1875 202.058594 716.058594 C 201.84375 715.933594 201.644531 715.785156 201.460938 715.617188 C 201.273438 715.445312 201.109375 715.261719 200.960938 715.058594 C 200.816406 714.855469 200.691406 714.640625 200.585938 714.414062 C 200.484375 714.183594 200.40625 713.949219 200.351562 713.703125 C 200.296875 713.460938 200.265625 713.214844 200.265625 712.964844 C 200.210938 712.71875 200.183594 712.46875 200.1875 712.21875 C 200.1875 711.96875 200.21875 711.71875 200.277344 711.476562 C 200.335938 711.230469 200.417969 710.996094 200.53125 710.773438 C 200.640625 710.546875 200.777344 710.335938 200.933594 710.144531 C 201.09375 709.949219 201.269531 709.773438 201.46875 709.621094 C 201.667969 709.464844 201.878906 709.335938 202.105469 709.230469 C 202.335938 709.121094 202.570312 709.042969 202.816406 708.992188 C 203.0625 708.9375 203.308594 708.914062 203.5625 708.917969 Z M 418.867188 380.851562 C 418.894531 381.304688 418.832031 381.742188 418.679688 382.171875 C 418.53125 382.597656 418.304688 382.980469 418.003906 383.316406 C 417.703125 383.65625 417.347656 383.921875 416.941406 384.117188 C 416.535156 384.3125 416.105469 384.425781 415.652344 384.449219 C 415.203125 384.476562 414.761719 384.414062 414.335938 384.265625 C 413.910156 384.113281 413.527344 383.890625 413.1875 383.589844 C 412.851562 383.285156 412.585938 382.933594 412.390625 382.523438 C 412.191406 382.117188 412.082031 381.6875 412.054688 381.234375 C 412.027344 381.011719 412.019531 380.789062 412.039062 380.5625 C 412.058594 380.335938 412.101562 380.117188 412.167969 379.898438 C 412.234375 379.683594 412.324219 379.476562 412.433594 379.28125 C 412.546875 379.085938 412.675781 378.902344 412.828125 378.734375 C 412.980469 378.566406 413.148438 378.417969 413.332031 378.285156 C 413.515625 378.152344 413.710938 378.042969 413.917969 377.953125 C 414.128906 377.867188 414.34375 377.800781 414.566406 377.757812 C 414.785156 377.714844 415.011719 377.699219 415.238281 377.707031 C 415.695312 377.664062 416.140625 377.714844 416.578125 377.859375 C 417.011719 378 417.402344 378.226562 417.746094 378.527344 C 418.089844 378.832031 418.359375 379.191406 418.554688 379.609375 C 418.75 380.023438 418.851562 380.460938 418.867188 380.917969 Z M 130.585938 387.515625 C 130.589844 387.882812 130.515625 388.238281 130.367188 388.574219 C 130.21875 388.910156 130.007812 389.203125 129.734375 389.453125 C 129.460938 389.699219 129.148438 389.882812 128.800781 389.996094 C 128.449219 390.113281 128.089844 390.148438 127.722656 390.113281 C 127.519531 390.140625 127.316406 390.144531 127.109375 390.125 C 126.90625 390.105469 126.707031 390.0625 126.511719 390 C 126.316406 389.933594 126.132812 389.84375 125.960938 389.734375 C 125.785156 389.625 125.625 389.496094 125.484375 389.351562 C 125.339844 389.203125 125.214844 389.042969 125.105469 388.867188 C 125 388.691406 124.917969 388.507812 124.851562 388.3125 C 124.789062 388.113281 124.75 387.914062 124.734375 387.710938 C 124.71875 387.503906 124.726562 387.300781 124.757812 387.097656 C 124.738281 386.894531 124.742188 386.691406 124.769531 386.484375 C 124.796875 386.28125 124.847656 386.085938 124.921875 385.894531 C 125 385.703125 125.09375 385.523438 125.210938 385.351562 C 125.328125 385.183594 125.464844 385.03125 125.617188 384.894531 C 125.773438 384.757812 125.9375 384.640625 126.121094 384.542969 C 126.300781 384.449219 126.492188 384.375 126.691406 384.320312 C 126.890625 384.269531 127.09375 384.242188 127.296875 384.238281 C 127.503906 384.234375 127.707031 384.257812 127.90625 384.300781 C 130.039062 384.46875 130.722656 385.832031 130.585938 387.648438 Z M 492.839844 59.734375 C 492.46875 59.71875 492.121094 59.628906 491.789062 59.464844 C 491.457031 59.300781 491.171875 59.078125 490.9375 58.792969 C 490.699219 58.511719 490.53125 58.191406 490.429688 57.835938 C 490.332031 57.480469 490.304688 57.117188 490.359375 56.753906 C 490.347656 56.570312 490.355469 56.390625 490.382812 56.207031 C 490.410156 56.027344 490.457031 55.851562 490.523438 55.683594 C 490.589844 55.511719 490.671875 55.351562 490.773438 55.199219 C 490.875 55.046875 490.992188 54.90625 491.121094 54.78125 C 491.253906 54.652344 491.398438 54.542969 491.554688 54.445312 C 491.710938 54.351562 491.875 54.273438 492.046875 54.214844 C 492.21875 54.152344 492.394531 54.113281 492.578125 54.09375 C 492.757812 54.070312 492.941406 54.070312 493.121094 54.089844 C 493.304688 54.066406 493.484375 54.066406 493.667969 54.085938 C 493.851562 54.105469 494.027344 54.140625 494.203125 54.199219 C 494.375 54.257812 494.539062 54.335938 494.695312 54.429688 C 494.851562 54.523438 494.996094 54.632812 495.128906 54.761719 C 495.261719 54.886719 495.378906 55.027344 495.480469 55.179688 C 495.582031 55.332031 495.664062 55.492188 495.730469 55.664062 C 495.792969 55.835938 495.839844 56.011719 495.867188 56.191406 C 495.894531 56.371094 495.902344 56.554688 495.886719 56.738281 C 495.902344 56.941406 495.894531 57.140625 495.867188 57.34375 C 495.839844 57.542969 495.789062 57.742188 495.71875 57.929688 C 495.644531 58.121094 495.554688 58.300781 495.441406 58.472656 C 495.332031 58.644531 495.203125 58.800781 495.058594 58.941406 C 494.914062 59.085938 494.753906 59.210938 494.582031 59.320312 C 494.410156 59.425781 494.230469 59.515625 494.035156 59.582031 C 493.84375 59.652344 493.648438 59.699219 493.445312 59.722656 C 493.246094 59.75 493.042969 59.753906 492.839844 59.734375 Z M 576.902344 726.386719 C 577.21875 726.351562 577.527344 726.382812 577.828125 726.480469 C 578.128906 726.574219 578.398438 726.722656 578.640625 726.929688 C 578.878906 727.136719 579.066406 727.382812 579.207031 727.667969 C 579.34375 727.949219 579.421875 728.25 579.433594 728.566406 C 579.53125 728.917969 579.550781 729.277344 579.492188 729.636719 C 579.433594 729.996094 579.300781 730.328125 579.09375 730.632812 C 578.890625 730.933594 578.632812 731.179688 578.316406 731.371094 C 578.003906 731.558594 577.667969 731.675781 577.304688 731.714844 C 575.503906 732.046875 574.890625 730.597656 574.289062 729.199219 C 574.289062 728.84375 574.351562 728.5 574.484375 728.167969 C 574.613281 727.835938 574.800781 727.539062 575.042969 727.277344 C 575.285156 727.015625 575.566406 726.808594 575.886719 726.65625 C 576.210938 726.5 576.546875 726.410156 576.902344 726.386719 Z M 268.242188 751.363281 C 269.824219 751.265625 270.472656 752.5625 270.65625 753.796875 C 270.722656 754.109375 270.71875 754.421875 270.652344 754.734375 C 270.585938 755.042969 270.460938 755.328125 270.273438 755.589844 C 270.085938 755.847656 269.855469 756.054688 269.578125 756.214844 C 269.304688 756.378906 269.007812 756.476562 268.691406 756.511719 C 267.027344 756.792969 266.09375 755.746094 265.660156 754.144531 C 265.628906 753.785156 265.671875 753.433594 265.789062 753.089844 C 265.90625 752.746094 266.089844 752.441406 266.335938 752.171875 C 266.578125 751.90625 266.867188 751.699219 267.199219 751.554688 C 267.53125 751.40625 267.878906 751.332031 268.242188 751.332031 Z M 219.546875 245.464844 C 220.082031 245.464844 220.582031 246.347656 220.53125 247.511719 C 220.480469 248.679688 219.996094 249.976562 218.382812 249.84375 C 218.070312 249.839844 217.773438 249.773438 217.488281 249.648438 C 217.203125 249.519531 216.957031 249.339844 216.746094 249.109375 C 216.535156 248.878906 216.378906 248.617188 216.28125 248.320312 C 216.179688 248.027344 216.140625 247.722656 216.167969 247.414062 C 216.265625 246.082031 217.351562 245.332031 219.546875 245.429688 Z M 774.957031 444.21875 C 775.230469 444.21875 775.488281 444.269531 775.738281 444.378906 C 775.988281 444.484375 776.207031 444.636719 776.394531 444.832031 C 776.582031 445.03125 776.722656 445.253906 776.816406 445.511719 C 776.914062 445.765625 776.953125 446.027344 776.9375 446.300781 C 776.984375 446.609375 776.960938 446.914062 776.871094 447.210938 C 776.78125 447.511719 776.628906 447.773438 776.421875 448.007812 C 776.210938 448.238281 775.960938 448.414062 775.675781 448.535156 C 775.386719 448.65625 775.085938 448.710938 774.773438 448.699219 C 773.375 448.597656 772.460938 447.898438 772.542969 446.414062 C 772.53125 446.257812 772.539062 446.101562 772.5625 445.949219 C 772.585938 445.792969 772.628906 445.640625 772.6875 445.496094 C 772.746094 445.351562 772.820312 445.214844 772.910156 445.085938 C 773 444.957031 773.101562 444.839844 773.21875 444.734375 C 773.335938 444.625 773.460938 444.535156 773.597656 444.457031 C 773.734375 444.382812 773.878906 444.320312 774.027344 444.277344 C 774.179688 444.230469 774.332031 444.203125 774.488281 444.195312 C 774.648438 444.183594 774.800781 444.191406 774.957031 444.21875 Z M 21.992188 472.644531 C 23.808594 469.488281 25.085938 466.132812 25.824219 462.570312 C 39.328125 427.183594 62.34375 400.335938 96.914062 384.101562 C 120.5625 372.992188 145.441406 371.179688 170.953125 375.242188 C 188.722656 378.070312 206.375 379.804688 223.746094 372.792969 C 231.023438 369.808594 237.753906 365.890625 243.945312 361.035156 C 241.261719 367.230469 236.085938 371.027344 230.804688 374.609375 C 216.351562 384.449219 199.679688 388.296875 182.996094 392.109375 C 164.078125 396.441406 145.792969 402.269531 130.804688 415.425781 C 129.234375 416.65625 127.769531 418 126.40625 419.453125 C 124.859375 421.304688 123.511719 421.269531 121.410156 420.335938 C 120.789062 420.054688 120.144531 419.828125 119.484375 419.65625 C 118.820312 419.480469 118.148438 419.367188 117.464844 419.308594 C 116.785156 419.246094 116.101562 419.246094 115.417969 419.304688 C 114.738281 419.359375 114.0625 419.476562 113.402344 419.648438 C 112.738281 419.816406 112.09375 420.042969 111.46875 420.324219 C 110.84375 420.605469 110.25 420.9375 109.679688 421.320312 C 109.113281 421.703125 108.582031 422.128906 108.085938 422.601562 C 107.589844 423.074219 107.136719 423.585938 106.730469 424.132812 C 106.320312 424.683594 105.960938 425.261719 105.648438 425.871094 C 105.339844 426.484375 105.082031 427.117188 104.878906 427.769531 C 104.675781 428.421875 104.53125 429.089844 104.441406 429.769531 C 104.351562 430.449219 104.320312 431.128906 104.347656 431.8125 C 104.371094 432.496094 104.457031 433.175781 104.597656 433.84375 C 104.738281 434.515625 104.933594 435.167969 105.1875 435.804688 C 105.4375 436.441406 105.742188 437.050781 106.097656 437.636719 C 106.453125 438.222656 106.859375 438.773438 107.308594 439.289062 C 107.742188 439.804688 108.222656 440.28125 108.738281 440.714844 C 109.257812 441.148438 109.808594 441.535156 110.390625 441.878906 C 110.976562 442.21875 111.585938 442.507812 112.21875 442.746094 C 112.851562 442.980469 113.5 443.164062 114.164062 443.292969 C 114.828125 443.417969 115.496094 443.488281 116.171875 443.5 C 116.847656 443.515625 117.519531 443.46875 118.1875 443.371094 C 118.855469 443.269531 119.511719 443.113281 120.152344 442.898438 C 120.796875 442.6875 121.414062 442.421875 122.011719 442.101562 C 127.539062 439.1875 130.136719 434.160156 128.289062 428.214844 C 127.140625 424.449219 129.207031 422.984375 131.4375 421.136719 C 147.289062 408.113281 165.742188 401.785156 185.910156 399.820312 C 209.554688 397.507812 232.085938 392.277344 250.40625 375.507812 C 249.386719 377.742188 248.167969 379.859375 246.75 381.859375 C 245.332031 383.863281 243.734375 385.714844 241.964844 387.414062 C 240.195312 389.113281 238.28125 390.628906 236.222656 391.964844 C 234.160156 393.300781 231.996094 394.433594 229.722656 395.359375 C 217.78125 400.355469 205.507812 404.433594 193.703125 409.644531 C 160.980469 424.117188 135.417969 446.132812 122.011719 480.222656 C 113.5 501.871094 111.386719 524.285156 113.683594 547.316406 C 113.984375 543.585938 114.269531 539.839844 114.601562 536.109375 C 114.933594 532.378906 115.21875 528.53125 115.75 524.785156 C 122.859375 474.675781 148.871094 438.972656 196.152344 419.503906 C 206.941406 415.074219 218.050781 411.527344 229.207031 408.082031 C 230.539062 407.679688 232.304688 405.964844 233.171875 408.414062 C 233.953125 410.59375 232.871094 411.910156 230.523438 412.761719 C 217.648438 417.421875 205.027344 422.753906 193.886719 430.730469 C 161.078125 454.160156 140.0625 485 134.769531 525.652344 C 134.480469 527.878906 134.273438 530.109375 134.15625 532.351562 C 134.035156 534.59375 134 536.835938 134.046875 539.082031 C 134.097656 541.324219 134.226562 543.566406 134.445312 545.800781 C 134.660156 548.035156 134.960938 550.257812 135.34375 552.46875 C 135.730469 554.679688 136.195312 556.875 136.742188 559.050781 C 137.292969 561.226562 137.921875 563.378906 138.632812 565.511719 C 139.34375 567.640625 140.132812 569.738281 141 571.808594 C 141.867188 573.878906 142.8125 575.914062 143.835938 577.914062 C 144.855469 579.914062 145.949219 581.871094 147.117188 583.789062 C 148.285156 585.703125 149.527344 587.574219 150.835938 589.398438 C 152.144531 591.222656 153.519531 592.992188 154.960938 594.714844 C 156.402344 596.433594 157.90625 598.097656 159.472656 599.707031 C 161.042969 601.3125 162.667969 602.859375 164.351562 604.34375 C 166.03125 605.828125 167.769531 607.25 169.558594 608.605469 C 171.347656 609.960938 173.1875 611.246094 175.074219 612.460938 C 176.960938 613.675781 178.890625 614.820312 180.863281 615.894531 C 181.613281 616.355469 182.429688 616.59375 183.3125 616.609375 C 176.035156 608.816406 168.488281 601.40625 162.511719 592.59375 C 144.058594 565.335938 138.796875 536.242188 152.035156 505.5 C 163.425781 479.039062 185.34375 465.199219 212.519531 458.589844 C 198.53125 463.816406 185.441406 470.746094 174.984375 481.703125 C 144.644531 513.511719 143.960938 561.804688 173.070312 595.242188 C 189.074219 613.5625 209.871094 624.371094 232.070312 632.996094 C 242.460938 637.027344 252.902344 640.9375 262.644531 646.433594 C 270.121094 650.632812 276.800781 655.828125 280.964844 663.636719 C 281.609375 664.800781 282.160156 666.011719 282.609375 667.265625 C 283.058594 668.519531 283.402344 669.804688 283.640625 671.113281 C 283.882812 672.425781 284.015625 673.746094 284.039062 675.078125 C 284.0625 676.410156 283.980469 677.738281 283.789062 679.054688 C 283.59375 680.375 283.296875 681.667969 282.894531 682.9375 C 282.492188 684.210938 281.988281 685.4375 281.382812 686.625 C 280.78125 687.8125 280.082031 688.945312 279.296875 690.019531 C 278.507812 691.09375 277.636719 692.097656 276.683594 693.03125 C 269.324219 700.171875 257.851562 701.457031 248.074219 696.175781 C 237.867188 690.664062 233.171875 681.4375 231.136719 670.515625 C 230.554688 667.335938 230.207031 664.101562 229.707031 660.523438 C 219.53125 692.828125 243.246094 718.390625 269.972656 724.121094 C 313.46875 733.429688 352.65625 697.925781 348.574219 653.328125 C 345.945312 624.71875 329.089844 604.335938 302.8125 597.757812 C 295.800781 596.21875 288.777344 596.175781 281.746094 597.625 C 294.136719 588.699219 314.835938 594.726562 338.367188 614.042969 C 332.539062 603.386719 325.828125 595.558594 316.71875 589.863281 C 339.664062 598.605469 347.625 618.375 353.355469 640.640625 C 355.453125 636.394531 355.371094 632.3125 355.800781 628.265625 C 356.769531 619.105469 356.734375 609.832031 358.351562 600.738281 L 459.535156 568.382812 C 459.25 571.507812 459.429688 574.605469 460.082031 577.675781 C 459.921875 577.898438 459.773438 578.132812 459.632812 578.375 C 457.851562 581.503906 458.683594 584.917969 458.984375 588.25 C 459.066406 589.015625 459.582031 588.949219 459.933594 588.480469 C 460.398438 587.558594 460.769531 586.597656 461.050781 585.601562 L 458.136719 613.34375 C 469.210938 572.445312 472.039062 529.714844 486.195312 489.496094 C 488.195312 497.441406 485.730469 504.984375 484.53125 512.578125 C 479.632812 542.1875 475.289062 571.847656 476.535156 601.972656 C 477.71875 630.398438 487.078125 655.128906 509.34375 674.09375 C 536.96875 697.640625 582.5 702.207031 610.925781 683.789062 C 632.875 669.582031 641.535156 648.53125 640.453125 623.171875 C 640.152344 615.859375 640.933594 609.464844 645.015625 603.1875 C 648.582031 597.246094 650.898438 590.851562 651.957031 584.003906 C 652.523438 581.023438 653.625 580.671875 656.15625 580.839844 C 695.757812 584.035156 728.144531 553.09375 736.839844 514.859375 C 725.480469 513.609375 714.472656 511.261719 704.832031 504.269531 C 748.179688 518.890625 784.265625 511.496094 809.246094 469.78125 C 807.082031 468.78125 807.082031 470.414062 806.5 470.996094 C 805.9375 471.699219 805.449219 472.449219 805.03125 473.242188 C 789.730469 495.425781 769.144531 507.515625 741.667969 504.882812 C 721.933594 502.984375 706.695312 492.3125 693.992188 477.707031 C 690.660156 473.832031 687.601562 469.75 684.816406 465.46875 C 692.523438 472.261719 699.6875 479.570312 708.128906 485.449219 C 716.277344 491.214844 725.160156 495.433594 734.773438 498.105469 C 736.589844 498.621094 739.585938 500.355469 740.003906 496.089844 C 742.75 468.429688 734.789062 444.949219 712.175781 427.816406 C 707.429688 424.21875 706.296875 421.488281 707.347656 415.707031 C 712.34375 388.097656 710.027344 361.21875 695.304688 336.722656 C 681.535156 313.773438 662.984375 296.15625 635.957031 289.578125 C 631.78125 288.582031 627.554688 287.921875 623.277344 287.597656 C 619 287.273438 614.722656 287.289062 610.445312 287.648438 C 606.171875 288.003906 601.949219 288.699219 597.785156 289.730469 C 593.621094 290.761719 589.5625 292.113281 585.613281 293.792969 C 568.710938 300.621094 551.742188 305.367188 533.140625 303.550781 C 507.027344 301.003906 483.082031 292.160156 459.867188 280.484375 C 437.785156 269.34375 417.167969 255.824219 395.4375 241.367188 C 397.523438 244.886719 400.097656 248 403.164062 250.710938 C 405.726562 253.242188 408.308594 255.804688 411.058594 258.136719 C 435.9375 279.070312 463.03125 296.4375 493.855469 307.164062 C 523.699219 317.570312 554.054688 317.074219 584.597656 310.144531 C 602.300781 306.148438 620.203125 303.382812 638.21875 307.878906 C 668.960938 315.539062 686.796875 336.089844 694.273438 366.066406 C 696.3125 374.519531 697.28125 383.09375 697.171875 391.792969 C 697.066406 400.488281 695.886719 409.039062 693.640625 417.441406 C 693.941406 409.546875 694.707031 401.652344 694.441406 393.726562 C 693.722656 372.542969 687.578125 353.277344 673.839844 336.90625 C 660.617188 321.152344 643.367188 313.160156 622.964844 311.710938 C 607.429688 310.59375 592.441406 313.976562 577.46875 317.222656 C 533.023438 326.863281 492.058594 318.1875 453.6875 294.558594 C 439.382812 285.75 425.828125 275.890625 412.421875 265.816406 C 411.429688 265.023438 410.320312 264.46875 409.09375 264.148438 C 414.910156 272.292969 421.570312 279.675781 429.074219 286.296875 C 440.96875 297.457031 454.019531 307.046875 468.226562 315.058594 C 470.90625 316.539062 470.824219 317.921875 470.207031 320.636719 C 466.0625 338.953125 462.898438 357.457031 469.007812 375.691406 C 472.507812 386.082031 476.902344 395.875 477.917969 407.179688 C 478.71875 416.089844 485.328125 422.867188 493.304688 427.699219 C 489.242188 421.304688 485.945312 414.707031 486.644531 405.597656 C 489.191406 412.261719 491.523438 417.804688 495.121094 422.636719 C 497.609375 425.964844 500.273438 429.144531 503.113281 432.175781 C 508.011719 437.457031 507.894531 438.457031 501.265625 441.738281 C 500.464844 442.136719 499.601562 442.46875 498.835938 442.902344 C 493.554688 445.765625 491.875 448.664062 491.707031 455.824219 C 495.703125 450.828125 501.015625 450.179688 506.429688 449.445312 C 516.785156 448.015625 524.164062 441.121094 524.398438 432.976562 C 524.511719 428.964844 523.480469 425.484375 519.71875 423.351562 C 515.953125 421.21875 513.054688 423.019531 510.660156 425.699219 C 508.992188 427.5 507.726562 427.363281 506.410156 425.316406 C 504.03125 421.585938 503.246094 417.855469 505.710938 413.84375 C 506.976562 414.160156 506.679688 414.957031 506.710938 415.507812 C 506.976562 421.871094 506.976562 421.886719 512.355469 419.171875 C 513.667969 418.550781 515.046875 418.21875 516.492188 418.175781 C 517.941406 418.132812 519.339844 418.382812 520.683594 418.921875 C 524.015625 419.972656 527.042969 421.820312 530.910156 419.570312 C 533.472656 418.074219 533.007812 421.238281 533.039062 422.4375 C 533.207031 432.742188 528.859375 441.285156 522.183594 448.746094 C 519.585938 451.660156 516.46875 454.125 512.875 457.472656 C 533.207031 451.3125 540.21875 435.574219 544.832031 417.375 C 550.792969 424.300781 549.558594 431.363281 547.578125 438.371094 C 546.472656 442.246094 544.640625 445.738281 542.082031 448.847656 C 537.300781 454.757812 532 460.164062 526.1875 465.066406 C 520.371094 469.96875 514.148438 474.277344 507.511719 477.988281 C 498.386719 482.984375 489.625 480.65625 482.929688 471.894531 C 479.382812 483.128906 474.699219 493.863281 468.875 504.101562 C 463.492188 513.308594 457.304688 521.949219 450.324219 530.015625 C 438.183594 544.386719 421.898438 551.046875 404.578125 556.207031 C 387.101562 561.523438 369.300781 565.339844 351.179688 567.660156 C 333.058594 569.976562 314.871094 570.769531 296.617188 570.03125 C 292.28125 569.824219 288 569.21875 283.777344 568.214844 C 265.875 563.953125 258.632812 551.5625 262.996094 533.8125 C 263.394531 531.957031 263.90625 530.136719 264.527344 528.347656 C 265.148438 526.558594 265.878906 524.8125 266.710938 523.109375 C 267.542969 521.410156 268.480469 519.765625 269.511719 518.175781 C 270.546875 516.589844 271.671875 515.070312 272.890625 513.621094 C 274.109375 512.167969 275.414062 510.796875 276.796875 509.503906 C 278.183594 508.210938 279.640625 507.007812 281.175781 505.894531 C 282.707031 504.777344 284.300781 503.761719 285.957031 502.839844 C 287.613281 501.917969 289.316406 501.101562 291.074219 500.386719 C 295.484375 498.472656 299.933594 496.589844 305.875 494.042969 C 298.632812 494.277344 293.371094 496.324219 288.007812 497.742188 C 280.164062 499.820312 272.335938 501.9375 264.128906 501.902344 C 261.097656 501.902344 258.300781 501.503906 256.933594 498.289062 C 255.136719 494.011719 256.351562 490.179688 258.800781 486.632812 C 260.699219 483.867188 263.113281 483.902344 265.941406 485.167969 C 267.160156 485.648438 268.402344 485.738281 269.671875 485.433594 C 283.59375 482.101562 296.835938 486 310.171875 489.0625 C 313.914062 489.714844 317.683594 490.035156 321.480469 490.03125 C 324.046875 490.148438 325.695312 488.914062 325.476562 486.148438 C 325.261719 483.386719 324.328125 481.152344 321.332031 481.585938 C 313.320312 482.519531 307.007812 478.65625 300.914062 474.476562 C 294.820312 470.296875 289.355469 465.851562 283.59375 461.488281 C 276.71875 456.292969 269.738281 456.492188 262.546875 460.988281 C 262.710938 461.257812 262.902344 461.515625 263.113281 461.753906 C 272.554688 457.523438 279.980469 461.121094 287.191406 467.296875 C 294.40625 473.386719 302.230469 478.5625 310.65625 482.820312 C 304.128906 483.117188 297.984375 481.152344 291.804688 479.488281 C 288.15625 478.523438 284.644531 477.125 281.015625 476.074219 C 276.585938 474.808594 272.222656 474.410156 267.875 476.691406 C 264.175781 478.65625 260.214844 479.355469 256.816406 476.15625 C 255.78125 475.273438 254.859375 474.289062 254.046875 473.199219 C 253.234375 472.105469 252.554688 470.941406 252.007812 469.695312 C 251.457031 468.453125 251.054688 467.164062 250.792969 465.828125 C 250.535156 464.492188 250.429688 463.144531 250.472656 461.785156 C 250.570312 459.4375 252.222656 459.554688 253.984375 459.6875 C 261.214844 460.269531 264.5625 457.640625 266.558594 449.945312 C 262.863281 454.042969 262.863281 454.042969 258.234375 455.191406 C 259.632812 452.246094 261.03125 449.613281 262.164062 446.867188 C 265.109375 439.722656 263.726562 434.460938 257.699219 429.597656 C 253.621094 426.265625 249.171875 423.453125 245.441406 419.820312 C 237.117188 411.777344 237.898438 404.832031 246.992188 397.789062 C 261.863281 386.347656 275.117188 373.441406 282.878906 355.890625 C 283.972656 353.554688 284.816406 351.128906 285.410156 348.621094 C 286.003906 346.109375 286.332031 343.5625 286.398438 340.984375 C 286.46875 338.40625 286.269531 335.847656 285.808594 333.308594 C 285.347656 330.769531 284.632812 328.304688 283.660156 325.914062 C 280.996094 319.253906 276.765625 314.125 269.472656 312.242188 C 267.707031 311.792969 266.144531 311.792969 267.441406 308.914062 C 278.015625 286.863281 287.640625 264.332031 303.328125 245.113281 C 325.0625 218.46875 353.289062 210.425781 386.128906 215.738281 C 405.542969 218.871094 423.0625 227.195312 440.316406 236.15625 C 442.546875 237.320312 444.730469 238.554688 446.976562 239.734375 C 455.9375 244.5 455.9375 244.5 460.964844 235.207031 C 462.898438 243.53125 468.277344 246.863281 476.902344 246.363281 C 474.238281 248.84375 471.722656 249.0625 469.574219 250.011719 C 467.144531 251.078125 467.011719 252.34375 469.242188 253.722656 C 471.472656 255.105469 473.855469 256.503906 476.21875 257.804688 C 499.832031 270.695312 524.261719 281.367188 551.15625 285.414062 C 553.289062 285.730469 555.472656 285.75 557.636719 285.914062 C 557.71875 286.226562 557.769531 286.542969 557.785156 286.863281 C 527.8125 285.949219 500.398438 275.972656 474.039062 262.5 C 471.742188 261.480469 469.519531 260.316406 467.378906 259.003906 C 462.53125 255.671875 457.75 253.273438 452.472656 258.386719 C 452.15625 257.621094 452.054688 256.824219 452.167969 256.003906 C 452.28125 255.183594 452.59375 254.445312 453.105469 253.792969 C 453.261719 253.601562 453.394531 253.394531 453.503906 253.171875 C 453.609375 252.949219 453.6875 252.71875 453.742188 252.476562 C 453.792969 252.234375 453.8125 251.992188 453.804688 251.746094 C 453.796875 251.496094 453.757812 251.253906 453.691406 251.019531 C 453.625 250.78125 453.53125 250.554688 453.40625 250.339844 C 453.285156 250.125 453.140625 249.929688 452.96875 249.75 C 452.800781 249.570312 452.609375 249.414062 452.402344 249.28125 C 452.195312 249.148438 451.972656 249.042969 451.738281 248.960938 C 430.257812 236.738281 408.542969 225.097656 384.0625 219.917969 C 381.464844 219.371094 378.75 219.269531 375.503906 218.902344 C 388.101562 229.082031 401.234375 238.519531 414.902344 247.214844 C 441.332031 263.667969 468.042969 279.585938 497.820312 289.476562 C 515.054688 295.207031 532.625 298.738281 550.941406 298.054688 C 561.132812 297.636719 570.851562 295.277344 580.101562 290.976562 C 615.371094 274.90625 647.660156 280.300781 677.539062 304.066406 C 679.421875 305.574219 681.421875 306.914062 683.53125 308.078125 C 680.648438 303.265625 677.289062 298.804688 673.457031 294.703125 C 669.625 290.597656 665.40625 286.941406 660.800781 283.734375 C 688.113281 290.226562 719.585938 339.453125 723.035156 381.601562 C 726.496094 369.535156 727.667969 357.253906 726.546875 344.75 C 722.132812 300.253906 697.320312 271.742188 656.820312 255.171875 C 650.511719 252.59375 646.398438 253.125 640.566406 257.039062 C 611.074219 276.789062 578.820312 279.105469 545.261719 269.878906 C 519.285156 262.734375 496.503906 248.730469 473.4375 235.457031 C 453.953125 224.230469 434.96875 212.007812 413.488281 204.914062 C 389.058594 196.871094 364.546875 194.65625 339.933594 204.296875 C 331.992188 207.625 324.773438 212.113281 318.285156 217.769531 C 327.507812 204.566406 340.648438 197.652344 356.070312 194.574219 C 386.195312 188.511719 413.953125 196.023438 440.699219 209.394531 C 462.582031 220.335938 483.230469 233.523438 504.695312 245.214844 C 529.859375 258.902344 555.9375 269.496094 585.230469 268.210938 C 614.804688 266.929688 640.269531 256.554688 657.269531 231.109375 C 679.167969 198.304688 668.078125 152.625 634.707031 135.621094 C 619.71875 127.976562 604.28125 127.660156 588.511719 132.773438 C 588.019531 132.980469 587.570312 133.25 587.160156 133.589844 C 587.046875 133.589844 587.027344 133.890625 586.8125 134.488281 C 595.082031 134.144531 603.128906 135.308594 610.960938 137.988281 C 623.316406 142.5 632.324219 150.277344 634.390625 163.765625 C 636.554688 177.902344 632.140625 190.09375 621.535156 199.933594 C 619.117188 202.167969 617.804688 200.5 616.023438 199.21875 C 592.089844 182.148438 568.460938 164.613281 544.082031 148.195312 C 513.289062 127.410156 481.550781 108.226562 445.828125 96.671875 C 404.195312 83.347656 362.429688 82 321.246094 98.070312 C 288.691406 110.792969 262.828125 131.792969 248.273438 164.363281 C 236.21875 191.34375 236.183594 218.535156 250.023438 245.164062 C 255.25 255.15625 258.183594 265.730469 255.46875 276.9375 C 251.722656 292.375 236.683594 299.835938 219.914062 294.65625 C 202.078125 289.160156 192.054688 276.339844 187.390625 258.753906 C 186.976562 256.140625 186.542969 253.542969 186.125 250.925781 C 185.503906 252.734375 185.21875 254.589844 185.269531 256.5 C 185.320312 258.410156 185.707031 260.25 186.425781 262.019531 C 189.671875 280.136719 199.332031 293.660156 216.183594 301.183594 C 217.335938 301.699219 218.511719 302.152344 219.707031 302.542969 C 220.90625 302.9375 222.121094 303.269531 223.355469 303.535156 C 224.585938 303.804688 225.828125 304.007812 227.082031 304.148438 C 228.335938 304.289062 229.59375 304.363281 230.855469 304.375 C 232.113281 304.386719 233.375 304.332031 234.628906 304.214844 C 235.882812 304.097656 237.128906 303.914062 238.367188 303.667969 C 239.605469 303.421875 240.824219 303.113281 242.03125 302.742188 C 243.234375 302.367188 244.417969 301.9375 245.578125 301.441406 C 246.738281 300.949219 247.871094 300.398438 248.972656 299.789062 C 250.078125 299.179688 251.148438 298.515625 252.183594 297.796875 C 253.21875 297.078125 254.214844 296.304688 255.171875 295.484375 C 256.128906 294.660156 257.039062 293.792969 257.90625 292.878906 C 258.773438 291.960938 259.59375 291.003906 260.363281 290.003906 C 261.128906 289.007812 261.847656 287.96875 262.507812 286.898438 C 263.171875 285.824219 263.777344 284.71875 264.324219 283.585938 C 264.875 282.449219 265.363281 281.289062 265.792969 280.101562 C 266.410156 278.4375 266.925781 276.773438 267.941406 273.941406 C 268.109375 275.832031 268.113281 277.726562 267.945312 279.617188 C 267.777344 281.511719 267.445312 283.375 266.945312 285.207031 C 266.445312 287.039062 265.789062 288.816406 264.976562 290.53125 C 264.160156 292.246094 263.199219 293.878906 262.097656 295.421875 C 246.027344 319.636719 214.152344 323.316406 190.070312 303.933594 C 180.578125 296.289062 173.136719 286.648438 164.542969 278.136719 C 152.886719 266.480469 139.097656 258.835938 122.660156 256.304688 C 119.878906 254.640625 116.914062 255.140625 113.816406 256.140625 L 120.480469 257.386719 C 141.546875 262.285156 157.199219 274.957031 170.023438 291.808594 C 176.800781 300.71875 183.675781 309.578125 192.152344 317.003906 C 194.609375 319.332031 197.328125 321.292969 200.3125 322.886719 C 203.296875 324.480469 206.441406 325.652344 209.738281 326.398438 C 202.996094 328.0625 202.996094 328.0625 183.246094 319.9375 C 185.234375 322.089844 187.394531 324.058594 189.722656 325.835938 C 192.054688 327.617188 194.519531 329.183594 197.121094 330.535156 C 199.722656 331.886719 202.421875 333.007812 205.21875 333.890625 C 208.011719 334.777344 210.863281 335.414062 213.769531 335.808594 C 226.242188 337.390625 236.417969 332.125 246.742188 323.800781 C 246.105469 325.679688 245.289062 327.476562 244.292969 329.191406 C 243.292969 330.90625 242.136719 332.503906 240.816406 333.984375 C 239.496094 335.46875 238.042969 336.804688 236.457031 337.992188 C 234.871094 339.183594 233.179688 340.203125 231.386719 341.050781 C 213.070312 350.394531 194.601562 349.378906 176.101562 341.617188 C 167.746094 337.773438 159.636719 333.472656 151.769531 328.710938 C 140.597656 322.433594 129.054688 317.054688 116.332031 314.757812 C 115.457031 314.585938 114.660156 314.234375 113.945312 313.703125 C 113.226562 313.171875 112.65625 312.515625 112.234375 311.726562 C 108.339844 305.832031 102.410156 305.199219 97.847656 310.328125 C 97.117188 311.210938 96.226562 311.878906 95.175781 312.328125 C 94.125 312.78125 93.027344 312.96875 91.886719 312.890625 C 84.09375 312.925781 76.535156 314.265625 69.203125 316.90625 C 76.550781 316.113281 83.917969 315.78125 91.304688 315.90625 C 93.734375 315.90625 95.382812 316.238281 96.730469 318.988281 C 100.28125 326.316406 107.007812 326.765625 111.9375 320.167969 C 113.402344 318.203125 114.519531 318.503906 116.417969 319.054688 C 130.472656 322.734375 143.261719 329.179688 155.652344 336.554688 C 168.65625 344.265625 181.613281 352.261719 196.882812 354.691406 C 212.753906 357.1875 228.242188 356.625 241.847656 346.363281 C 245.101562 343.527344 248.175781 340.507812 251.070312 337.304688 C 248.222656 345.449219 244.609375 351.261719 238.515625 355.175781 C 221.863281 365.898438 203.3125 368.847656 184.109375 366.433594 C 157.816406 363.101562 131.835938 362.734375 106.824219 372.609375 C 64.910156 389.164062 37.679688 419.488281 24.609375 462.535156 C 22.59375 465.699219 22.675781 469.265625 21.992188 472.644531 Z M 610.394531 203.515625 C 606.625 202.996094 602.988281 202 599.484375 200.519531 C 576.753906 191.375 556.902344 177.203125 536.46875 164.082031 C 508.160156 145.878906 479.851562 127.445312 447.578125 116.820312 C 409.273438 104.179688 370.757812 102.28125 332.589844 116.71875 C 290.40625 132.675781 263.976562 172.023438 268.175781 212.808594 C 269.308594 216.230469 269.941406 219.746094 270.074219 223.347656 C 268.539062 220.765625 267.53125 217.988281 267.042969 215.023438 C 265.527344 209.328125 264.71875 203.53125 264.621094 197.640625 C 264.523438 191.746094 265.136719 185.929688 266.460938 180.183594 C 272.738281 153.308594 288.992188 133.558594 312.320312 120.035156 C 347.125 99.917969 384.796875 96.703125 423.730469 103.996094 C 451.890625 109.261719 477.285156 121.382812 501.78125 135.738281 C 532.074219 153.492188 560.601562 174.039062 590.726562 192.09375 C 597.21875 195.988281 603.832031 199.703125 610.394531 203.515625 Z M 315.917969 201.132812 C 317.597656 197.90625 319.558594 194.863281 321.804688 192 C 324.046875 189.136719 326.535156 186.503906 329.269531 184.105469 C 332 181.703125 334.933594 179.574219 338.058594 177.71875 C 341.1875 175.859375 344.460938 174.308594 347.875 173.058594 C 368.476562 165.347656 389.507812 165.113281 410.691406 170.160156 C 435.554688 176.089844 457.320312 188.859375 478.800781 201.96875 C 498.917969 214.191406 518.101562 228.046875 539.867188 237.40625 C 560.96875 246.480469 582.75 249.910156 605.230469 243.28125 C 609.882812 241.96875 614.394531 240.269531 618.757812 238.191406 C 623.125 236.109375 627.285156 233.679688 631.238281 230.894531 C 635.191406 228.113281 638.886719 225.015625 642.316406 221.609375 C 645.746094 218.203125 648.867188 214.53125 651.675781 210.59375 C 651.875 211.257812 652.160156 211.660156 652.058594 211.890625 C 651.46875 213.203125 650.816406 214.480469 650.09375 215.722656 C 636.253906 238.453125 615.289062 249.496094 589.492188 252.027344 C 566.664062 254.257812 545.5625 248.164062 525.628906 237.355469 C 504.378906 225.832031 484.679688 211.777344 463.761719 199.703125 C 441.480469 186.863281 418.535156 175.722656 392.4375 173.390625 C 368.476562 171.257812 346.09375 175.570312 326.808594 190.976562 C 323.328125 193.773438 320.25 197.070312 315.917969 201.132812 Z M 339.632812 153.457031 C 364.894531 141.265625 391.140625 140.949219 417.769531 147.644531 C 442.5625 153.855469 464.0625 167.0625 485.546875 180.269531 C 506.679688 193.257812 526.929688 207.730469 549.777344 217.855469 C 553.867188 219.765625 558.089844 221.3125 562.445312 222.496094 C 566.800781 223.683594 571.226562 224.488281 575.722656 224.914062 C 580.21875 225.339844 584.714844 225.378906 589.214844 225.03125 C 593.71875 224.6875 598.15625 223.957031 602.53125 222.851562 C 633.058594 215.089844 648.378906 195.488281 646.578125 166.53125 L 646.230469 165.445312 L 643.03125 155.921875 C 645.378906 158.246094 646.898438 161.019531 647.59375 164.25 C 653.359375 182.300781 649.828125 198.253906 635.9375 211.175781 C 618.1875 227.628906 596.671875 233.273438 572.972656 230.859375 C 555.570312 229.078125 540.285156 221.335938 525.511719 212.542969 C 503.699219 199.535156 482.949219 184.78125 460.667969 172.476562 C 431.324219 156.269531 400.714844 145.828125 366.578125 151.09375 C 336.234375 155.773438 311.621094 173.90625 302.613281 204.816406 C 300.582031 211.792969 300.03125 218.953125 298.949219 227.597656 C 295.835938 193.574219 310.40625 167.5625 339.632812 153.457031 Z M 290.457031 239.886719 C 288.902344 237.730469 287.53125 235.464844 286.347656 233.089844 C 285.164062 230.710938 284.183594 228.253906 283.398438 225.714844 C 282.617188 223.175781 282.046875 220.589844 281.691406 217.957031 C 281.332031 215.324219 281.191406 212.683594 281.265625 210.027344 C 281.5625 178.054688 296.367188 153.988281 323.496094 138.035156 C 354.804688 119.601562 388.691406 117.738281 423.414062 125.964844 C 451.890625 132.625 476.4375 147.796875 500.433594 163.816406 C 513.605469 172.625 526.546875 181.765625 539.769531 190.460938 C 546.164062 194.671875 546.429688 194.441406 550.175781 188.496094 C 551.140625 186.996094 552.65625 185.964844 553.171875 188.0625 C 554.523438 193.441406 558.285156 195.207031 563.816406 195.820312 C 556.753906 197.488281 555.488281 201.816406 557.535156 207.996094 C 553.789062 204 550.191406 203.300781 544.847656 207.261719 C 548.777344 200.167969 545.011719 198.304688 540.933594 196.207031 C 535.488281 193.425781 530.125 190.441406 524.980469 187.144531 C 512.390625 179.070312 500.082031 170.492188 487.410156 162.597656 C 458.949219 144.746094 429.292969 129.808594 394.871094 127.945312 C 369.074219 126.546875 344.527344 131.042969 322.679688 145.582031 C 300.832031 160.117188 288.042969 180.269531 286.042969 206.8125 C 285.660156 212.417969 285.839844 218.003906 286.582031 223.570312 C 287.328125 229.140625 288.617188 234.578125 290.457031 239.886719 Z M 289.824219 253.207031 C 260.132812 247.996094 240.832031 219.253906 252.585938 179.453125 C 248.722656 212.359375 257.382812 238.289062 289.824219 253.257812 Z M 266.175781 356.207031 C 266.574219 346.214844 263.660156 336.605469 262.84375 326.765625 C 262.746094 325.382812 262.414062 323.964844 264.644531 323.582031 C 271.820312 322.367188 282.03125 330.761719 281.964844 338.90625 C 281.527344 342.355469 280.527344 345.632812 278.957031 348.738281 C 277.386719 351.84375 275.34375 354.59375 272.820312 356.988281 C 270.222656 359.703125 266.078125 358.972656 266.175781 356.257812 Z M 253.054688 364.367188 C 257.21875 363.785156 259.964844 359.738281 264.496094 360.035156 C 261.097656 362.535156 258.03125 365.847656 253.035156 364.417969 Z M 574.355469 496.074219 C 581.015625 509.863281 579.933594 527.300781 572.175781 536.859375 C 571.742188 520.953125 566.710938 513.292969 554.339844 509.878906 C 549.15625 508.640625 543.964844 508.605469 538.769531 509.78125 C 531.523438 511.128906 524.414062 513.3125 516.886719 512.613281 C 505.730469 511.546875 499.085938 503.96875 500.550781 493.808594 C 504.945312 504.300781 510.542969 508.296875 520.699219 508.132812 C 525.566406 507.785156 530.328125 506.882812 534.988281 505.433594 C 547.628906 502.304688 559.683594 502.417969 570.890625 512.660156 C 568.328125 490.746094 558.167969 476.375 537.152344 470.761719 C 554.6875 471.761719 566.894531 480.554688 574.355469 496.074219 Z M 583.296875 533.59375 C 593.941406 535.257812 602.101562 543.371094 602.199219 552.429688 C 602.226562 553.285156 602.175781 554.140625 602.050781 554.988281 C 601.921875 555.835938 601.71875 556.667969 601.4375 557.476562 C 601.160156 558.289062 600.808594 559.070312 600.386719 559.816406 C 599.96875 560.566406 599.480469 561.269531 598.933594 561.925781 C 598.382812 562.585938 597.777344 563.191406 597.117188 563.738281 C 596.457031 564.289062 595.753906 564.773438 595.007812 565.195312 C 594.257812 565.613281 593.480469 565.964844 592.667969 566.242188 C 591.855469 566.519531 591.023438 566.722656 590.175781 566.851562 C 580.816406 568.515625 573.289062 563.703125 570.042969 554.109375 C 579.835938 561.835938 587.59375 562.636719 592.574219 556.425781 C 597.554688 550.214844 594.839844 542.886719 583.296875 533.59375 Z M 472.855469 364.035156 C 478.46875 384.683594 495.71875 398.003906 517.070312 398.753906 C 529.527344 399.15625 541.234375 394.925781 553.40625 393.757812 C 590.859375 390.046875 623.515625 414.527344 624.214844 452.925781 C 624.699219 478.488281 612.824219 497.789062 592.125 514.078125 C 596.769531 499.207031 596.921875 485.765625 591.742188 472.445312 C 586.5625 459.121094 576.902344 449.894531 563.730469 444.285156 C 565.332031 444.46875 566.917969 444.753906 568.484375 445.132812 C 570.050781 445.511719 571.589844 445.988281 573.097656 446.558594 C 574.609375 447.128906 576.074219 447.789062 577.503906 448.539062 C 578.929688 449.289062 580.308594 450.121094 581.632812 451.042969 C 582.957031 451.960938 584.21875 452.960938 585.421875 454.035156 C 586.625 455.109375 587.757812 456.253906 588.816406 457.46875 C 589.878906 458.683594 590.859375 459.957031 591.765625 461.292969 C 592.671875 462.628906 593.488281 464.015625 594.222656 465.449219 C 600.652344 477.105469 601.183594 489.898438 599.683594 504.183594 C 612.90625 489.464844 611.34375 473.578125 607.144531 458.171875 C 599.917969 432.011719 582.484375 415.957031 555.519531 410.527344 C 571.226562 409.328125 584.429688 414.925781 595.589844 425.800781 C 606.746094 436.675781 612.40625 450.429688 615.804688 466.882812 C 618.621094 453.925781 617.921875 442.71875 613.558594 431.910156 C 603.03125 405.847656 576.652344 395.957031 553.355469 398.121094 C 543.363281 399.054688 533.371094 401.601562 523.382812 402.269531 C 498.484375 403.933594 476.488281 393.328125 471.757812 365.066406 C 471.757812 364.882812 471.605469 364.714844 471.539062 364.535156 C 470.828125 362.722656 470.371094 360.847656 470.175781 358.910156 C 469.976562 356.972656 470.042969 355.042969 470.375 353.125 Z M 475.539062 339.585938 C 477.636719 343.898438 478.550781 348.695312 481.050781 352.910156 C 492.625 372.160156 510.457031 378.988281 531.925781 378.304688 C 546.996094 377.804688 561.199219 372.558594 575.886719 369.980469 C 603.097656 364.984375 629.261719 365.414062 653.007812 385.332031 C 650.796875 380.074219 647.710938 375.394531 643.75 371.292969 C 630.425781 356.972656 613.589844 353.210938 594.839844 355.539062 C 592.191406 357.007812 589.292969 356.921875 585.128906 357.554688 C 587.789062 355.980469 590.640625 354.941406 593.691406 354.441406 C 629.011719 344.617188 657.238281 367.546875 665.628906 395.324219 C 675.789062 428.914062 662.617188 451.527344 634.140625 467.347656 C 643.550781 437.472656 636.238281 412.808594 611.175781 393.542969 C 614.226562 394.726562 617.136719 396.183594 619.914062 397.910156 C 622.691406 399.640625 625.28125 401.609375 627.691406 403.824219 C 630.097656 406.039062 632.28125 408.457031 634.234375 411.078125 C 636.191406 413.703125 637.882812 416.480469 639.320312 419.421875 C 640.808594 422.332031 641.980469 425.363281 642.84375 428.515625 C 643.703125 431.667969 644.234375 434.875 644.433594 438.140625 C 644.632812 441.402344 644.496094 444.648438 644.027344 447.882812 C 643.554688 451.117188 642.757812 454.269531 641.632812 457.339844 C 646.347656 453.003906 650.511719 448.191406 654.125 442.902344 C 666.195312 424.652344 664.363281 405.617188 648.746094 390.363281 C 631.691406 373.710938 610.542969 370.726562 588.011719 372.992188 C 572.390625 374.660156 557.371094 379.289062 541.949219 381.820312 C 524.847656 384.632812 508.425781 382.984375 493.855469 372.660156 C 482.5 364.699219 476.835938 353.242188 475.503906 339.585938 Z M 676.304688 430.210938 C 675.539062 427.316406 676.9375 425.417969 677.488281 423.417969 C 687.847656 385.933594 669.542969 348.363281 634.273438 335.058594 C 615.289062 327.898438 595.886719 330.144531 576.539062 332.992188 C 557.804688 335.722656 539.167969 339.289062 520.066406 336.789062 C 505.261719 334.859375 491.324219 330.695312 479 321.953125 C 481.167969 322.535156 483.277344 323.28125 485.328125 324.183594 C 496.546875 328.804688 508.203125 331.578125 520.300781 332.507812 C 540.285156 334.292969 559.851562 330.84375 579.433594 327.515625 C 594.089844 325.015625 608.910156 323.582031 623.648438 326.347656 C 655.921875 332.425781 678.421875 355.839844 683.199219 388.628906 C 683.773438 392.167969 684.058594 395.726562 684.050781 399.308594 C 684.042969 402.894531 683.75 406.453125 683.164062 409.988281 C 682.578125 413.523438 681.707031 416.984375 680.558594 420.378906 C 679.40625 423.773438 677.988281 427.050781 676.304688 430.210938 Z M 674.957031 460.9375 C 672.375 462.601562 670.894531 463.902344 673.292969 467.597656 C 678.285156 475.308594 678.003906 483.769531 673.292969 491.613281 C 668.578125 499.457031 661.449219 502.304688 652.589844 501.703125 C 643.300781 501.085938 634.273438 493.695312 633.222656 485.648438 C 640.101562 493.195312 648.3125 495.640625 657.769531 491.976562 C 658.460938 491.75 659.128906 491.46875 659.777344 491.136719 C 660.421875 490.800781 661.035156 490.414062 661.621094 489.980469 C 662.203125 489.546875 662.75 489.070312 663.253906 488.546875 C 663.761719 488.023438 664.222656 487.464844 664.640625 486.867188 C 665.054688 486.269531 665.421875 485.644531 665.738281 484.988281 C 666.050781 484.332031 666.3125 483.65625 666.519531 482.957031 C 666.722656 482.261719 666.875 481.550781 666.964844 480.828125 C 667.054688 480.109375 667.089844 479.382812 667.0625 478.65625 C 666.914062 470.195312 662.714844 464.234375 654.191406 462.003906 C 663.234375 446.117188 677.269531 439.589844 690.042969 445.066406 C 676.554688 445.066406 667.0625 448.945312 658.652344 457.90625 C 661.085938 458.804688 663.28125 459.570312 665.429688 460.472656 C 665.824219 460.667969 666.234375 460.789062 666.667969 460.84375 C 667.105469 460.894531 667.535156 460.875 667.960938 460.777344 C 668.386719 460.679688 668.785156 460.511719 669.15625 460.277344 C 669.523438 460.042969 669.84375 459.75 670.109375 459.40625 C 683.300781 447 701 446.214844 715.671875 457.15625 C 718.597656 459.046875 720.875 461.535156 722.5 464.617188 C 720.214844 463.53125 717.996094 462.328125 715.839844 461.003906 C 702.25 453.828125 688.59375 451.929688 674.957031 460.9375 Z M 658.421875 555.777344 C 673.539062 556.625 684.683594 550.863281 692.359375 538.90625 C 700.035156 526.949219 699.621094 514.34375 696.238281 499.839844 C 705.480469 515.808594 703.765625 535.824219 693.507812 547.714844 C 685.03125 557.558594 668.246094 561.203125 658.421875 555.777344 Z M 616.605469 545.269531 C 617.289062 546.648438 617.902344 547.933594 618.519531 549.199219 C 628.511719 569.664062 624.230469 591.679688 607.246094 606.71875 C 591.640625 620.507812 568.292969 622.4375 551.589844 611.3125 C 536.335938 601.15625 530.425781 582.121094 536.6875 563.335938 C 536.554688 591.363281 545.3125 606.300781 564.714844 611.28125 C 579.953125 615.195312 597.769531 609.75 606.230469 595.441406 C 586.347656 605.433594 566.84375 604.867188 553.871094 592.296875 C 536.6875 575.644531 539.285156 556.324219 548.875 536.707031 C 522.230469 540.289062 513.824219 538.722656 507.527344 528.765625 C 509.078125 529.976562 510.71875 531.042969 512.453125 531.96875 C 514.1875 532.898438 515.988281 533.667969 517.855469 534.285156 C 519.722656 534.898438 521.628906 535.351562 523.574219 535.636719 C 525.523438 535.925781 527.476562 536.042969 529.441406 535.992188 C 537.019531 535.992188 544.546875 533.945312 552.640625 534.558594 C 546.59375 545.300781 544.515625 555.941406 546.828125 567.464844 C 550.425781 585.46875 565.230469 597.226562 583.25 596.058594 C 601.851562 594.859375 617.636719 579.957031 618.003906 562.269531 C 618.203125 553.0625 617.085938 544.21875 606.128906 539.890625 C 598.386719 536.824219 594.074219 529.582031 591.140625 520.421875 C 592.078125 521.3125 592.960938 522.25 593.789062 523.234375 C 604.097656 538.390625 622.964844 544.703125 641.816406 538.355469 C 663.464844 531.097656 679.535156 518.089844 683.199219 493.910156 C 683.832031 489.648438 683.847656 485.300781 684.214844 479.886719 C 691.144531 524.652344 652.042969 552.695312 616.605469 545.269531 Z M 632.722656 620.855469 C 632.441406 633.046875 626.3125 640.839844 618.417969 647.066406 C 602.847656 659.472656 584.980469 663.71875 565.128906 661.289062 C 539.601562 658.191406 517.335938 639.207031 510.675781 614.511719 C 507.34375 601.972656 506.894531 577.359375 512.058594 560.023438 C 511.742188 563.121094 511.558594 564.71875 511.40625 566.316406 C 510.109375 580.773438 509.890625 595.210938 513.605469 609.363281 C 520.699219 636.441406 544.996094 655.042969 573.738281 655.675781 C 579.246094 655.894531 584.664062 655.292969 589.988281 653.875 C 595.316406 652.457031 600.3125 650.28125 604.980469 647.351562 C 573.222656 654.792969 546.363281 638.390625 538.769531 626.351562 C 552.773438 638.339844 568.445312 643.988281 586.445312 642.835938 C 604.449219 641.6875 619.503906 634.09375 632.722656 620.855469 Z M 498.703125 605.785156 C 499.132812 609.832031 499.550781 613.878906 499.984375 617.925781 C 505.328125 642.269531 519.96875 659.15625 542.566406 668.75 C 571.042969 680.824219 598.070312 678.257812 622.78125 658.507812 C 620.730469 661.609375 618.308594 664.390625 615.519531 666.851562 C 612.726562 669.3125 609.664062 671.367188 606.328125 673.011719 C 577.335938 686.984375 549.960938 682.738281 524.398438 664.570312 C 509.625 654.078125 500.699219 639.589844 498.882812 621.273438 C 497.152344 616.160156 498.117188 610.980469 498.769531 605.785156 Z M 242.578125 474.226562 C 224.476562 484.21875 211.054688 497.824219 207.941406 519.1875 C 204.828125 540.554688 212.488281 557.492188 229.757812 571.679688 C 212.519531 564.886719 200.480469 542.804688 201.8125 522.105469 C 203.511719 496.507812 222.796875 477.472656 242.644531 474.210938 Z M 270.054688 578.441406 C 247.160156 578.875 222.378906 558.589844 218.148438 536.640625 C 214.71875 518.871094 223.542969 495.007812 235.285156 490.28125 C 208.074219 526.316406 222.394531 563.519531 270.121094 578.425781 Z M 305.992188 684.621094 C 316.585938 660.640625 310.421875 639.242188 295.136719 619.574219 C 285.828125 607.582031 273.652344 599.089844 260.28125 592.128906 C 269.917969 594.722656 278.726562 599.011719 286.710938 605.003906 C 310.339844 622.371094 321.046875 645.367188 315.652344 674.695312 C 311.6875 696.175781 293.386719 711.929688 273.121094 711.78125 C 288.140625 707.75 299.664062 699.058594 305.992188 684.621094 Z M 213.304688 467.082031 C 219.800781 464.296875 226.570312 462.628906 233.621094 462.085938 C 226.148438 464.652344 218.890625 467.71875 211.835938 471.277344 C 204.597656 474.988281 197.902344 479.507812 191.753906 484.835938 C 165.390625 508.046875 161.480469 548.117188 183.226562 574.460938 C 194.351562 587.917969 209.207031 595.308594 225.84375 599.441406 C 241.613281 603.285156 257.199219 607.5 270.988281 616.542969 C 287.507812 627.367188 298.132812 642.136719 301.164062 661.886719 C 301.757812 665.644531 301.734375 669.398438 301.09375 673.144531 C 300.453125 676.894531 299.226562 680.441406 297.417969 683.789062 C 300.296875 664.351562 290.757812 651.582031 275.769531 641.539062 C 269.675781 637.332031 263.238281 633.75 256.449219 630.796875 C 245.710938 626.316406 234.933594 621.921875 224.175781 617.476562 C 245.460938 620.605469 265.460938 627.21875 284.128906 640.789062 C 283.167969 637.925781 281.632812 635.417969 279.515625 633.261719 C 270.324219 622.570312 258.617188 615.792969 245.375 611.363281 C 233.953125 607.550781 221.980469 605.703125 210.605469 601.65625 C 174.535156 588.816406 155.46875 553.84375 165.058594 517.074219 C 171.636719 491.378906 189.753906 476.40625 213.304688 467.082031 Z M 239.183594 427.832031 C 217.898438 430.8125 199.214844 439.488281 182.476562 452.8125 C 196.917969 435.90625 225.277344 423.433594 239.183594 427.832031 Z M 111.769531 355.773438 C 111.769531 357.054688 111.304688 357.820312 110.003906 357.820312 C 108.707031 357.820312 107.839844 357.304688 107.757812 356.058594 C 107.734375 355.792969 107.769531 355.535156 107.855469 355.285156 C 107.941406 355.035156 108.070312 354.8125 108.25 354.617188 C 108.429688 354.421875 108.636719 354.269531 108.878906 354.160156 C 109.121094 354.050781 109.375 353.996094 109.636719 353.992188 C 110.902344 353.957031 111.703125 354.375 111.769531 355.773438 Z M 580.367188 95.605469 C 579.117188 95.722656 578.484375 94.90625 578.203125 93.457031 C 578.503906 92.605469 579.035156 91.691406 580.285156 91.792969 C 581.535156 91.890625 581.699219 92.757812 581.734375 93.691406 C 581.765625 94.621094 581.417969 95.519531 580.367188 95.605469 Z M 580.367188 95.605469 " fill-opacity="1" fill-rule="nonzero"/></g></svg>