<svg xmlns="http://www.w3.org/2000/svg" xmlns:xlink="http://www.w3.org/1999/xlink" width="1080" zoomAndPan="magnify" viewBox="0 0 810 809.999993" height="1080" preserveAspectRatio="xMidYMid meet" version="1.0"><defs><clipPath id="d4134dae7a"><path d="M 533 268 L 693 268 L 693 453 L 533 453 Z M 533 268 " clip-rule="nonzero"/></clipPath><clipPath id="d89a042823"><path d="M 357.121094 -79.660156 L 880.15625 299.058594 L 452.613281 889.523438 L -70.421875 510.804688 Z M 357.121094 -79.660156 " clip-rule="nonzero"/></clipPath><clipPath id="bc6d901589"><path d="M 880.382812 299.222656 L 357.347656 -79.492188 L -70.195312 510.972656 L 452.84375 889.6875 Z M 880.382812 299.222656 " clip-rule="nonzero"/></clipPath><clipPath id="53c38ff80e"><path d="M 265 28 L 717 28 L 717 755 L 265 755 Z M 265 28 " clip-rule="nonzero"/></clipPath><clipPath id="e87f017261"><path d="M 357.121094 -79.660156 L 880.15625 299.058594 L 452.613281 889.523438 L -70.421875 510.804688 Z M 357.121094 -79.660156 " clip-rule="nonzero"/></clipPath><clipPath id="e2d329c9b8"><path d="M 880.382812 299.222656 L 357.347656 -79.492188 L -70.195312 510.972656 L 452.84375 889.6875 Z M 880.382812 299.222656 " clip-rule="nonzero"/></clipPath></defs><g clip-path="url(#d4134dae7a)"><g clip-path="url(#d89a042823)"><g clip-path="url(#bc6d901589)"><path fill="current" d="M 549.128906 289.15625 C 550.484375 289.441406 552.996094 289.023438 554.398438 288.851562 C 563.472656 287.738281 572.523438 286.355469 581.636719 285.597656 C 588.917969 284.992188 596.269531 284.839844 603.574219 285.035156 C 617.640625 285.402344 630.878906 295.320312 639.121094 306.179688 C 639.808594 307.09375 640.507812 308.066406 641.53125 308.578125 C 642.746094 309.191406 644.269531 309.039062 645.441406 308.347656 C 649.738281 305.808594 649.882812 297.035156 647.375 293.285156 C 646.058594 291.328125 644.640625 289.277344 642.8125 287.855469 C 632.734375 280.027344 621.003906 273.804688 608.140625 272.5 C 590.984375 270.765625 576.945312 277.671875 561.667969 284.292969 C 557.660156 286.023438 552.898438 287.085938 549.128906 289.15625 Z M 596.398438 329.316406 C 589.859375 323.925781 582.460938 321.898438 573.085938 323.722656 C 572.007812 323.929688 571.707031 325.34375 572.597656 325.988281 L 591.0625 339.359375 C 592.269531 340.230469 593.96875 339.78125 594.582031 338.429688 C 595.523438 336.367188 596.34375 334.574219 597.179688 332.738281 C 597.71875 331.550781 597.40625 330.148438 596.398438 329.316406 Z M 647.277344 410.796875 C 652.550781 412.222656 658.148438 410.570312 660.933594 405.628906 C 661.320312 404.941406 661.789062 403.714844 660.59375 403.511719 C 654.316406 402.433594 649.699219 404.304688 646.59375 409.003906 C 646.148438 409.679688 646.5 410.589844 647.277344 410.796875 Z M 623.074219 272.507812 C 634.300781 276.910156 644.945312 281.886719 650.667969 293.503906 C 655.09375 302.507812 653.097656 310.605469 644.820312 315.839844 C 640.089844 318.828125 635.195312 321.542969 630.40625 324.429688 C 628.902344 325.339844 627.496094 326.425781 624.8125 328.285156 C 638.699219 333.519531 650.433594 328.058594 662.707031 327.105469 C 658.355469 330.960938 653.882812 334.578125 648.789062 336.714844 C 643.453125 338.953125 637.511719 339.777344 631.582031 341.28125 C 633.734375 344.339844 635.691406 347.113281 637.644531 349.890625 C 637.210938 350.53125 628.699219 346.066406 624.398438 344.605469 C 617.933594 351.730469 612.785156 355.640625 605.527344 352.328125 C 602.996094 351.175781 600.679688 349.53125 598.304688 348.054688 C 590.34375 343.113281 582.40625 338.140625 574.460938 333.183594 C 574.003906 333.53125 576.648438 342.730469 578.921875 346.703125 C 588.117188 362.742188 600.039062 376.660156 613.3125 389.398438 C 619.65625 395.492188 626.464844 401.132812 633.351562 406.605469 C 636.085938 408.777344 639.300781 409.214844 642.335938 407.382812 C 644.152344 406.289062 645.527344 404.644531 647.28125 403.476562 C 649.785156 401.8125 652.570312 400.222656 655.570312 399.722656 C 658.117188 399.308594 661.304688 399.765625 663.21875 401.671875 C 665.527344 403.976562 662.050781 408.386719 660.210938 409.878906 C 658.632812 411.164062 656.742188 412.03125 654.8125 412.679688 C 652.90625 413.316406 650.933594 413.753906 648.933594 413.988281 C 646.957031 414.21875 644.894531 413.90625 642.953125 414.222656 C 642.042969 414.367188 641.550781 415.101562 640.984375 415.8125 C 639.707031 417.402344 638.769531 419.230469 638.144531 421.160156 C 636.847656 425.144531 636.851562 429.542969 637.941406 433.570312 C 639.007812 437.53125 641.191406 441.265625 644.460938 443.792969 C 654.046875 451.195312 667.539062 450.832031 678.226562 446.132812 C 682.382812 444.308594 685.960938 441.773438 688.152344 437.683594 C 688.453125 437.128906 688.730469 436.5 688.625 435.878906 C 688.300781 433.890625 685.148438 433.109375 683.527344 432.769531 C 681.242188 432.285156 678.828125 432.375 676.597656 433.070312 C 673.792969 433.945312 671.261719 435.578125 668.46875 436.519531 C 667.714844 436.777344 666.917969 437 666.128906 436.90625 C 665.914062 436.878906 665.691406 436.820312 665.558594 436.65625 C 665.058594 436.03125 667.054688 433.621094 667.464844 433.136719 C 668.460938 431.953125 669.6875 430.972656 671.015625 430.1875 C 673.664062 428.621094 676.734375 427.808594 679.78125 427.503906 C 682.691406 427.214844 686.050781 426.90625 688.703125 428.414062 C 691.585938 430.050781 693.367188 433.511719 692.828125 436.8125 C 692.273438 440.25 689.214844 442.722656 686.558594 444.636719 C 677.292969 451.324219 666.925781 454.15625 655.375 451.882812 C 641.46875 449.152344 633.398438 438.386719 635.304688 424.25 C 635.863281 420.070312 637.316406 416.007812 637.835938 413.941406 C 627.296875 404.308594 617.328125 395.851562 608.117188 386.644531 C 591.554688 370.089844 577.035156 352.015625 567.472656 330.277344 C 565.964844 326.871094 561.921875 324.039062 558.398438 322.164062 C 549.054688 317.207031 538.320312 314.308594 533.605469 303.011719 C 545.527344 313.988281 559.738281 314.933594 574.753906 313.539062 C 588.015625 312.3125 600.921875 313.613281 613.078125 320.097656 C 616.863281 322.125 622.089844 323.683594 625.972656 322.71875 C 630.289062 321.636719 634.816406 318.234375 637.410156 314.320312 C 639.882812 310.601562 626.308594 292.464844 605.628906 290.339844 C 584.039062 288.132812 562.761719 290.242188 541.65625 295.679688 C 535.664062 297.222656 530.0625 295.191406 538.765625 289.203125 C 540.074219 288.304688 541.855469 287.777344 543.472656 287.160156 C 553.136719 283.488281 563.082031 280.40625 572.414062 276.015625 C 588.988281 268.222656 605.582031 265.652344 623.074219 272.507812 " fill-opacity="1" fill-rule="nonzero"/></g></g></g><g clip-path="url(#53c38ff80e)"><g clip-path="url(#e87f017261)"><g clip-path="url(#e2d329c9b8)"><path fill="current" d="M 650.34375 567.640625 C 646.386719 563.261719 642.222656 562.1875 637.222656 563.019531 C 636.636719 563.117188 636.300781 563.746094 636.523438 564.300781 C 638.617188 569.515625 641.738281 570.445312 650.101562 568.425781 C 650.453125 568.339844 650.585938 567.910156 650.34375 567.640625 Z M 384.796875 287.285156 C 384.660156 287.03125 384.296875 287.003906 384.132812 287.238281 C 380.160156 292.984375 375.441406 302.609375 373.070312 309.011719 C 371.183594 314.125 369.308594 320.824219 373.023438 325.570312 C 373.78125 326.535156 374.824219 327.40625 376.050781 327.445312 C 376.664062 327.464844 377.273438 327.269531 377.835938 327.027344 C 384.011719 324.359375 385.441406 316.636719 386.261719 310.695312 C 387.105469 304.554688 387.871094 293.105469 384.796875 287.285156 Z M 571.25 189.832031 C 567.417969 191.152344 563.652344 192.691406 559.960938 194.398438 C 542.632812 202.386719 526.679688 212.578125 512.476562 225.367188 C 510.621094 227.039062 508.722656 228.675781 506.640625 230.0625 C 502.105469 233.082031 497.699219 236.128906 492.882812 238.707031 C 484.320312 243.292969 475.125 246.671875 465.609375 248.632812 C 455.902344 250.632812 446.296875 253.203125 436.738281 255.84375 C 425.980469 258.828125 415.351562 261.609375 405.570312 267.101562 C 404.707031 267.59375 403.851562 268.09375 403.003906 268.609375 C 400.246094 270.289062 397.582031 272.125 395.035156 274.121094 C 393.109375 275.625 389.367188 277.851562 388.730469 280.390625 C 388.484375 281.527344 388.671875 282.707031 388.839844 283.859375 C 390.824219 297.289062 391.628906 310.734375 385.777344 323.378906 C 383.976562 327.273438 378.09375 330.761719 373.765625 329.613281 C 371.847656 329.105469 370.304688 327.613281 369.265625 325.921875 C 366.035156 320.667969 367.238281 314.378906 369.097656 308.890625 C 371.070312 303.078125 373.800781 297.5625 376.621094 292.121094 C 378.707031 288.101562 383.847656 282 380.46875 277.5 C 377.699219 273.8125 373.265625 271.175781 368.832031 270.09375 C 362.667969 268.582031 356.132812 269.804688 351.378906 274.113281 C 342.386719 282.269531 338.347656 294.925781 335.347656 306.300781 C 332.851562 315.769531 330.875 325.175781 330.570312 334.976562 C 330.265625 344.773438 330.695312 354.609375 332.042969 364.316406 C 333.070312 371.726562 333.902344 379.507812 336.082031 386.660156 C 338.257812 393.769531 341.328125 400.894531 346.335938 406.53125 C 350.164062 410.835938 354.734375 414.449219 359.835938 417.140625 C 363.175781 418.898438 367.402344 420.949219 371.304688 420.320312 C 371.714844 420.277344 372.121094 420.21875 372.523438 420.132812 C 372.882812 420.050781 373.519531 420.035156 373.105469 419.589844 C 372.753906 419.207031 372.300781 418.945312 371.925781 418.601562 C 371.382812 418.105469 370.84375 417.605469 370.316406 417.101562 C 369.25 416.09375 368.195312 415.078125 367.15625 414.046875 C 365.074219 411.976562 363.039062 409.871094 361.050781 407.714844 C 360.53125 407.160156 360.015625 406.597656 359.503906 406.03125 C 355.246094 401.339844 350.707031 396.71875 347 391.574219 C 344.710938 388.40625 342.691406 384.75 341.984375 380.867188 C 341.449219 377.933594 341.042969 373.328125 343.917969 371.425781 C 344.695312 370.914062 345.644531 370.753906 346.554688 370.894531 C 350.5 371.53125 353.40625 374.691406 356.191406 377.261719 C 360.355469 381.101562 369.113281 391.261719 369.140625 391.375 C 367.734375 385.976562 367.65625 380.292969 366.734375 374.804688 C 365.835938 369.4375 364.125 363.742188 360.1875 359.78125 C 356.820312 356.398438 356.925781 352.230469 360.316406 348.796875 C 363.964844 345.097656 368.300781 345.507812 371.980469 348.601562 C 374.949219 351.089844 374.011719 354.308594 373.128906 357.933594 C 369.253906 373.855469 370.175781 384.640625 374.203125 396.105469 C 375.835938 388.679688 376.597656 373.023438 378.730469 366.386719 C 380.003906 362.402344 381.335938 358.425781 382.933594 354.558594 C 384.425781 350.957031 386.058594 346.898438 388.644531 343.9375 C 390.375 341.957031 393.128906 340.160156 395.875 340.375 C 398.953125 340.609375 400.808594 344.121094 401.753906 346.679688 C 402.796875 349.5 403.207031 352.519531 403.371094 355.507812 C 403.609375 359.90625 400.132812 374.253906 400.40625 378.644531 C 402.183594 375.855469 407.140625 362.867188 408.859375 360.039062 C 414.261719 351.140625 420.03125 342.4375 425.136719 333.375 C 426.3125 331.296875 427.375 329.148438 428.1875 326.902344 C 429.027344 324.589844 429.082031 322.191406 429.742188 319.878906 C 430.839844 316.082031 434.214844 312.488281 438.367188 312.566406 C 441.417969 312.625 444.457031 313.757812 445.933594 316.589844 C 447.304688 319.214844 447.101562 322.390625 445.589844 324.910156 C 444.390625 326.914062 442.488281 328.4375 440.382812 329.46875 C 438.417969 330.429688 436.273438 330.972656 434.289062 331.882812 C 431.046875 333.359375 429.21875 336.292969 427.089844 339.011719 C 424.707031 342.046875 422.433594 345.164062 420.273438 348.359375 C 415.96875 354.734375 412.101562 361.402344 408.640625 368.269531 C 406.445312 372.625 404.417969 377.058594 402.53125 381.550781 C 401.984375 382.855469 401.832031 384.332031 401.140625 387.171875 C 403.292969 385.332031 404.421875 384.519531 405.390625 383.535156 C 416.394531 372.320312 427.003906 360.6875 438.507812 350.007812 C 446.125 342.9375 455.9375 340.75 466.324219 342.789062 C 471.453125 343.800781 476.09375 347.042969 477.933594 352.058594 C 479.6875 356.839844 478.234375 362.121094 475.597656 366.292969 C 471.070312 373.453125 463.933594 377.609375 457.710938 383.023438 C 457.03125 383.617188 456.34375 384.21875 455.722656 384.871094 C 455.527344 385.082031 454.960938 386.074219 454.746094 386.15625 C 457.992188 384.960938 490.882812 367.027344 507.949219 365.589844 C 512.304688 365.222656 516.730469 364.367188 520.558594 362.261719 C 522.671875 361.097656 524.503906 359.503906 526.558594 358.234375 C 528.605469 356.972656 531.007812 356.023438 533.390625 356.398438 C 536.621094 356.898438 539.347656 359.878906 539.804688 363.082031 C 540.414062 367.328125 537.5625 371.441406 533.640625 372.914062 C 530.792969 373.980469 527.527344 373.722656 524.761719 372.449219 C 522.652344 371.484375 520.808594 369.957031 518.625 369.171875 C 515.605469 368.085938 512.324219 368.539062 509.269531 369.226562 C 505.953125 369.976562 502.628906 370.707031 499.335938 371.582031 C 492.324219 373.445312 485.441406 375.753906 478.726562 378.496094 C 476.441406 379.425781 474.179688 380.398438 471.9375 381.425781 C 465.792969 384.246094 459.8125 387.429688 454.035156 390.953125 C 451.152344 392.710938 448.3125 394.5625 445.535156 396.492188 C 443.066406 398.210938 431.710938 404.433594 430.746094 404.972656 C 432.644531 404.878906 439.035156 403.757812 440.9375 403.273438 C 454.34375 399.855469 468.625 401.273438 481.136719 406.859375 C 485.425781 408.765625 492.046875 411.480469 493.175781 416.636719 C 494.039062 420.660156 490.542969 423.730469 487.304688 425.335938 C 481.785156 428.074219 475.628906 429.648438 469.632812 431.289062 C 459.578125 434.035156 448.628906 435.121094 437.796875 436.195312 C 438.90625 436.882812 441.601562 438.078125 442.871094 438.6875 C 449.398438 441.835938 455.335938 446.214844 461.199219 450.429688 C 467.632812 455.0625 473.945312 459.851562 480.359375 464.511719 C 480.550781 464.652344 480.75 464.785156 480.933594 464.929688 C 483.40625 466.785156 485.867188 468.65625 488.316406 470.53125 C 491.792969 473.195312 495.613281 476.011719 499.992188 475.980469 C 503.277344 475.960938 506.972656 474.40625 509.464844 476.882812 C 510.144531 477.558594 510.578125 478.433594 510.773438 479.367188 C 511.445312 482.53125 509.996094 486.132812 507.207031 487.804688 C 505.078125 489.082031 502.195312 489.097656 500.164062 487.65625 C 498.285156 486.320312 497.375 484.042969 496.230469 482.03125 C 492.515625 475.480469 485.886719 471.230469 479.710938 466.925781 C 467.636719 458.503906 456.269531 448.816406 442.90625 442.425781 C 438.90625 440.511719 434.703125 438.894531 430.492188 437.535156 C 428.148438 436.773438 425.75 436.195312 423.046875 436.1875 C 436.320312 444.5 446.96875 455.257812 456.078125 467.6875 C 461.128906 474.574219 464.121094 485.152344 459.460938 493.054688 C 456.503906 498.066406 451.136719 498.179688 446.265625 496.253906 C 435.050781 491.824219 425.207031 483.492188 418.25 473.710938 C 416.265625 470.921875 414.832031 467.351562 411.730469 465.601562 C 412.121094 465.824219 412.597656 473.667969 412.578125 474.152344 C 412.480469 476.957031 411.996094 480.070312 410.828125 482.640625 C 410.179688 484.082031 408.988281 485.410156 407.429688 485.6875 C 406.285156 485.882812 405.101562 485.484375 404.117188 484.867188 C 401.601562 483.304688 400.203125 480.558594 399.054688 477.933594 C 397.753906 474.960938 396.464844 471.96875 395.253906 468.953125 C 392.828125 462.898438 390.597656 456.773438 388.371094 450.640625 C 386.9375 446.6875 384.675781 438.394531 383.421875 438.59375 C 383.957031 445.195312 383.585938 452.039062 385.238281 458.347656 C 388.898438 472.296875 391.921875 486.800781 398.210938 499.597656 C 410.113281 523.820312 426.566406 544.753906 449.855469 559.667969 C 485.996094 582.804688 524.515625 599.976562 566.71875 608.699219 C 574.085938 610.226562 581.25 612.542969 588.410156 614.804688 C 595.113281 616.925781 601.746094 619.121094 608.785156 619.703125 C 617.714844 620.441406 626.816406 619.25 635.269531 616.292969 C 636.75 615.777344 638.207031 615.21875 639.621094 614.527344 C 650.988281 609.035156 657.644531 596.460938 658.632812 584.191406 C 658.804688 582.011719 658.625 579.773438 658.148438 577.640625 C 657.039062 572.738281 656.441406 569.242188 650.957031 571.140625 C 645.25 573.121094 637.855469 572.15625 634.660156 566.894531 C 631.890625 562.339844 634.648438 557.804688 639.777344 557.445312 C 642.113281 557.273438 644.449219 557.984375 646.519531 559.078125 C 648.308594 560.027344 650.09375 561.246094 651.605469 562.597656 C 652.644531 563.535156 653.6875 564.519531 655.125 564.828125 C 657.316406 565.300781 658.9375 563.574219 660.457031 562.277344 C 672.183594 552.320312 672.246094 538.910156 660.367188 529.039062 C 649.949219 520.386719 637.464844 517.269531 624.324219 516.40625 C 614.28125 515.738281 604.992188 513.625 598.816406 504.8125 C 597.710938 503.238281 597.167969 501.273438 596.503906 499.261719 C 596.3125 498.683594 596.996094 498.210938 597.46875 498.605469 C 600.277344 500.972656 606.757812 506.070312 622.351562 498.425781 C 631.253906 494.066406 639.414062 488.320312 647.742188 482.953125 C 656.597656 477.238281 665.65625 472.519531 678.042969 474.09375 C 673.691406 459.878906 682.144531 453.351562 691.457031 446.921875 C 697.277344 442.914062 702.953125 438.445312 707.789062 433.328125 C 714.308594 426.425781 713.378906 420.492188 706.992188 413.511719 C 695.929688 401.421875 684.832031 389.324219 674.464844 376.644531 C 660.75 359.878906 666.707031 334.300781 686.453125 324.195312 C 686.316406 322.683594 686.238281 321.003906 686.003906 319.34375 C 684.402344 307.96875 682.75 296.363281 681.136719 284.898438 C 679.640625 274.265625 678.480469 263.542969 676.257812 253.035156 C 673.367188 239.421875 668.457031 226.128906 659.585938 215.234375 C 646.84375 199.597656 628.113281 187.914062 607.945312 185.355469 C 595.367188 183.765625 583.015625 185.773438 571.25 189.832031 Z M 348.421875 376.300781 C 347.71875 375.894531 346.972656 375.789062 346.15625 376.4375 C 345.652344 376.839844 345.304688 377.410156 345.082031 378.023438 C 343.859375 381.34375 345.464844 384.324219 347.109375 387.089844 C 348.972656 390.214844 351.027344 393.230469 353.253906 396.117188 C 357.699219 401.894531 362.835938 407.132812 368.527344 411.691406 C 369.265625 412.273438 372.867188 414.507812 373.828125 415.339844 C 373.890625 415.394531 373.980469 415.335938 373.957031 415.253906 C 373.566406 413.785156 373.484375 412.199219 373.117188 410.707031 C 372.695312 408.992188 372.167969 407.304688 371.550781 405.648438 C 370.316406 402.339844 368.703125 399.164062 366.820312 396.167969 C 362.207031 388.84375 355.882812 382.832031 349.46875 377.09375 C 349.128906 376.789062 348.777344 376.507812 348.421875 376.300781 Z M 383.28125 416.007812 C 385.25 412.726562 387.03125 409.320312 388.59375 405.824219 C 390.0625 402.554688 390.835938 399.007812 391.808594 395.574219 C 393.933594 388.085938 395.894531 380.550781 397.703125 372.980469 C 398.550781 369.425781 399.507812 365.910156 399.996094 362.277344 C 400.367188 359.574219 400.515625 356.832031 400.269531 354.105469 C 399.980469 350.90625 398.691406 347.269531 395.347656 346.15625 C 392.351562 345.160156 389.527344 349.304688 388.496094 351.597656 C 387.097656 354.6875 386.144531 358.066406 385.027344 361.257812 C 383.859375 364.617188 382.722656 367.996094 381.71875 371.414062 C 379.71875 378.214844 378.222656 385.203125 377.984375 392.300781 C 377.976562 392.445312 377.972656 392.582031 377.96875 392.726562 C 377.824219 398.160156 378.324219 403.59375 379.449219 408.902344 C 379.636719 409.773438 379.878906 410.644531 380.226562 411.464844 C 380.410156 411.898438 383.152344 416.21875 383.269531 416.023438 C 383.273438 416.015625 383.277344 416.011719 383.28125 416.007812 Z M 388.925781 417.816406 C 388.539062 418.539062 388.457031 419.429688 387.742188 422.058594 C 396.175781 417.792969 403.320312 414.5 410.164062 410.664062 C 423.339844 403.273438 436.839844 396.199219 449.042969 387.226562 C 454.023438 383.566406 458.691406 379.535156 463.160156 375.261719 C 465.859375 372.6875 468.472656 369.972656 470.582031 366.878906 C 472.308594 364.339844 474.804688 360.457031 474 357.210938 C 473.328125 354.511719 471.277344 351.828125 468.871094 350.449219 C 467.226562 349.5 465.359375 348.984375 463.484375 348.675781 C 452.074219 346.8125 441.707031 353.410156 433.414062 360.492188 C 421.699219 370.492188 411.246094 382.207031 402.507812 394.886719 C 401.304688 396.632812 400.132812 398.398438 399 400.191406 C 398.199219 401.457031 397.417969 402.730469 396.648438 404.015625 C 393.953125 408.546875 391.390625 413.15625 388.925781 417.816406 Z M 406.09375 428.679688 C 419.878906 431.421875 433.835938 434.648438 447.957031 432.746094 C 453.984375 431.929688 459.890625 430.417969 465.726562 428.710938 C 471.359375 427.058594 477.3125 425.679688 482.660156 423.238281 C 484.253906 422.511719 486.398438 421.316406 486.730469 419.417969 C 487.015625 417.816406 485.789062 416.367188 484.566406 415.292969 C 475.078125 406.90625 462.902344 406.925781 451.007812 408.292969 C 440.410156 409.507812 429.957031 411.941406 419.710938 414.878906 C 412.050781 417.070312 404.398438 419.523438 397.003906 422.542969 C 395.859375 423.007812 393.691406 423.515625 392.84375 424.511719 C 397.707031 426.070312 401.808594 427.828125 406.09375 428.679688 Z M 388.570312 436.734375 C 389.175781 437.335938 389.316406 438.816406 389.5 439.589844 C 390.636719 444.230469 391.421875 448.941406 392.820312 453.535156 C 395.046875 460.820312 398.441406 467.691406 400.90625 474.898438 C 401.675781 477.128906 402.40625 479.453125 403.925781 481.269531 C 404.269531 481.679688 404.667969 482.078125 405.171875 482.28125 C 406.035156 482.625 406.78125 482.167969 407.300781 481.492188 C 410.503906 477.304688 409.980469 471.296875 408.550781 466.5625 C 406.03125 458.207031 401.003906 450.800781 395.457031 444.164062 C 393.296875 441.574219 390.976562 439.109375 388.570312 436.734375 Z M 398.011719 438.050781 C 398.609375 439.070312 399.222656 440.054688 399.792969 440.972656 C 401.5 443.742188 403.398438 446.378906 405.261719 449.046875 C 411.433594 457.894531 417.320312 467.050781 423.886719 475.636719 C 428.148438 481.195312 432.980469 486.445312 438.851562 490.332031 C 443.164062 493.1875 449.511719 496.191406 454.148438 492.257812 C 459.980469 487.289062 457.386719 477.269531 454.226562 471.652344 C 450.882812 465.710938 445.976562 460.761719 441.054688 456.109375 C 430.78125 446.378906 418.871094 438.566406 405.28125 434.402344 C 403.714844 433.925781 402.117188 433.542969 400.507812 433.226562 C 399.175781 432.964844 396.976562 432.207031 395.699219 432.550781 C 396.0625 434.394531 396.988281 436.28125 398.011719 438.050781 Z M 377.496094 654.359375 C 406.835938 665.027344 433.429688 638.417969 449.828125 611.03125 C 450.078125 610.625 449.679688 610.148438 449.234375 610.304688 C 423.320312 619.425781 395.695312 623.925781 376.5625 651.441406 C 375.839844 652.480469 376.308594 653.929688 377.496094 654.359375 Z M 372.898438 436.53125 C 367.773438 443.570312 363.851562 451.933594 361.5625 460.09375 C 354.644531 484.691406 355.5625 513.617188 355.414062 525.128906 C 355.238281 538.5625 358.433594 552.152344 362.589844 564.875 C 366.769531 577.625 368.378906 591.375 369.859375 604.816406 C 370.707031 612.480469 371.101562 620.191406 371.402344 627.902344 C 371.558594 631.757812 371.683594 635.617188 371.835938 639.476562 C 371.964844 642.847656 371.867188 646.101562 372.984375 649.335938 C 381.683594 638.851562 390.675781 628.125 402.605469 621.546875 C 412.011719 616.355469 422.6875 614.070312 432.976562 610.953125 C 441.8125 608.28125 450.515625 604.945312 459.613281 603.449219 C 460.179688 603.355469 460.589844 603.957031 460.300781 604.449219 C 454.800781 613.847656 446.9375 621.640625 440.09375 630.132812 C 433.742188 638.03125 428.046875 646.761719 419.691406 652.5 C 413.507812 656.742188 406.1875 659.082031 398.785156 660.320312 C 391.394531 661.558594 383.863281 661.753906 376.371094 662.027344 C 371.804688 662.203125 369.859375 664.113281 368.757812 668.53125 C 364.875 684.097656 359.476562 699.175781 350.414062 712.507812 C 345.324219 719.988281 338.925781 726.570312 333.136719 733.574219 C 333.488281 734.152344 351.167969 731.621094 359.511719 729.035156 C 380.289062 722.609375 398.300781 711.054688 414.003906 696.265625 C 432.539062 678.816406 450.550781 660.808594 468.535156 642.785156 C 500.285156 610.953125 537.835938 608.535156 539.300781 607.582031 C 536.953125 606.582031 492.824219 590.808594 466.390625 575.234375 C 449.820312 565.472656 433.75 555.609375 421.070312 541.261719 C 395.976562 512.882812 379.097656 480.734375 378.386719 441.769531 C 378.320312 438.148438 378.171875 434.460938 377.734375 430.867188 C 375.976562 432.605469 374.371094 434.507812 372.898438 436.53125 Z M 292.914062 502.113281 C 292.539062 501.9375 292.179688 502.386719 292.417969 502.714844 C 301.769531 515.5 307.996094 530.613281 313.835938 546.003906 C 319.5625 561.089844 331.007812 572.136719 342.207031 583.195312 C 348.675781 589.582031 355.339844 595.773438 362.222656 602.320312 C 362.613281 602.691406 363.253906 602.398438 363.21875 601.863281 C 360.066406 553.625 335.273438 521.25 292.914062 502.113281 Z M 637.074219 515 C 645.453125 518.59375 653.480469 522.042969 661.570312 525.519531 C 662.382812 525.863281 663.332031 525.523438 663.726562 524.734375 C 666.699219 518.742188 665.261719 510.867188 659.957031 507.226562 C 654.3125 503.351562 642.804688 506.492188 636.722656 513.535156 C 636.316406 514.007812 636.5 514.753906 637.074219 515 Z M 684.484375 505.558594 C 690.160156 494.933594 687.722656 488.820312 682.121094 483.578125 C 676.636719 478.441406 667.222656 478.386719 657.308594 484.1875 C 643.996094 491.984375 630.921875 500.179688 617.167969 508.582031 C 616.417969 509.039062 616.5 510.171875 617.3125 510.503906 C 622.988281 512.800781 628.175781 512.195312 633.429688 510.007812 C 638.800781 507.777344 643.925781 505.015625 649.425781 503.167969 C 659.796875 499.691406 667.714844 504.230469 668.3125 515.1875 C 668.476562 518.125 667.484375 521.867188 667.332031 526.402344 C 674.457031 520.351562 680.972656 512.140625 684.484375 505.558594 Z M 687.082031 335.101562 C 687.355469 333.519531 687.039062 331.933594 685.683594 330.886719 C 682.757812 328.617188 680.59375 333.496094 679.433594 335.402344 C 679.144531 335.871094 675.730469 342.054688 675.824219 342.078125 C 678.925781 342.679688 682.445312 341.730469 684.742188 339.539062 C 685.824219 338.515625 686.792969 336.808594 687.082031 335.101562 Z M 326.617188 700.867188 C 327.339844 697.113281 327.691406 693.277344 327.871094 689.460938 C 328.183594 682.820312 328.5 676.199219 328.40625 669.546875 C 328.273438 659.523438 326.0625 647.011719 330.890625 632.351562 C 330.960938 632.144531 330.699219 631.996094 330.5625 632.164062 C 327.164062 636.304688 323.96875 640.566406 320.476562 644.59375 C 316.476562 649.210938 312.554688 653.914062 309.074219 658.945312 C 303.757812 666.648438 299.039062 675.425781 298.375 684.9375 C 297.785156 693.324219 301.882812 700.773438 304.957031 708.269531 C 306.410156 711.808594 307.117188 715.648438 307.050781 719.476562 C 307.019531 721.476562 306.777344 723.476562 306.328125 725.433594 C 305.90625 727.246094 304.796875 729.1875 304.539062 730.898438 C 313.398438 725.820312 320.640625 718.550781 324.359375 708.898438 C 325.363281 706.289062 326.085938 703.601562 326.617188 700.867188 Z M 281.871094 28.40625 C 282.171875 28.511719 282.453125 28.640625 282.734375 28.769531 C 344.320312 56.960938 412.386719 69.335938 480.101562 70.734375 C 499.546875 71.136719 519.074219 70.660156 538.367188 73.101562 C 548.90625 74.4375 559.371094 76.675781 569.367188 80.300781 C 579.367188 83.933594 588.535156 89.25 597.3125 95.183594 C 608.292969 102.605469 618.1875 111.6875 626.070312 122.371094 C 631.777344 130.097656 636.492188 138.546875 640.050781 147.46875 C 643.585938 156.355469 646.574219 165.960938 646.460938 175.621094 C 646.402344 180.371094 645.464844 185.089844 643.566406 189.453125 C 641.722656 193.691406 642.679688 195.867188 646.050781 198.582031 C 669.570312 217.496094 679.269531 243.628906 683.515625 272.300781 C 686.320312 291.238281 688.625 310.257812 690.496094 329.304688 C 690.910156 333.554688 689.300781 338.480469 687.222656 342.332031 C 685.761719 345.039062 681.796875 346.324219 679.1875 348.523438 C 676.957031 350.402344 674.792969 353.535156 678.1875 355.714844 C 679.910156 356.820312 682.105469 356.765625 684.152344 356.671875 C 691.652344 356.332031 698.191406 355.324219 705.148438 352.566406 C 695.644531 360.761719 685.785156 367.804688 672.308594 362.941406 C 671.367188 370.324219 675.207031 374.847656 679.050781 379.050781 C 688.777344 389.703125 698.953125 399.941406 708.65625 410.621094 C 719 422.007812 718.777344 428.734375 707.464844 439.210938 C 701.476562 444.757812 694.621094 449.351562 688.316406 454.566406 C 678.617188 462.578125 677.613281 471.050781 685.429688 480.140625 C 691.441406 487.128906 693.433594 496.542969 689.203125 504.257812 C 684.300781 513.199219 677.214844 519.773438 671.433594 528.253906 C 670.210938 530.039062 668.703125 532.90625 669.328125 534.480469 C 674.480469 547.507812 673.441406 558.507812 662.5 567.398438 C 659.546875 569.804688 660.414062 574.949219 660.917969 577.511719 C 663.523438 590.699219 659.703125 603.914062 649.609375 613.0625 C 648.136719 614.402344 646.546875 615.621094 644.855469 616.691406 C 638.109375 620.96875 630.179688 623.015625 622.308594 623.886719 C 605.574219 625.742188 589.726562 621.246094 573.945312 616.8125 C 536.566406 606.300781 503.554688 612.996094 475.671875 640.949219 C 455.871094 660.804688 435.851562 680.457031 416.214844 700.472656 C 395.917969 721.15625 370.730469 731.84375 342.914062 737.40625 C 332.980469 739.386719 322.886719 740.65625 313.046875 743.003906 C 298.582031 746.449219 284.304688 750.667969 269.878906 754.261719 C 268.835938 754.515625 267.636719 754.164062 266.421875 753.714844 C 265.144531 753.246094 264.71875 751.652344 265.570312 750.597656 C 266.335938 749.652344 267.132812 748.78125 268.121094 748.308594 C 272.183594 746.378906 276.492188 744.945312 280.777344 743.53125 C 296.570312 738.316406 302.785156 727.316406 298.808594 711.199219 C 297.929688 707.652344 296.542969 704.234375 295.625 700.691406 C 291.414062 684.46875 291.984375 669.089844 303.941406 655.839844 C 309.859375 649.277344 315.664062 642.597656 321.726562 636.160156 C 326.71875 630.867188 331.945312 625.785156 337.753906 619.988281 C 338.261719 619.480469 339.121094 619.988281 338.898438 620.679688 C 337.113281 626.480469 332.222656 640.328125 332.390625 648.261719 C 332.640625 659.46875 333.347656 670.710938 332.675781 681.867188 C 331.628906 699.144531 329.933594 716.484375 316.40625 729.660156 C 315.980469 730.074219 310.601562 734.292969 310.324219 735.9375 C 318.949219 732.832031 331.414062 725.535156 336.902344 719.242188 C 354.460938 699.101562 364.160156 675.257812 367.875 649.175781 C 370.742188 629.121094 364.390625 611.09375 350.449219 596.441406 C 343.496094 589.140625 335.167969 583.109375 327.222656 576.816406 C 316.613281 568.417969 309.363281 557.957031 304.480469 545.261719 C 299.394531 532.019531 292.996094 519.277344 286.964844 506.40625 C 284.644531 501.464844 281.890625 496.714844 278.683594 490.816406 C 278.332031 490.167969 278.992188 489.441406 279.671875 489.71875 C 308.347656 501.53125 329.835938 520.410156 350.816406 540.335938 C 351.195312 540.6875 351.816406 540.402344 351.78125 539.878906 C 349.207031 500.4375 347.902344 461.777344 372.585938 428.15625 C 366.277344 425.75 360.007812 424.152344 354.289062 420.371094 C 347.035156 415.582031 341.382812 408.820312 337.335938 401.171875 C 332.632812 392.289062 330.660156 382.222656 329.394531 372.339844 C 328.054688 361.886719 326.820312 351.292969 326.554688 340.753906 C 326.554688 340.738281 326.554688 340.714844 326.554688 340.691406 C 326.289062 330.042969 328.117188 319.167969 331.121094 308.960938 C 331.214844 308.652344 331.308594 308.335938 331.402344 308.027344 C 334.449219 297.996094 338 288.035156 343.292969 278.949219 C 347.617188 271.546875 353.695312 265.214844 362.921875 265.679688 C 366.035156 265.832031 369.09375 266.636719 371.996094 267.742188 C 377.441406 269.816406 381.492188 274.332031 385.234375 279.339844 C 391.742188 272.554688 402.523438 264.046875 411.523438 260.710938 C 428.835938 254.289062 446.820312 249.523438 464.761719 245 C 480.929688 240.917969 496.34375 235.160156 508.816406 224.195312 C 528.863281 206.566406 550.359375 192.304688 576.535156 185.246094 C 596.21875 179.9375 614.867188 180.738281 633.085938 189.816406 C 639.605469 193.070312 641.042969 192.308594 641.84375 184.910156 C 643.839844 166.425781 637.703125 148.039062 627.636719 132.695312 C 616.011719 114.976562 600.703125 100.386719 581.816406 90.566406 C 562.449219 80.496094 540.902344 77.074219 519.292969 76.34375 C 519.078125 76.335938 518.867188 76.332031 518.648438 76.324219 C 496.492188 75.617188 474.351562 76.6875 452.199219 75.359375 C 431.074219 74.097656 410.027344 71.492188 389.226562 67.578125 C 368.425781 63.652344 347.875 58.429688 327.730469 51.933594 C 312.523438 47.023438 278.574219 28.636719 280.144531 28.230469 C 280.714844 28.085938 281.308594 28.203125 281.871094 28.40625 " fill-opacity="1" fill-rule="nonzero"/></g></g></g></svg>